<?xml version="1.0" standalone="no"?>
<!DOCTYPE svg PUBLIC "-//W3C//DTD SVG 1.1//EN" "http://www.w3.org/Graphics/SVG/1.1/DTD/svg11.dtd" >
<svg>
<metadata>
Created by FontForge 20090914 at Tue Jun  8 06:14:56 2021
 By www-data
Copyright 2017 The Spectral Project Authors (http://github.com/productiontype/spectral)
</metadata>
<defs>
<font id="Spectral-Regular" horiz-adv-x="500" >
  <font-face 
    font-family="Spectral"
    font-weight="400"
    font-stretch="normal"
    units-per-em="1000"
    panose-1="2 2 5 2 6 0 0 0 0 0"
    ascent="800"
    descent="-200"
    x-height="450"
    cap-height="660"
    bbox="-202 -250 1311 1057"
    underline-thickness="50"
    underline-position="-95"
    unicode-range="U+0020-U+FB06"
  />
<missing-glyph 
d="M55 0v750h390v-750h-390zM250 406l150 312h-300zM85 62l150 313l-150 313v-626zM415 62v626l-150 -313zM100 32h300l-150 312z" />
    <glyph glyph-name="uniFB00" unicode="ff" horiz-adv-x="684" 
d="M54 0l-0.00488281 16.001l63 32v355h-78v47h78v40c0 13.333 3.33301 30.666 10 51.999s16.334 43.833 29.001 67.5s28 46.167 46 67.5s38.667 38.833 62 52.5s49 20.5 77 20.5c8.66699 0 16.334 -1 23.001 -3s11.667 -3.66699 15 -5c8.66699 -3.33301 13 -8.33301 13 -15
c0 -4 -1.66699 -10 -5 -18l-20 -52h-7l-19 7c-8.66699 2.66699 -17.667 5.16699 -27 7.5s-18.666 3.5 -27.999 3.5c-29.333 0 -51.5 -12.833 -66.5 -38.5s-22.5 -61.167 -22.5 -106.5v-80h262v40c0 13.333 3.33301 30.666 10 51.999s16.5 43.833 29.5 67.5
s28.833 46.167 47.5 67.5s39.834 38.833 63.501 52.5s49.834 20.5 78.501 20.5c6 0 12.333 -1 19 -3s12.334 -4 17.001 -6c20 -7.33301 30 -16.666 30 -27.999c0 -6 -1.33301 -12 -4 -18l-20 -49h-7l-27 11c-18.667 7.33301 -40.334 11 -65.001 11
c-36.667 0 -61.167 -11.5 -73.5 -34.5s-18.5 -57.5 -18.5 -103.5v-80h132v-47h-132v-357l71 -30v-16h-214v16l63 32v355h-262v-357l71 -30v-16h-214z" />
    <glyph glyph-name="uniFB01" unicode="fi" horiz-adv-x="655" 
d="M54 0l-0.000976562 16l63 32v355h-78v47h78v39c0 26.667 7.66699 55 23 85s36.5 58.333 63.5 85s57.833 48.5 92.5 65.5s71.334 25.5 110.001 25.5c14.667 0 27 -1.16699 37 -3.5s18 -4.5 24 -6.5c26 -8.66699 39 -19 39 -31c0 -2.66699 -0.333008 -5.66699 -1 -9
s-2 -7 -4 -11l-26 -50h-10l-27 12c-18.667 8.66699 -35.5 15 -50.5 19s-34.167 6 -57.5 6c-49.333 0 -83.833 -14.667 -103.5 -44s-29.5 -67 -29.5 -113v-69h342v-402l63 -32v-16h-206v16l63 32v355h-262v-357l71 -30v-16h-214z" />
    <glyph glyph-name="uniFB02" unicode="fl" horiz-adv-x="636" 
d="M54 0l-0.000976562 16.001l63 32v355h-78v47h78v39c0 26.667 7.66699 55 23 85s36.5 58.333 63.5 85s57.833 48.5 92.5 65.5s71.334 25.5 110.001 25.5c14.667 0 27 -1.16699 37 -3.5s18 -4.5 24 -6.5c7.33301 -2.66699 13.333 -5 18 -7l28 17h16v-702l63 -32v-16h-206
v16l63 32v609c-16 9.33301 -32.667 15.666 -50 18.999s-37.333 5 -60 5c-49.333 0 -85.333 -15.5 -108 -46.5s-34 -69.5 -34 -115.5v-69h132v-47h-132v-357l71 -30v-16h-214z" />
    <glyph glyph-name="uniFB03" unicode="ffi" horiz-adv-x="997" 
d="M54 0l-0.00390625 16.001l63 32v355h-78v47h78v40c0 13.333 3.33301 30.666 10 51.999s16.334 43.833 29.001 67.5s28 46.167 46 67.5s38.667 38.833 62 52.5s49 20.5 77 20.5c8.66699 0 16.334 -1 23.001 -3s11.667 -3.66699 15 -5c8.66699 -3.33301 13 -8.33301 13 -15
c0 -4 -1.66699 -10 -5 -18l-20 -52h-7l-19 7c-8.66699 2.66699 -17.667 5.16699 -27 7.5s-18.666 3.5 -27.999 3.5c-29.333 0 -51.5 -12.833 -66.5 -38.5s-22.5 -61.167 -22.5 -106.5v-80h262v39c0 26.667 7.66699 55 23 85s36.5 58.333 63.5 85s57.833 48.5 92.5 65.5
s71.334 25.5 110.001 25.5c14.667 0 27 -1.16699 37 -3.5s18 -4.5 24 -6.5c26 -8.66699 39 -19 39 -31c0 -2.66699 -0.333008 -5.66699 -1 -9s-2 -7 -4 -11l-26 -50h-10l-27 12c-18.667 8.66699 -35.5 15 -50.5 19s-34.167 6 -57.5 6c-49.333 0 -83.833 -14.667 -103.5 -44
s-29.5 -67 -29.5 -113v-69h342v-402l63 -32v-16h-206v16l63 32v355h-262v-357l71 -30v-16h-214v16l63 32v355h-262v-357l71 -30v-16h-214z" />
    <glyph glyph-name="uniFB04" unicode="ffl" horiz-adv-x="978" 
d="M54 0l-0.00390625 16.002l63 32v355h-78v47h78v40c0 13.333 3.33301 30.666 10 51.999s16.334 43.833 29.001 67.5s28 46.167 46 67.5s38.667 38.833 62 52.5s49 20.5 77 20.5c8.66699 0 16.334 -1 23.001 -3s11.667 -3.66699 15 -5c8.66699 -3.33301 13 -8.33301 13 -15
c0 -4 -1.66699 -10 -5 -18l-20 -52h-7l-19 7c-8.66699 2.66699 -17.667 5.16699 -27 7.5s-18.666 3.5 -27.999 3.5c-29.333 0 -51.5 -12.833 -66.5 -38.5s-22.5 -61.167 -22.5 -106.5v-80h262v39c0 26.667 7.66699 55 23 85s36.5 58.333 63.5 85s57.833 48.5 92.5 65.5
s71.334 25.5 110.001 25.5c14.667 0 27 -1.16699 37 -3.5s18 -4.5 24 -6.5c7.33301 -2.66699 13.333 -5 18 -7l28 17h16v-702l63 -32v-16h-206v16l63 32v609c-16 9.33301 -32.667 15.666 -50 18.999s-37.333 5 -60 5c-49.333 0 -85.333 -15.5 -108 -46.5
s-34 -69.5 -34 -115.5v-69h132v-47h-132v-357l71 -30v-16h-214v16l63 32v355h-262v-357l71 -30v-16h-214z" />
    <glyph glyph-name="uni00660062" unicode="fb" horiz-adv-x="902" 
d="M54 0v16l63 32v355h-78v47h78v39c0 26.667 7.66699 55 23 85s36.5 58.333 63.5 85s57.833 48.5 92.5 65.5s71.334 25.5 110.001 25.5c14.667 0 27 -1.16699 37 -3.5s18 -4.5 24 -6.5c5.33301 -2 10 -3.66699 14 -5l38 15h6v-352h4c25.333 21.333 49.833 37 73.5 47
s49.167 15 76.5 15c34 0 64 -8.66699 90 -26s46.5 -41.833 61.5 -73.5s22.5 -69.5 22.5 -113.5c0 -54.667 -10.333 -101.167 -31 -139.5s-48.667 -67.5 -84 -87.5s-75 -30 -119 -30c-27.333 0 -52.833 2.5 -76.5 7.5s-45.834 11.167 -66.501 18.5l-25 -26h-6v669
c-15.333 8.66699 -31.5 14.5 -48.5 17.5s-36.167 4.5 -57.5 4.5c-49.333 0 -85.333 -15.5 -108 -46.5s-34 -69.5 -34 -115.5v-69h132v-47h-132v-357l71 -30v-16h-214zM624 391c-16 0 -32.499 -2.49902 -49.499 -7.49902s-33.5 -12.5 -49.5 -22.5v-282
c18.667 -14.667 37.5 -25.167 56.5 -31.5s40.167 -9.5 63.5 -9.5s44.666 6.16699 63.999 18.5s34.833 32.166 46.5 59.499s17.5 63.333 17.5 108c0 58 -14.5 100.333 -43.5 127s-64.167 40 -105.5 40z" />
    <glyph glyph-name="uni006600660062" unicode="ffb" horiz-adv-x="1244" 
d="M54 0l-0.00292969 16.001l63 32v355h-78v47h78v40c0 13.333 3.33301 30.666 10 51.999s16.334 43.833 29.001 67.5s28 46.167 46 67.5s38.667 38.833 62 52.5s49 20.5 77 20.5c8.66699 0 16.334 -1 23.001 -3s11.667 -3.66699 15 -5c8.66699 -3.33301 13 -8.33301 13 -15
c0 -4 -1.66699 -10 -5 -18l-20 -52h-7l-19 7c-8.66699 2.66699 -17.667 5.16699 -27 7.5s-18.666 3.5 -27.999 3.5c-29.333 0 -51.5 -12.833 -66.5 -38.5s-22.5 -61.167 -22.5 -106.5v-80h262v39c0 26.667 7.66699 55 23 85s36.5 58.333 63.5 85s57.833 48.5 92.5 65.5
s71.334 25.5 110.001 25.5c14.667 0 27 -1.16699 37 -3.5s18 -4.5 24 -6.5c5.33301 -2 10 -3.66699 14 -5l38 15h6v-352h4c25.333 21.333 49.833 37 73.5 47s49.167 15 76.5 15c34 0 64 -8.66699 90 -26s46.5 -41.833 61.5 -73.5s22.5 -69.5 22.5 -113.5
c0 -54.667 -10.333 -101.167 -31 -139.5s-48.667 -67.5 -84 -87.5s-75 -30 -119 -30c-27.333 0 -52.833 2.5 -76.5 7.5s-45.834 11.167 -66.501 18.5l-25 -26h-6v669c-15.333 8.66699 -31.5 14.5 -48.5 17.5s-36.167 4.5 -57.5 4.5c-49.333 0 -85.333 -15.5 -108 -46.5
s-34 -69.5 -34 -115.5v-69h132v-47h-132v-357l71 -30v-16h-214v16l63 32v355h-262v-357l71 -30v-16h-214zM965.997 391.001c-16 0 -32.499 -2.49902 -49.499 -7.49902s-33.5 -12.5 -49.5 -22.5v-282c18.667 -14.667 37.5 -25.167 56.5 -31.5s40.167 -9.5 63.5 -9.5
s44.666 6.16699 63.999 18.5s34.833 32.166 46.5 59.499s17.5 63.333 17.5 108c0 58 -14.5 100.333 -43.5 127s-64.167 40 -105.5 40z" />
    <glyph glyph-name="uni00660068" unicode="fh" horiz-adv-x="924" 
d="M54 0l-0.00195312 16.002l63 32v355h-78v47h78v39c0 26.667 7.66699 55 23 85s36.5 58.333 63.5 85s57.833 48.5 92.5 65.5s71.334 25.5 110.001 25.5c14.667 0 27 -1.16699 37 -3.5s18 -4.5 24 -6.5c7.33301 -2.66699 13.333 -5 18 -7l42 17h6v-364h4
c25.333 25.333 49.833 44 73.5 56s49.834 18 78.501 18c39.333 0 71.5 -9.83301 96.5 -29.5s37.5 -48.834 37.5 -87.501v-295l63 -32v-16h-214v16l71 29v251c0 29.333 -9.16699 51.666 -27.5 66.999s-42.166 23 -71.499 23c-18 0 -37.833 -3 -59.5 -9
s-38.834 -14.667 -51.501 -26v-306l71 -29v-16h-214v16l63 32v607c-16.667 10 -34 16.833 -52 20.5s-38.667 5.5 -62 5.5c-49.333 0 -85.333 -15.5 -108 -46.5s-34 -69.5 -34 -115.5v-69h132v-47h-132v-357l71 -30v-16h-214z" />
    <glyph glyph-name="uni006600660068" unicode="ffh" horiz-adv-x="1266" 
d="M54 0l-0.00390625 16.0029l63 32v355h-78v47h78v40c0 13.333 3.33301 30.666 10 51.999s16.334 43.833 29.001 67.5s28 46.167 46 67.5s38.667 38.833 62 52.5s49 20.5 77 20.5c8.66699 0 16.334 -1 23.001 -3s11.667 -3.66699 15 -5
c8.66699 -3.33301 13 -8.33301 13 -15c0 -4 -1.66699 -10 -5 -18l-20 -52h-7l-19 7c-8.66699 2.66699 -17.667 5.16699 -27 7.5s-18.666 3.5 -27.999 3.5c-29.333 0 -51.5 -12.833 -66.5 -38.5s-22.5 -61.167 -22.5 -106.5v-80h262v39c0 26.667 7.66699 55 23 85
s36.5 58.333 63.5 85s57.833 48.5 92.5 65.5s71.334 25.5 110.001 25.5c14.667 0 27 -1.16699 37 -3.5s18 -4.5 24 -6.5c15.333 -5.33301 29 -12 41 -20l40 30h6v-364h4c25.333 25.333 49.833 44 73.5 56s49.834 18 78.501 18c38.667 0 70.667 -9.83301 96 -29.5
s38 -48.834 38 -87.501v-295l63 -32v-16h-214v16l71 29v251c0 29.333 -9.33301 51.666 -28 66.999s-42.334 23 -71.001 23c-18 0 -37.833 -3 -59.5 -9s-38.834 -14.667 -51.501 -26v-306l71 -29v-16h-214v16l63 32v595l-21 12c-18 10 -35.667 16.833 -53 20.5
s-37.666 5.5 -60.999 5.5c-49.333 0 -85.333 -15.5 -108 -46.5s-34 -69.5 -34 -115.5v-69h132v-47h-132v-357l71 -30v-16h-214v16l63 32v355h-262v-357l71 -30v-16h-214z" />
    <glyph glyph-name="uni0066006A" unicode="fj" horiz-adv-x="656" 
d="M54 0v16l63 32v355h-78v47h78v39c0 26.667 7.66699 55 23 85s36.5 58.333 63.5 85s57.833 48.5 92.5 65.5s71.334 25.5 110.001 25.5c14.667 0 27 -1.16699 37 -3.5s18 -4.5 24 -6.5c26 -8.66699 39 -19 39 -31c0 -2.66699 -0.333008 -5.66699 -1 -9s-2 -7 -4 -11
l-26 -50h-10l-27 12c-18.667 8.66699 -35.5 15 -50.5 19s-34.167 6 -57.5 6c-49.333 0 -83.833 -14.667 -103.5 -44s-29.5 -67 -29.5 -113v-69h342v-450c0 -50.667 -10.167 -95 -30.5 -133s-57.833 -70.333 -112.5 -97v16c15.333 14.667 27.666 30.5 36.999 47.5
s16 38 20 63s6 56.167 6 93.5v413h-262v-357l71 -30v-16h-214z" />
    <glyph glyph-name="uni00660066006A" unicode="ffj" horiz-adv-x="998" 
d="M54 0l-0.00292969 16.001l63 32v355h-78v47h78v40c0 13.333 3.33301 30.666 10 51.999s16.334 43.833 29.001 67.5s28 46.167 46 67.5s38.667 38.833 62 52.5s49 20.5 77 20.5c8.66699 0 16.334 -1 23.001 -3s11.667 -3.66699 15 -5c8.66699 -3.33301 13 -8.33301 13 -15
c0 -4 -1.66699 -10 -5 -18l-20 -52h-7l-19 7c-8.66699 2.66699 -17.667 5.16699 -27 7.5s-18.666 3.5 -27.999 3.5c-29.333 0 -51.5 -12.833 -66.5 -38.5s-22.5 -61.167 -22.5 -106.5v-80h262v39c0 26.667 7.66699 55 23 85s36.5 58.333 63.5 85s57.833 48.5 92.5 65.5
s71.334 25.5 110.001 25.5c14.667 0 27 -1.16699 37 -3.5s18 -4.5 24 -6.5c26 -8.66699 39 -19 39 -31c0 -2.66699 -0.333008 -5.66699 -1 -9s-2 -7 -4 -11l-26 -50h-10l-27 12c-18.667 8.66699 -35.5 15 -50.5 19s-34.167 6 -57.5 6c-49.333 0 -83.833 -14.667 -103.5 -44
s-29.5 -67 -29.5 -113v-69h342v-450c0 -50.667 -10.167 -95 -30.5 -133s-57.833 -70.333 -112.5 -97v16c15.333 14.667 27.666 30.5 36.999 47.5s16 38 20 63s6 56.167 6 93.5v413h-262v-357l71 -30v-16h-214v16l63 32v355h-262v-357l71 -30v-16h-214z" />
    <glyph glyph-name="uni0066006B" unicode="fk" horiz-adv-x="900" 
d="M54 0l-0.000976562 16l63 32v355h-78v47h78v39c0 26.667 7.66699 55 23 85s36.5 58.333 63.5 85s57.833 48.5 92.5 65.5s71.334 25.5 110.001 25.5c14.667 0 27 -1.16699 37 -3.5s18 -4.5 24 -6.5c7.33301 -2.66699 13.333 -5 18 -7l42 17h6v-495l161 137v6l-49 36v16
h190v-16l-64 -35l-165 -127l202 -222l64 -34v-16h-132l-38 52l-169 188v-195l71 -29v-16h-214v16l63 32v607c-16.667 10 -34 16.833 -52 20.5s-38.667 5.5 -62 5.5c-49.333 0 -85.333 -15.5 -108 -46.5s-34 -69.5 -34 -115.5v-69h132v-47h-132v-357l71 -30v-16h-214z" />
    <glyph glyph-name="uni00660066006B" unicode="ffk" horiz-adv-x="1242" 
d="M54 0l-0.00390625 16.001l63 32v355h-78v47h78v40c0 13.333 3.33301 30.666 10 51.999s16.334 43.833 29.001 67.5s28 46.167 46 67.5s38.667 38.833 62 52.5s49 20.5 77 20.5c8.66699 0 16.334 -1 23.001 -3s11.667 -3.66699 15 -5c8.66699 -3.33301 13 -8.33301 13 -15
c0 -4 -1.66699 -10 -5 -18l-20 -52h-7l-19 7c-8.66699 2.66699 -17.667 5.16699 -27 7.5s-18.666 3.5 -27.999 3.5c-29.333 0 -51.5 -12.833 -66.5 -38.5s-22.5 -61.167 -22.5 -106.5v-80h262v39c0 26.667 7.66699 55 23 85s36.5 58.333 63.5 85s57.833 48.5 92.5 65.5
s71.334 25.5 110.001 25.5c14.667 0 27 -1.16699 37 -3.5s18 -4.5 24 -6.5c7.33301 -2.66699 13.333 -5 18 -7l42 17h6v-495l161 137v6l-49 36v16h190v-16l-64 -35l-165 -127l202 -222l64 -34v-16h-132l-38 52l-169 188v-195l71 -29v-16h-214v16l63 32v607
c-16.667 10 -34 16.833 -52 20.5s-38.667 5.5 -62 5.5c-49.333 0 -85.333 -15.5 -108 -46.5s-34 -69.5 -34 -115.5v-69h132v-47h-132v-357l71 -30v-16h-214v16l63 32v355h-262v-357l71 -30v-16h-214z" />
    <glyph glyph-name="uni00660074" unicode="ft" horiz-adv-x="696" 
d="M54 0l-0.00195312 16l63 32v355h-78v47h78v40c0 13.333 3.33301 30.666 10 51.999s16.5 43.833 29.5 67.5s28.833 46.167 47.5 67.5s39.834 38.833 63.501 52.5s49.834 20.5 78.501 20.5c6 0 12.333 -1 19 -3s12.334 -4 17.001 -6c20 -7.33301 30 -16.666 30 -27.999
c0 -6 -1.33301 -12 -4 -18l-20 -49h-7l-27 11c-18.667 7.33301 -40.334 11 -65.001 11c-36.667 0 -61.167 -11.5 -73.5 -34.5s-18.5 -57.5 -18.5 -103.5v-80h248l71 110h6v-110h132v-47h-132v-297c0 -17.333 7.66699 -30 23 -38s33.333 -12 54 -12
c12.667 0 24.5 0.666992 35.5 2s20.5 3 28.5 5h3v-10c-6.66699 -15.333 -19.834 -29.666 -39.501 -42.999s-45.167 -20 -76.5 -20c-29.333 0 -54.666 8.66699 -75.999 26s-32 41.666 -32 72.999v314h-245v-357l71 -30v-16h-214z" />
    <glyph glyph-name="uni006600660074" unicode="fft" horiz-adv-x="1038" 
d="M54 0l-0.00488281 16.001l63 32v355h-78v47h78v40c0 13.333 3.33301 30.666 10 51.999s16.334 43.833 29.001 67.5s28 46.167 46 67.5s38.667 38.833 62 52.5s49 20.5 77 20.5c8.66699 0 16.334 -1 23.001 -3s11.667 -3.66699 15 -5c8.66699 -3.33301 13 -8.33301 13 -15
c0 -4 -1.66699 -10 -5 -18l-20 -52h-7l-19 7c-8.66699 2.66699 -17.667 5.16699 -27 7.5s-18.666 3.5 -27.999 3.5c-29.333 0 -51.5 -12.833 -66.5 -38.5s-22.5 -61.167 -22.5 -106.5v-80h262v40c0 13.333 3.33301 30.666 10 51.999s16.5 43.833 29.5 67.5
s28.833 46.167 47.5 67.5s39.834 38.833 63.501 52.5s49.834 20.5 78.501 20.5c6 0 12.333 -1 19 -3s12.334 -4 17.001 -6c20 -7.33301 30 -16.666 30 -27.999c0 -6 -1.33301 -12 -4 -18l-20 -49h-7l-27 11c-18.667 7.33301 -40.334 11 -65.001 11
c-36.667 0 -61.167 -11.5 -73.5 -34.5s-18.5 -57.5 -18.5 -103.5v-80h248l71 110h6v-110h132v-47h-132v-297c0 -17.333 7.66699 -30 23 -38s33.333 -12 54 -12c12.667 0 24.5 0.666992 35.5 2s20.5 3 28.5 5h3v-10c-6.66699 -15.333 -19.834 -29.666 -39.501 -42.999
s-45.167 -20 -76.5 -20c-29.333 0 -54.666 8.66699 -75.999 26s-32 41.666 -32 72.999v314h-245v-357l71 -30v-16h-214v16l63 32v355h-262v-357l71 -30v-16h-214z" />
    <glyph glyph-name=".notdef" 
d="M55 0v750h390v-750h-390zM250 406l150 312h-300zM85 62l150 313l-150 313v-626zM415 62v626l-150 -313zM100 32h300l-150 312z" />
    <glyph glyph-name="uni0000" horiz-adv-x="0" 
 />
    <glyph glyph-name="uni0000" horiz-adv-x="0" 
 />
    <glyph glyph-name="uni0020" unicode=" " horiz-adv-x="250" 
 />
    <glyph glyph-name="uni0021" unicode="!" horiz-adv-x="250" 
d="M115 200l-45 460h110l-45 -460h-20zM125 -5c-16.667 0 -31 6.16699 -43 18.5s-18 26.5 -18 42.5c0 16.667 6 31 18 43s26.333 18 43 18c16 0 30.167 -6 42.5 -18s18.5 -26.333 18.5 -43c0 -16 -6.16699 -30.167 -18.5 -42.5s-26.5 -18.5 -42.5 -18.5z" />
    <glyph glyph-name="uni0022" unicode="&#x22;" horiz-adv-x="450" 
d="M115 490l-35 250h90l-35 -250h-20zM315 490l-35 250h90l-35 -250h-20z" />
    <glyph glyph-name="uni0023" unicode="#" 
d="M40 0l59 203h-98v47h112l44 153h-98v47h112l61 210h50l-61 -210h130l61 210h50l-61 -210h98v-47h-112l-44 -153h98v-47h-112l-59 -203h-50l59 203h-130l-59 -203h-50zM163 250h130l44 153h-130z" />
    <glyph glyph-name="uni0024" unicode="$" 
d="M188 -80l-0.000976562 78c-18 4.66699 -35.333 11.167 -52 19.5s-29.667 16.833 -39 25.5c-16.667 14 -29 29.833 -37 47.5s-12 34.167 -12 49.5c0 13.333 4.5 22 13.5 26s17.5 6 25.5 6h28l5 -4v-27c0 -20 5.83301 -38.833 17.5 -56.5s28.5 -30.5 50.5 -38.5v273
c-47.333 22.667 -81 47 -101 73s-30 57.667 -30 95c0 22.667 5.83301 45 17.5 67s27.5 41.833 47.5 59.5s42 31.5 66 41.5v85h35v-74c12.667 2.66699 25 4 37 4c8.66699 0 17 -0.333008 25 -1v71h35v-76c28.667 -6.66699 51.334 -17.334 68.001 -32.001
c32.667 -28.667 49 -58.667 49 -90c0 -13.333 -4.5 -22 -13.5 -26s-17.5 -6 -25.5 -6h-28l-5 4v27c0 34.667 -15 58.334 -45 71.001v-254c50 -26.667 84.5 -53.167 103.5 -79.5s28.5 -59.166 28.5 -98.499c0 -42.667 -12.5 -79.334 -37.5 -110.001s-56.5 -52.667 -94.5 -66
v-84h-35v74c-14.667 -2.66699 -29.667 -4 -45 -4c-5.33301 0 -11 0.333008 -17 1v-71h-35zM274.999 380c3.33301 -2 6.66602 -3.66699 9.99902 -5v246c-8 0.666992 -16.333 1 -25 1c-13.333 0 -25.666 -1.33301 -36.999 -4v-212c14 -8 31.333 -16.667 52 -26zM139.999 518
c0 -18.667 3.33203 -35.001 9.99902 -49.001s19.334 -27.667 38.001 -41v175c-32 -19.333 -48 -47.666 -48 -84.999zM239.998 36.999c16 0 31 1.66797 45 5.00098v229c-16 9.33301 -36.667 19.666 -62 30.999v-264c5.33301 -0.666992 11 -1 17 -1zM372.998 152
c0 21.333 -3.33301 39.332 -10 53.999s-21 29.334 -43 44.001v-194c35.333 20.667 53 52.667 53 96z" />
    <glyph glyph-name="uni0025" unicode="%" horiz-adv-x="750" 
d="M173 345c-44.667 0 -79.6689 18.666 -105.002 55.999s-38 86.333 -38 147c0 38 6.16699 72.333 18.5 103s29.333 54.834 51 72.501s46.167 26.5 73.5 26.5c44.667 0 79.5 -18.5 104.5 -55.5s37.5 -86.167 37.5 -147.5c0 -37.333 -6.16699 -71.333 -18.5 -102
s-29.166 -55 -50.499 -73s-45.666 -27 -72.999 -27zM178.998 370.999c12.667 0 23.167 7.66504 31.5 22.998s14.5 35.333 18.5 60s6 50.667 6 78c0 35.333 -2.5 67.5 -7.5 96.5s-12.5 52.167 -22.5 69.5s-23 26 -39 26c-12 0 -22.167 -7.66699 -30.5 -23
s-14.666 -35.166 -18.999 -59.499s-6.5 -50.5 -6.5 -78.5c0 -34.667 2.5 -66.667 7.5 -96s12.667 -52.666 23 -69.999s23.166 -26 38.499 -26zM142.998 12.9971l465 737l36 -23l-465 -737zM595.998 -10.0029c-44.667 0 -79.6689 18.666 -105.002 55.999s-38 86.333 -38 147
c0 38 6.16699 72.333 18.5 103s29.333 54.834 51 72.501s46.167 26.5 73.5 26.5c44.667 0 79.5 -18.5 104.5 -55.5s37.5 -86.167 37.5 -147.5c0 -37.333 -6.16699 -71.333 -18.5 -102s-29.166 -55 -50.499 -73s-45.666 -27 -72.999 -27zM601.996 15.9961
c12.667 0 23.167 7.66504 31.5 22.998s14.5 35.333 18.5 60s6 50.667 6 78c0 35.333 -2.5 67.5 -7.5 96.5s-12.5 52.167 -22.5 69.5s-23 26 -39 26c-12 0 -22.167 -7.66699 -30.5 -23s-14.666 -35.166 -18.999 -59.499s-6.5 -50.5 -6.5 -78.5c0 -34.667 2.5 -66.667 7.5 -96
s12.667 -52.666 23 -69.999s23.166 -26 38.499 -26z" />
    <glyph glyph-name="uni0026" unicode="&#x26;" horiz-adv-x="695" 
d="M212 -10c-57.333 0 -103.663 15.832 -138.996 47.499s-53 73.5 -53 125.5c0 31.333 10.833 62.833 32.5 94.5s57.5 64.167 107.5 97.5c-24.667 26 -42.834 47.5 -54.501 64.5s-19.334 32.5 -23.001 46.5s-5.5 30 -5.5 48c0 23.333 7.5 47 22.5 71
s36.167 44.167 63.5 60.5s59 24.5 95 24.5c52 0 92.333 -12 121 -36s43 -54.667 43 -92c0 -30.667 -14.333 -58 -43 -82s-67.667 -51 -117 -81l16 -16l17 -17l160 -160c19.333 29.333 37.166 62.833 53.499 100.5s31.833 79.167 46.5 124.5l-98 39v16h238v-16l-85 -37
c-21.333 -49.333 -42.5 -95.166 -63.5 -137.499s-42.833 -80.833 -65.5 -115.5l109 -108l83 -36v-16h-161l-88 88c-28.667 -31.333 -60.334 -55.5 -95.001 -72.5s-73.667 -25.5 -117 -25.5zM164.003 533.999c0 -22 5.66797 -42.501 17.001 -61.501s30.333 -42.167 57 -69.5
c31.333 22.667 55.666 44 72.999 64s26 43.667 26 71c0 26.667 -8.16699 47.834 -24.5 63.501s-36.833 23.5 -61.5 23.5c-24 0 -44.5 -8 -61.5 -24s-25.5 -38.333 -25.5 -67zM112.004 186.998c0 -28 6.33301 -51.833 19 -71.5s29.667 -34.667 51 -45s44.333 -15.5 69 -15.5
c54 0 102.667 20 146 60l-146 146l-37 37l-31 32c-21.333 -16.667 -37 -32 -47 -46s-16.5 -28.667 -19.5 -44s-4.5 -33 -4.5 -53z" />
    <glyph glyph-name="uni0027" unicode="'" horiz-adv-x="250" 
d="M115 490l-35 250h90l-35 -250h-20z" />
    <glyph glyph-name="uni0028" unicode="(" horiz-adv-x="250" 
d="M224 -150c-52.667 65.333 -93.999 135.17 -123.999 209.503s-45 152.833 -45 235.5s15 161.167 45 235.5s71.333 144.166 124 209.499h21v-3c-40 -64 -70.5 -130.833 -91.5 -200.5s-31.5 -150.167 -31.5 -241.5c0 -60.667 4.66699 -116.334 14 -167.001
s23.166 -98.334 41.499 -143.001s40.833 -88.667 67.5 -132v-3h-21z" />
    <glyph glyph-name="uni0029" unicode=")" horiz-adv-x="250" 
d="M5 -150l0.000976562 2.99609c26.667 43.333 49.167 87.333 67.5 132s32.166 92.334 41.499 143.001s14 106.334 14 167.001c0 91.333 -10.5 171.833 -31.5 241.5s-51.5 136.5 -91.5 200.5v3h21c52.667 -65.333 94 -135.166 124 -209.499s45 -152.833 45 -235.5
s-15 -161.167 -45 -235.5s-71.333 -144.166 -124 -209.499h-21z" />
    <glyph glyph-name="uni002A" unicode="*" horiz-adv-x="350" 
d="M55 468l101 106l-142 26l20 59l130 -61l-19 142h60l-19 -142l130 61l20 -59l-142 -26l101 -106l-52 -36l-68 124l-68 -124z" />
    <glyph glyph-name="uni002B" unicode="+" 
d="M224 62v185h-184v50h184v185h52v-185h184v-50h-184v-185h-52z" />
    <glyph glyph-name="uni002C" unicode="," horiz-adv-x="250" 
d="M61 -205v20.998c28 14.667 48.333 31.334 61 50.001s19 38.334 19 59.001c0 18.667 -4.16699 34.167 -12.5 46.5s-20.833 22.833 -37.5 31.5l-34 18l-3 10l29 50c4.66699 7.33301 8.66699 12.833 12 16.5s7.66602 5.5 12.999 5.5s13.666 -3 24.999 -9
c20.667 -12 36.834 -28.667 48.501 -50s17.5 -44.333 17.5 -69c0 -35.333 -10.667 -68.333 -32 -99s-56.666 -57.667 -105.999 -81z" />
    <glyph glyph-name="uni002D" unicode="-" horiz-adv-x="375" 
d="M50 222v70h275v-70h-275z" />
    <glyph glyph-name="uni002E" unicode="." horiz-adv-x="250" 
d="M125 -5c-16.667 0 -31 6 -43 18s-18 26.333 -18 43s6 31 18 43s26.333 18 43 18s31 -6 43 -18s18 -26.333 18 -43s-6 -31 -18 -43s-26.333 -18 -43 -18z" />
    <glyph glyph-name="uni002F" unicode="/" horiz-adv-x="250" 
d="M0 -120l200 870h50l-200 -870h-50z" />
    <glyph glyph-name="uni0030" unicode="0" 
d="M250 -10c-69.333 0 -122.834 30.333 -160.501 91s-56.5 143.667 -56.5 249c0 65.333 9.16699 123.5 27.5 174.5s43.833 91.333 76.5 121s70.334 44.5 113.001 44.5c69.333 0 122.833 -30.333 160.5 -91s56.5 -143.667 56.5 -249c0 -65.333 -9.33301 -123.5 -28 -174.5
s-44.167 -91.333 -76.5 -121s-69.833 -44.5 -112.5 -44.5zM270.999 37c22 0 40.668 11.332 56.001 33.999s27.166 53.834 35.499 93.501s12.5 84.5 12.5 134.5c0 100.667 -11.833 180 -35.5 238s-59.167 87 -106.5 87c-22.667 0 -42 -11.333 -58 -34
s-28.333 -53.667 -37 -93s-13 -84 -13 -134c0 -100.667 12.167 -180.167 36.5 -238.5s60.833 -87.5 109.5 -87.5z" />
    <glyph glyph-name="uni0031" unicode="1" 
d="M153 0v16l90 40v507l-175 -88v35l240 150h20v-604l80 -40v-16h-255z" />
    <glyph glyph-name="uni0032" unicode="2" 
d="M52 0l0.00195312 24.9961l143 167c37.333 44.667 66.5 81.834 87.5 111.501s36.333 54.834 46 75.501s15.667 39.5 18 56.5s3.5 35.5 3.5 55.5c0 40.667 -10.667 72.834 -32 96.501s-47.333 35.5 -78 35.5c-34.667 0 -61.334 -9.16699 -80.001 -27.5
s-28 -45.833 -28 -82.5v-45l-5 -7h-46c-13.333 0 -23.333 2.33301 -30 7s-10 16.334 -10 35.001c0 17.333 5.16699 35.166 15.5 53.499s26.166 34.833 47.499 49.5c17.333 12 33.833 22.833 49.5 32.5s32.667 17.334 51 23.001s40.5 8.5 66.5 8.5c34 0 64.167 -8 90.5 -24
s47.166 -37.333 62.499 -64s23 -56.334 23 -89.001c0 -22 -2.66699 -42.167 -8 -60.5s-14.166 -37.166 -26.499 -56.499s-29.333 -41.833 -51 -67.5l-82 -93l-118.5 -133.5h235l50 97h16l-10 -179h-400z" />
    <glyph glyph-name="uni0033" unicode="3" 
d="M244 -10c-63.333 0 -115.003 15.334 -155.003 46.001c-37.333 28 -56 56 -56 84c0 14 3 22.833 9 26.5s15 5.5 27 5.5h46l7 -7v-33c0 -21.333 10 -39.5 30 -54.5s51.333 -22.5 94 -22.5c42 0 74.667 12.667 98 38s35 58.333 35 99c0 45.333 -12 81.166 -36 107.499
s-67.333 39.5 -130 39.5h-59v44h27c47.333 0 86.5 12.5 117.5 37.5s46.5 59.833 46.5 104.5c0 42 -9.16699 72.5 -27.5 91.5s-44.166 28.5 -77.499 28.5c-29.333 0 -53 -8.16699 -71 -24.5s-27 -37.833 -27 -64.5v-36l-8 -8h-42c-13.333 0 -23.166 2 -29.499 6
s-9.5 13.667 -9.5 29c0 16.667 5.83301 34 17.5 52s29.834 34.333 54.501 49c22.667 14 44.167 24.5 64.5 31.5s44.5 10.5 72.5 10.5c34.667 0 65.5 -7 92.5 -21s48.333 -33 64 -57s23.5 -50.667 23.5 -80c0 -34 -13 -65.167 -39 -93.5s-61.333 -48.5 -106 -60.5
c60 -9.33301 105 -30.333 135 -63s45 -72.667 45 -120c0 -32.667 -10.667 -63 -32 -91s-49.5 -50.667 -84.5 -68s-73.833 -26 -116.5 -26z" />
    <glyph glyph-name="uni0034" unicode="4" 
d="M193 0v16l90 40v137h-275v20l340 447h20v-400h119v-67h-119v-137l80 -40v-16h-255zM103 260h180v245z" />
    <glyph glyph-name="uni0035" unicode="5" 
d="M194 -10c-66 0 -109.668 15.333 -131.001 46c-5.33301 7.33301 -8 14 -8 20c0 9.33301 6 18.333 18 27l35 27h10l10 -17c9.33301 -15.333 22.833 -28.166 40.5 -38.499s39.834 -15.5 66.501 -15.5c40.667 0 75.167 14 103.5 42s42.5 66 42.5 114
c0 26.667 -5.83301 52.167 -17.5 76.5s-31.834 44.166 -60.501 59.499s-68.667 23 -120 23c-27.333 0 -59.666 -3 -96.999 -9v315h319v-77h-271v-153c21.333 2 41 3 59 3c65.333 0 117 -10 155 -30s65.167 -45.167 81.5 -75.5s24.5 -61.833 24.5 -94.5
c0 -50 -11.167 -93.167 -33.5 -129.5s-53 -64.333 -92 -84s-83.833 -29.5 -134.5 -29.5z" />
    <glyph glyph-name="uni0036" unicode="6" 
d="M255 -10c-43.333 0 -81.5 10.665 -114.5 31.998s-58.5 50.333 -76.5 87s-27 78.334 -27 125.001c0 70 15.5 133.833 46.5 191.5s75.167 107.334 132.5 149.001s125.333 73.5 204 95.5v-29c-81.333 -26 -146.5 -68.333 -195.5 -127s-78.5 -128 -88.5 -208
c18 24.667 40.333 44.5 67 59.5s57.334 22.5 92.001 22.5c35.333 0 66.333 -8.33301 93 -25s47.167 -39.5 61.5 -68.5s21.5 -61.833 21.5 -98.5c0 -34 -8 -66.833 -24 -98.5s-39.833 -57.5 -71.5 -77.5s-71.834 -30 -120.501 -30zM132 242.998
c0 -50 5.83301 -90.167 17.5 -120.5s27 -52.333 46 -66s39.5 -20.5 61.5 -20.5c27.333 0 50 6.66699 68 20s31.5 30.5 40.5 51.5s13.5 43.167 13.5 66.5c0 98 -41 147 -123 147c-26 0 -49.833 -6 -71.5 -18s-39.167 -28.333 -52.5 -49v-11z" />
    <glyph glyph-name="uni0037" unicode="7" 
d="M83 0l39.499 91l39.5 84c14 28.667 30.667 61.167 50 97.5l70.5 129.5l102.5 181h-333v77h410v-20l-75 -148c-26.667 -52.667 -52.667 -107 -78 -163s-48.166 -111.833 -68.499 -167.5s-35.5 -109.5 -45.5 -161.5h-112z" />
    <glyph glyph-name="uni0038" unicode="8" 
d="M252 -10c-37.333 0 -72.002 6.33105 -104.002 18.998s-57.833 30.667 -77.5 54s-29.5 50.666 -29.5 81.999c0 21.333 3.83301 41.833 11.5 61.5s21.334 39.667 41.001 60s47.5 41.5 83.5 63.5c-44 26.667 -74.833 52.334 -92.5 77.001s-26.5 55.334 -26.5 92.001
c0 30.667 9.33301 59 28 85s42.834 46.833 72.501 62.5s60.834 23.5 93.501 23.5c34.667 0 66.5 -7.33301 95.5 -22s52.167 -34.667 69.5 -60s26 -54 26 -86c0 -27.333 -11.667 -52.833 -35 -76.5s-55 -46.167 -95 -67.5c49.333 -28.667 86 -56.667 110 -84
s36 -61.666 36 -102.999c0 -30 -6.33301 -56.333 -19 -79s-29.334 -41.5 -50.001 -56.5s-43.167 -26.333 -67.5 -34s-47.833 -11.5 -70.5 -11.5zM145.998 529.998c0 -18.667 3.33301 -35.6641 10 -50.9971s19.334 -30.833 38.001 -46.5s45.667 -33.5 81 -53.5
c25.333 15.333 45.166 32.166 59.499 50.499s21.5 40.166 21.5 65.499c0 43.333 -10.167 75.666 -30.5 96.999s-47.833 32 -82.5 32c-27.333 0 -50.333 -8.33301 -69 -25s-28 -39.667 -28 -69zM131.998 168.001c0 -42.667 11.334 -75.833 34.001 -99.5
s52.667 -35.5 90 -35.5s66.666 9.66699 87.999 29s32 46.333 32 81c0 26 -6.83301 48 -20.5 66s-33 34.667 -58 50s-54.167 32.333 -87.5 51c-22.667 -16.667 -39.5 -32.167 -50.5 -46.5s-18.333 -29 -22 -44s-5.5 -32.167 -5.5 -51.5z" />
    <glyph glyph-name="uni0039" unicode="9" 
d="M81 -10v29.002c81.333 26 146.5 68.333 195.5 127s78.5 128 88.5 208c-18 -24.667 -40.333 -44.5 -67 -59.5s-57.334 -22.5 -92.001 -22.5c-36 0 -67.167 8.33301 -93.5 25s-46.666 39.5 -60.999 68.5s-21.5 61.833 -21.5 98.5c0 34 8 66.833 24 98.5s40 57.5 72 77.5
s72 30 120 30c44 0 82.333 -10.667 115 -32s58 -50.333 76 -87s27 -78.334 27 -125.001c0 -70 -15.5 -133.833 -46.5 -191.5s-75.167 -107.334 -132.5 -149.001s-125.333 -73.5 -204 -95.5zM122 486.002c0 -98 41.002 -147 123.002 -147c26 0 49.833 6 71.5 18
s39.167 28.333 52.5 49v11c0 50 -5.83301 90.167 -17.5 120.5s-26.834 52.333 -45.501 66s-39.334 20.5 -62.001 20.5c-26.667 0 -49.167 -6.66699 -67.5 -20s-32 -30.5 -41 -51.5s-13.5 -43.167 -13.5 -66.5z" />
    <glyph glyph-name="uni003A" unicode=":" horiz-adv-x="250" 
d="M125 -5c-16.667 0 -31 6 -43 18s-18 26.333 -18 43s6 31 18 43s26.333 18 43 18s31 -6 43 -18s18 -26.333 18 -43s-6 -31 -18 -43s-26.333 -18 -43 -18zM125 338c-16.667 0 -31 6 -43 18s-18 26.333 -18 43s6 31 18 43s26.333 18 43 18s31 -6 43 -18s18 -26.333 18 -43
s-6 -31 -18 -43s-26.333 -18 -43 -18z" />
    <glyph glyph-name="uni003B" unicode=";" horiz-adv-x="250" 
d="M125 338c-16.667 0 -31 6 -43 18s-18 26.333 -18 43s6 31 18 43s26.333 18 43 18s31 -6 43 -18s18 -26.333 18 -43s-6 -31 -18 -43s-26.333 -18 -43 -18zM61 -205v20.998c28 14.667 48.333 31.334 61 50.001s19 38.334 19 59.001c0 18.667 -4.16699 34.167 -12.5 46.5
s-20.833 22.833 -37.5 31.5l-34 18l-3 10l29 50c4.66699 7.33301 8.66699 12.833 12 16.5s7.66602 5.5 12.999 5.5s13.666 -3 24.999 -9c20.667 -12 36.834 -28.667 48.501 -50s17.5 -44.333 17.5 -69c0 -35.333 -10.667 -68.333 -32 -99s-56.666 -57.667 -105.999 -81z" />
    <glyph glyph-name="uni003C" unicode="&#x3c;" 
d="M460 62l-420 185v50l420 185v-55l-351 -155l351 -155v-55z" />
    <glyph glyph-name="uni003D" unicode="=" 
d="M40 349v50h420v-50h-420zM40 145v50h420v-50h-420z" />
    <glyph glyph-name="uni003E" unicode="&#x3e;" 
d="M40 62v55l351 155l-351 155v55l420 -185v-50z" />
    <glyph glyph-name="uni003F" unicode="?" horiz-adv-x="479" 
d="M200 200l-26 145c49.333 17.333 87.833 37.833 115.5 61.5s41.5 51.834 41.5 84.501c0 47.333 -11.167 81.5 -33.5 102.5s-49.5 31.5 -81.5 31.5c-28 0 -49.667 -9 -65 -27s-23 -44.667 -23 -80v-40l-8 -10h-41c-12.667 0 -22.167 2.33301 -28.5 7s-9.5 15.667 -9.5 33
c0 18 4.83301 36.167 14.5 54.5s24.834 34.5 45.501 48.5c23.333 16.667 45 30.667 65 42s46.667 17 80 17c34 0 64.333 -8 91 -24s47.667 -37.333 63 -64s23 -56.334 23 -89.001c0 -42.667 -14.833 -81.5 -44.5 -116.5s-79.834 -68.167 -150.501 -99.5l-8 -77h-20zM210 -5
c-16.667 0 -31 6.16699 -43 18.5s-18 26.5 -18 42.5c0 16.667 6 31 18 43s26.333 18 43 18c16 0 30.167 -6 42.5 -18s18.5 -26.333 18.5 -43c0 -16 -6.16699 -30.167 -18.5 -42.5s-26.5 -18.5 -42.5 -18.5z" />
    <glyph glyph-name="uni0040" unicode="@" horiz-adv-x="813" 
d="M375 -118c-60.667 0 -113.832 11.8301 -159.499 35.4971s-81.334 56.834 -107.001 99.501s-38.5 92.667 -38.5 150c0 53.333 10.167 103.833 30.5 151.5s48.5 89.834 84.5 126.501s77.667 65.334 125 86.001s98.333 31 153 31c57.333 0 107 -12 149 -36
s74.333 -57 97 -99s34 -89.667 34 -143c0 -46.667 -9.16699 -89.834 -27.5 -129.501s-43.833 -71.834 -76.5 -96.501s-70.334 -37 -113.001 -37c-54 0 -76 28.667 -66 86l5 30c-24 -39.333 -48.833 -68.5 -74.5 -87.5s-50.834 -28.5 -75.501 -28.5
c-23.333 0 -42.666 10 -57.999 30s-23 50 -23 90c0 36 5.83301 71 17.5 105s27.834 64.833 48.501 92.5s44.167 49.667 70.5 66s54.166 24.5 83.499 24.5c14.667 0 28.667 -1.83301 42 -5.5s25.333 -8.5 36 -14.5l30 20h25l-53 -296c-5.33301 -30 -6.5 -49.833 -3.5 -59.5
s12.5 -14.5 28.5 -14.5c24 0 46.833 10.333 68.5 31s39.5 47.834 53.5 81.501s21 70.167 21 109.5c0 47.333 -10.833 90.333 -32.5 129s-52 69.334 -91 92.001s-84.833 34 -137.5 34c-47.333 0 -90.166 -9 -128.499 -27s-71.166 -43 -98.499 -75s-48.333 -69.167 -63 -111.5
s-22 -87.833 -22 -136.5c0 -58.667 11.5 -108.5 34.5 -149.5s55.167 -72.5 96.5 -94.5s88.666 -33 141.999 -33c43.333 0 81.5 5.5 114.5 16.5s64.167 26.833 93.5 47.5l9 -21c-35.333 -22 -72.5 -39.167 -111.5 -51.5s-83.167 -18.5 -132.5 -18.5zM304.002 174.997
c0 -36.667 3.83398 -61.833 11.501 -75.5s21.167 -20.5 40.5 -20.5c16.667 0 35.167 8.16699 55.5 24.5s40.5 39.166 60.5 68.499l31 178c-9.33301 12.667 -19.333 23.334 -30 32.001s-25.334 13 -44.001 13c-23.333 0 -44.333 -10 -63 -30s-33.667 -46.667 -45 -80
s-17 -70 -17 -110z" />
    <glyph glyph-name="uni0041" unicode="A" horiz-adv-x="750" 
d="M33 0v16l64 33l256 616h45l252 -613l67 -36v-16h-248v16l88 34l-75 185h-243l-74 -185l84 -34v-16h-216zM262 290h198l-99 246z" />
    <glyph glyph-name="uni0042" unicode="B" horiz-adv-x="658" 
d="M65 0l0.00195312 16l80 40v548l-80 40v16h253c44 0 83.5 -5.5 118.5 -16.5s62.5 -27.333 82.5 -49s30 -49.167 30 -82.5c0 -34 -11.333 -65.167 -34 -93.5s-55.334 -48.5 -98.001 -60.5c59.333 -8 105.666 -26.5 138.999 -55.5s50 -65.833 50 -110.5
c0 -36.667 -11.5 -69.5 -34.5 -98.5s-54.5 -51.833 -94.5 -68.5s-85.333 -25 -136 -25h-276zM295.002 605h-60v-237h66c47.333 0 84.333 10.167 111 30.5s40 48.833 40 85.5c0 80.667 -52.333 121 -157 121zM333.002 313l-98 0.000976562v-258h105c52.667 0 94 12 124 36
s45 55 45 93c0 45.333 -15.167 78.166 -45.5 98.499s-73.833 30.5 -130.5 30.5z" />
    <glyph glyph-name="uni0043" unicode="C" horiz-adv-x="726" 
d="M400 -10c-68 0 -126.667 14.001 -176 42.001s-87.333 66.167 -114 114.5s-40 103.5 -40 165.5c0 47.333 9.16699 92.5 27.5 135.5s43.333 81.167 75 114.5s68.334 59.666 110.001 78.999s85.834 29 132.501 29c33.333 0 61.666 -2.16699 84.999 -6.5
s44.166 -10 62.499 -17s36.833 -15.167 55.5 -24.5l5 -175h-18l-61 122c-25.333 18 -47.5 31 -66.5 39s-40.5 12 -64.5 12c-48 0 -90.833 -12 -128.5 -36s-67.334 -56.833 -89.001 -98.5s-32.5 -89.5 -32.5 -143.5c0 -63.333 10.5 -117.5 31.5 -162.5
s49.333 -79.333 85 -103s75.167 -35.5 118.5 -35.5c36.667 0 67.5 5.16699 92.5 15.5s47.167 21.833 66.5 34.5l60 107h17l-11 -159c-19.333 -10 -39.166 -18.667 -59.499 -26s-43.5 -13 -69.5 -17s-57.333 -6 -94 -6z" />
    <glyph glyph-name="uni0044" unicode="D" horiz-adv-x="775" 
d="M65 0v15.999l80 40v548l-80 40v16h293c73.333 0 136 -13 188 -39s91.5 -61.667 118.5 -107s40.5 -96.666 40.5 -153.999c0 -52 -8.83301 -100 -26.5 -144s-42.5 -82 -74.5 -114s-69.5 -57 -112.5 -75s-89.833 -27 -140.5 -27h-286zM335 604.999l-100 -0.000976562v-550
h115c53.333 0 99.5 11.167 138.5 33.5s69 54 90 95s31.5 89.5 31.5 145.5c0 55.333 -10.667 103.833 -32 145.5s-52.5 73.834 -93.5 96.501s-90.833 34 -149.5 34z" />
    <glyph glyph-name="uni0045" unicode="E" horiz-adv-x="652" 
d="M65 0v16l80 40v548l-80 40v16h489v-172h-16l-62 117h-241v-237h170l50 83h16v-219h-16l-50 81h-170v-258h269l62 127h16v-182h-517z" />
    <glyph glyph-name="uni0046" unicode="F" horiz-adv-x="614" 
d="M65 0v16l80 40v548l-80 40v16h479v-172h-16l-62 117h-231v-237h160l50 83h16v-219h-16l-50 81h-160v-257l90 -40v-16h-260z" />
    <glyph glyph-name="uni0047" unicode="G" horiz-adv-x="768" 
d="M403 -10c-64 0 -121.166 14.002 -171.499 42.002s-89.833 66.167 -118.5 114.5s-43 103.5 -43 165.5c0 51.333 9.16699 98.666 27.5 141.999s44 81.166 77 113.499s70.833 57.5 113.5 75.5s88.667 27 138 27c34.667 0 64.334 -2 89.001 -6s46.667 -9.66699 66 -17
s38.666 -15.666 57.999 -24.999l5 -165h-16l-65 112c-28 19.333 -51.833 32.666 -71.5 39.999s-42.167 11 -67.5 11c-51.333 0 -97 -11.167 -137 -33.5s-71.333 -53 -94 -92s-34 -83.167 -34 -132.5c0 -66.667 12.167 -123.334 36.5 -170.001
s57.166 -82.334 98.499 -107.001s87.333 -37 138 -37c22 0 43.167 1.33301 63.5 4s41.5 8.33398 63.5 17.001v165l-89 40v16h248v-16l-69 -43v-157c-30.667 -25.333 -68.5 -45.666 -113.5 -60.999s-89.167 -23 -132.5 -23z" />
    <glyph glyph-name="uni0048" unicode="H" horiz-adv-x="810" 
d="M65 0v16l80 40v548l-80 40v16h250v-16l-80 -40v-236h340v236l-80 40v16h250v-16l-80 -40v-548l80 -40v-16h-250v16l80 40v257h-340v-257l80 -40v-16h-250z" />
    <glyph glyph-name="uni0049" unicode="I" horiz-adv-x="390" 
d="M70 0v16l80 40v548l-80 40v16h250v-16l-80 -40v-548l80 -40v-16h-250z" />
    <glyph glyph-name="uni004A" unicode="J" horiz-adv-x="390" 
d="M46 -173c-8.66699 0 -16.333 2.00098 -23 6.00098s-10 11.333 -10 22c0 1.33301 0.5 4.66602 1.5 9.99902l8.5 44h6c11.333 -3.33301 20.333 -5.66602 27 -6.99902s14.667 -2 24 -2c14.667 0 27.167 3.33301 37.5 10s18.333 20.667 24 42s8.5 54.333 8.5 99v553l-80 40
v16h250v-16l-80 -40v-364c0 -74.667 -6 -141.834 -18 -201.501s-32.333 -105.5 -61 -137.5c-19.333 -21.333 -35 -37.333 -47 -48s-23 -17.667 -33 -21s-21.667 -5 -35 -5z" />
    <glyph glyph-name="uni004B" unicode="K" horiz-adv-x="719" 
d="M65 0v16l80 40v548l-80 40v16h250v-16l-80 -40v-548l80 -40v-16h-250zM236 338l277 272l-71 34v16h210v-16l-62 -24l-263 -258l316 -320l61 -26v-16h-144z" />
    <glyph glyph-name="uni004C" unicode="L" horiz-adv-x="632" 
d="M65 0v16l80 40v548l-80 40v16h260v-16l-90 -40v-549h243l68 167h16v-222h-497z" />
    <glyph glyph-name="uni004D" unicode="M" horiz-adv-x="959" 
d="M60 0v16l79 40l21 547l-86 41v16h185l231 -532l230 532h176v-16l-84 -40l17 -548l70 -40v-16h-230v16l74 39l-10 493l-239 -553h-45l-235 546l-13 -486l81 -39v-16h-222z" />
    <glyph glyph-name="uni004E" unicode="N" horiz-adv-x="799" 
d="M60 0v16l80 40v546l-79 42v16h147l382 -480v426l-100 38v16h249v-16l-79 -39v-610h-37l-413 521v-461l100 -39v-16h-250z" />
    <glyph glyph-name="uni004F" unicode="O" horiz-adv-x="807" 
d="M403 -10c-48 0 -92.167 8.5 -132.5 25.5s-75.5 40.667 -105.5 71s-53.333 66.166 -70 107.499s-25 86.666 -25 135.999s8.33301 94.666 25 135.999s40 77.166 70 107.499s65.167 54 105.5 71s84.5 25.5 132.5 25.5s92.333 -8.5 133 -25.5s76 -40.667 106 -71
s53.333 -66.166 70 -107.499s25 -86.666 25 -135.999s-8.33301 -94.666 -25 -135.999s-40 -77.166 -70 -107.499s-65.333 -54 -106 -71s-85 -25.5 -133 -25.5zM424 40c42.667 0 80.167 10.6689 112.5 32.002s57.666 51.333 75.999 90s27.5 84.334 27.5 137.001
c0 64.667 -11.333 121.167 -34 169.5s-53.167 85.833 -91.5 112.5s-81.166 40 -128.499 40c-42.667 0 -80.5 -10.5 -113.5 -31.5s-58.833 -50.833 -77.5 -89.5s-28 -84.334 -28 -137.001c0 -64.667 11.5 -121.334 34.5 -170.001s53.833 -86.334 92.5 -113.001
s82 -40 130 -40z" />
    <glyph glyph-name="uni0050" unicode="P" horiz-adv-x="638" 
d="M65 0l-0.000976562 16l80 40v548l-80 40v16h260c78.667 0 141.834 -14.333 189.501 -43s71.5 -74 71.5 -136c0 -36.667 -12.5 -69.167 -37.5 -97.5s-59 -50.833 -102 -67.5s-91.5 -25 -145.5 -25h-66v-235l90 -40v-16h-260zM234.999 605v-259.001h85
c52.667 0 94 11.833 124 35.5s45 54.167 45 91.5c0 46.667 -15.167 80.334 -45.5 101.001s-73.833 31 -130.5 31h-78z" />
    <glyph glyph-name="uni0051" unicode="Q" horiz-adv-x="807" 
d="M682 -149c-26 0 -53.002 3.33105 -81.002 9.99805s-60 20 -96 40s-78.667 50 -128 90c-59.333 4 -112 21.167 -158 51.5s-82.333 70.166 -109 119.499s-40 105.333 -40 168c0 49.333 8.33301 94.666 25 135.999s40 77.166 70 107.499s65.167 54 105.5 71
s84.5 25.5 132.5 25.5s92.333 -8.5 133 -25.5s76 -40.667 106 -71s53.333 -66.166 70 -107.499s25 -86.666 25 -135.999c0 -54 -10 -103.167 -30 -147.5s-47.833 -82 -83.5 -113s-77.167 -53.167 -124.5 -66.5c38 -29.333 71 -52.666 99 -69.999s53.667 -29.666 77 -36.999
s46 -11 68 -11c14 0 26.333 0.833008 37 2.5s19.667 3.83398 27 6.50098v-16c-15.333 -8 -33.666 -14.5 -54.999 -19.5s-44.666 -7.5 -69.999 -7.5zM423.998 39.998c42.667 0 80.167 10.6689 112.5 32.002s57.666 51.333 75.999 90s27.5 84.334 27.5 137.001
c0 64.667 -11.333 121.167 -34 169.5s-53.167 85.833 -91.5 112.5s-81.166 40 -128.499 40c-42.667 0 -80.5 -10.5 -113.5 -31.5s-58.833 -50.833 -77.5 -89.5s-28 -84.334 -28 -137.001c0 -64.667 11.5 -121.334 34.5 -170.001s53.833 -86.334 92.5 -113.001
s82 -40 130 -40z" />
    <glyph glyph-name="uni0052" unicode="R" horiz-adv-x="661" 
d="M65 0v16l80 40v548l-80 40v16h258c70 0 125.167 -14.5 165.5 -43.5s60.5 -68.833 60.5 -119.5c0 -37.333 -12.667 -70.833 -38 -100.5s-59 -52.167 -101 -67.5l190 -277l66 -36v-16h-144l-194 303h-93v-246l75 -41v-16h-245zM300 605l-65 -0.000976562v-247h71
c42 0 76.833 11.833 104.5 35.5s41.5 53.834 41.5 90.501c0 37.333 -13.667 66.833 -41 88.5s-64.333 32.5 -111 32.5z" />
    <glyph glyph-name="uni0053" unicode="S" horiz-adv-x="531" 
d="M264 -10c-41.333 0 -76.332 3.83105 -104.999 11.498s-58.334 19.167 -89.001 34.5l-10 164h16l49 -106c24 -20 47.333 -34.5 70 -43.5s45.667 -13.5 69 -13.5c39.333 0 70.166 10.333 92.499 31s33.5 48.667 33.5 84c0 29.333 -6.5 52.333 -19.5 69
s-31.667 31.5 -56 44.5l-86.5 44.5c-31.333 16 -58 31.667 -80 47s-38.667 33.166 -50 53.499s-17 45.833 -17 76.5c0 22.667 5.5 44.834 16.5 66.501s26 41.334 45 59.001s40.333 31.667 64 42s48.167 15.5 73.5 15.5c30.667 0 59 -3.66699 85 -11
s52.667 -17.666 80 -30.999l10 -160h-16l-46 105c-23.333 17.333 -43.666 29.833 -60.999 37.5s-37.333 11.5 -60 11.5c-29.333 0 -53.5 -10 -72.5 -30s-28.5 -44.667 -28.5 -74c0 -34 10.333 -60.5 31 -79.5s53 -39.167 97 -60.5c40.667 -20 74 -38.5 100 -55.5
s45.333 -36.5 58 -58.5s19 -50 19 -84c0 -31.333 -6.66699 -58.833 -20 -82.5s-30.5 -43.5 -51.5 -59.5s-44 -28 -69 -36s-48.833 -12 -71.5 -12z" />
    <glyph glyph-name="uni0054" unicode="T" horiz-adv-x="674" 
d="M192 0v16l100 40v549h-163l-68 -147h-16v202h584v-202h-16l-68 147h-163v-549l100 -40v-16h-290z" />
    <glyph glyph-name="uni0055" unicode="U" horiz-adv-x="809" 
d="M405 -10c-50 0 -94.501 9.33398 -133.501 28.001s-69.833 47.5 -92.5 86.5s-34 89.5 -34 151.5v348l-80 40v16h250v-16l-80 -40v-333c0 -55.333 8.66699 -99.333 26 -132s40.833 -56 70.5 -70s62.834 -21 99.501 -21c29.333 0 56.5 6.33301 81.5 19s45 32.667 60 60
s22.5 63.666 22.5 108.999v370l-100 38v16h249v-16l-79 -39v-349c0 -62 -11.333 -112.5 -34 -151.5s-53.5 -67.833 -92.5 -86.5s-83.5 -28 -133.5 -28z" />
    <glyph glyph-name="uni0056" unicode="V" horiz-adv-x="740" 
d="M356 -5l-252 614l-69 35v16h250v-16l-86 -37v-5l187 -458h5l186 462v4l-82 34v16h210v-16l-57 -30l-257 -619h-35z" />
    <glyph glyph-name="uni0057" unicode="W" horiz-adv-x="981" 
d="M274 -5l-184 613l-75 36v16h254v-16l-85 -37l125 -433h5l173 491h37l177 -491h6l123 432l-85 38v16h221v-16l-67 -37l-186 -612h-35l-182 490h-5l-182 -490h-35z" />
    <glyph glyph-name="uni0058" unicode="X" horiz-adv-x="740" 
d="M35 0v16l73 37l212 276l-207 280l-63 35v16h250v-16l-80 -37v-5l160 -211l166 212v4l-76 37v16h210v-16l-63 -37l-203 -261l221 -291l70 -39v-16h-255v16l73 36v4l-170 229l-174 -229v-4l81 -36v-16h-225z" />
    <glyph glyph-name="uni0059" unicode="Y" horiz-adv-x="718" 
d="M228 0v16l90 40v252l-222 303l-61 33v16h242v-16l-73 -35v-4l179 -243l161 242v4l-73 36v16h212v-16l-64 -33l-211 -302v-253l90 -40v-16h-270z" />
    <glyph glyph-name="uni005A" unicode="Z" horiz-adv-x="646" 
d="M90 0v25l341 580h-251l-62 -127h-16v182h443v-25l-342 -580h275l62 137h16v-192h-466z" />
    <glyph glyph-name="uni005B" unicode="[" horiz-adv-x="250" 
d="M65 -150v890h180v-23h-116v-844h116v-23h-180z" />
    <glyph glyph-name="uni005C" unicode="\" horiz-adv-x="250" 
d="M200 -120l-200 870h50l200 -870h-50z" />
    <glyph glyph-name="uni005D" unicode="]" horiz-adv-x="250" 
d="M5 -150v23h116v844h-116v23h180v-890h-180z" />
    <glyph glyph-name="uni005E" unicode="^" 
d="M40 250l185 420h50l185 -420h-55l-155 351l-155 -351h-55z" />
    <glyph glyph-name="uni005F" unicode="_" 
d="M25 -140v50h450v-50h-450z" />
    <glyph glyph-name="uni0060" unicode="`" 
d="M323 530l-125.001 114c-13.333 12 -22.166 23 -26.499 33s-6.5 20 -6.5 30h82l87 -177h-11z" />
    <glyph glyph-name="uni0061" unicode="a" horiz-adv-x="489" 
d="M156 -10c-31.333 0 -57.3311 9.16895 -77.998 27.502s-31 43.833 -31 76.5s12.167 61 36.5 85s65.166 42.667 122.499 56l95 22v73c0 22.667 -9.16699 42.167 -27.5 58.5s-39.166 24.5 -62.499 24.5c-25.333 0 -43 -6.83301 -53 -20.5s-15 -31.834 -15 -54.501v-28l-5 -5
h-52c-10 0 -16.833 1.66699 -20.5 5s-5.5 11 -5.5 23c0 14.667 4.33301 29.667 13 45s22 28.666 40 39.999c18.667 12 38.167 22 58.5 30s42.166 12 65.499 12s46.166 -3.33301 68.499 -10s40.5 -17.834 54.5 -33.501s21 -37.5 21 -65.5v-284
c4.66699 -4.66699 11.334 -8.66699 20.001 -12s20.667 -5 36 -5h38l3 -2v-3c-8 -14.667 -19.833 -27.5 -35.5 -38.5s-34.834 -16.5 -57.501 -16.5c-20.667 0 -37.5 5.5 -50.5 16.5s-22.167 25.5 -27.5 43.5h-6c-17.333 -17.333 -38.833 -31.666 -64.5 -42.999
s-52.5 -17 -80.5 -17zM125.002 114.002c0 -41.333 25 -62 75 -62c16 0 31.833 1.66699 47.5 5s33.5 9.33301 53.5 18v148c-53.333 -10 -92.333 -20.5 -117 -31.5s-40.667 -22.833 -48 -35.5s-11 -26.667 -11 -42z" />
    <glyph glyph-name="uni0062" unicode="b" horiz-adv-x="560" 
d="M103 -10l0.000976562 646l-60 52v7l134 55h6v-352h4c25.333 21.333 49.833 37 73.5 47s49.167 15 76.5 15c34 0 64 -8.66699 90 -26s46.5 -41.833 61.5 -73.5s22.5 -69.5 22.5 -113.5c0 -54.667 -10.333 -101.167 -31 -139.5s-48.667 -67.5 -84 -87.5s-75 -30 -119 -30
c-27.333 0 -52.833 2.5 -76.5 7.5s-45.834 11.167 -66.501 18.5l-25 -26h-6zM282.001 391c-16 0 -32.499 -2.49902 -49.499 -7.49902s-33.5 -12.5 -49.5 -22.5v-282c18.667 -14.667 37.5 -25.167 56.5 -31.5s40.167 -9.5 63.5 -9.5s44.666 6.16699 63.999 18.5
s34.833 32.166 46.5 59.499s17.5 63.333 17.5 108c0 58 -14.5 100.333 -43.5 127s-64.167 40 -105.5 40z" />
    <glyph glyph-name="uni0063" unicode="c" horiz-adv-x="479" 
d="M259 -10c-64.667 0 -115.667 19.6689 -153 59.002s-56 91.333 -56 156c0 50 10.167 94.167 30.5 132.5s47.833 68.333 82.5 90s73.667 32.5 117 32.5c26.667 0 52.667 -4.5 78 -13.5s44.666 -20.833 57.999 -35.5c10.667 -12.667 16 -22.667 16 -30
c0 -9.33301 -4.33301 -17.333 -13 -24l-38 -32h-7l-34 46c-10 13.333 -22.5 24.166 -37.5 32.499s-33.5 12.5 -55.5 12.5c-36.667 0 -65.5 -14.5 -86.5 -43.5s-31.5 -69.5 -31.5 -121.5c0 -32 5.33301 -62.167 16 -90.5s28.5 -51.333 53.5 -69s59.5 -26.5 103.5 -26.5
c36.667 0 79.667 13.333 129 40h3v-10c-15.333 -28.667 -38.166 -53.334 -68.499 -74.001s-65.833 -31 -106.5 -31z" />
    <glyph glyph-name="uni0064" unicode="d" horiz-adv-x="559" 
d="M218 -10c-33.333 0 -63.166 8.33203 -89.499 24.999s-47 40.167 -62 70.5s-22.5 66.5 -22.5 108.5c0 56.667 11 104.834 33 144.501s51.333 69.834 88 90.501s76.667 31 120 31c18.667 0 35 -0.833008 49 -2.5s26.667 -3.83398 38 -6.50098v185l-65 52v7l139 55h6v-705
l71 -29v-16h-141l-8 51h-7c-25.333 -21.333 -49.833 -36.833 -73.5 -46.5s-48.834 -14.5 -75.501 -14.5zM124 216.999c0 -55.333 14.667 -95.5 44 -120.5s64.333 -37.5 105 -37.5c16 0 32.5 2.5 49.5 7.5s33.5 12.5 49.5 22.5v280c-16 14 -31.833 24.5 -47.5 31.5
s-33.167 10.5 -52.5 10.5c-26.667 0 -51.167 -6.5 -73.5 -19.5s-40.333 -33.667 -54 -62s-20.5 -65.833 -20.5 -112.5z" />
    <glyph glyph-name="uni0065" unicode="e" horiz-adv-x="484" 
d="M259 -10c-64.667 0 -115.668 19.6689 -153.001 59.002s-56 91.333 -56 156c0 50 9.83301 94.167 29.5 132.5s45.667 68.333 78 90s67.5 32.5 105.5 32.5c52.667 0 94.167 -18.333 124.5 -55s45.5 -89.334 45.5 -158.001l-5 -5h-299
c0.666992 -30.667 6.66699 -59.5 18 -86.5s29.5 -48.833 54.5 -65.5s58.5 -25 100.5 -25c36.667 0 79.667 13.333 129 40h3v-10c-15.333 -28.667 -38.166 -53.334 -68.499 -74.001s-65.833 -31 -106.5 -31zM246.999 416.002c-32 0 -58.1689 -11.167 -78.502 -33.5
s-32.833 -53.833 -37.5 -94.5h226c-7.33301 45.333 -20.166 78 -38.499 98s-42.166 30 -71.499 30z" />
    <glyph glyph-name="uni0066" unicode="f" horiz-adv-x="342" 
d="M54 0l-0.00195312 16.001l63 32v355h-78v47h78v40c0 13.333 3.33301 30.666 10 51.999s16.5 43.833 29.5 67.5s28.833 46.167 47.5 67.5s39.834 38.833 63.501 52.5s49.834 20.5 78.501 20.5c6 0 12.333 -1 19 -3s12.334 -4 17.001 -6c10 -4.66699 17.5 -9 22.5 -13
s7.5 -9 7.5 -15s-1.33301 -12 -4 -18l-20 -49h-7l-27 11c-18.667 7.33301 -40.334 11 -65.001 11c-36.667 0 -61.167 -11.5 -73.5 -34.5s-18.5 -57.5 -18.5 -103.5v-80h132v-47h-132v-357l71 -30v-16h-214z" />
    <glyph glyph-name="uni0067" unicode="g" horiz-adv-x="546" 
d="M258 142c-29.333 0 -56.334 5.33398 -81.001 16.001c-13.333 -5.33301 -22.833 -12.333 -28.5 -21s-8.5 -18 -8.5 -28c0 -33.333 23.667 -50 71 -50h120c48.667 0 84.5 -10.667 107.5 -32s34.5 -53 34.5 -95c0 -28.667 -9.5 -56.167 -28.5 -82.5s-46 -47.833 -81 -64.5
s-76.5 -25 -124.5 -25c-63.333 0 -108.833 11.5 -136.5 34.5s-41.5 51.167 -41.5 84.5c0 24.667 6 46 18 64l69 46v4c-25.333 5.33301 -44.666 15.166 -57.999 29.499s-20 31.833 -20 52.5c0 25.333 8.66699 46.666 26 63.999l54 28v6c-21.333 14 -38.333 32 -51 54
s-19 46.667 -19 74c0 30 7.66699 57 23 81s36.5 43 63.5 57s57.5 21 91.5 21c14 0 29.167 -1.66699 45.5 -5s30.5 -7.66602 42.5 -12.999l150 8v-54l-93 6l-4 -4c10.667 -12 19.5 -26.667 26.5 -44s10.5 -35 10.5 -53c0 -30 -7.66699 -57 -23 -81s-36.5 -43 -63.5 -57
s-57.5 -21 -91.5 -21zM267.999 183.001c26.667 0 47.667 11.5 63 34.5s23 49.833 23 80.5c0 36.667 -10 66.167 -30 88.5s-44.333 33.5 -73 33.5s-50.667 -11.5 -66 -34.5s-23 -50.167 -23 -81.5c0 -34.667 10 -63.5 30 -86.5s45.333 -34.5 76 -34.5zM131.999 -109.999
c0 -29.333 11.502 -53.667 34.502 -73s51.167 -29 84.5 -29c30 0 56.167 5.83301 78.5 17.5s39.666 27 51.999 46s18.5 39.167 18.5 60.5c0 29.333 -7.83301 49.666 -23.5 60.999s-43.834 17 -84.501 17h-107h-5c-18 -10.667 -30.5 -24.167 -37.5 -40.5
s-10.5 -36.166 -10.5 -59.499z" />
    <glyph glyph-name="uni0068" unicode="h" horiz-adv-x="582" 
d="M48 0l-0.000976562 16.002l63 32v588l-60 52v7l134 55h6v-364h4c25.333 25.333 49.833 44 73.5 56s49.834 18 78.501 18c39.333 0 71.5 -9.83301 96.5 -29.5s37.5 -48.834 37.5 -87.501v-295l63 -32v-16h-214v16l71 29v251c0 29.333 -9.16699 51.666 -27.5 66.999
s-42.166 23 -71.499 23c-18 0 -37.833 -3 -59.5 -9s-38.834 -14.667 -51.501 -26v-306l71 -29v-16h-214z" />
    <glyph glyph-name="uni0069" unicode="i" horiz-adv-x="313" 
d="M154 581c-17.333 0 -31.666 5.83301 -42.999 17.5s-17 25.834 -17 42.501c0 17.333 5.66699 31.666 17 42.999s25.666 17 42.999 17s31.666 -5.66699 42.999 -17s17 -25.666 17 -42.999c0 -16.667 -5.66699 -30.834 -17 -42.501s-25.666 -17.5 -42.999 -17.5zM54 0v16
l63 32v298l-60 52v7l134 55h6v-412l63 -32v-16h-206z" />
    <glyph glyph-name="uni006A" unicode="j" horiz-adv-x="314" 
d="M154 581c-17.333 0 -31.666 5.83301 -42.999 17.5s-17 25.834 -17 42.501c0 17.333 5.66699 31.666 17 42.999s25.666 17 42.999 17s31.666 -5.66699 42.999 -17s17 -25.666 17 -42.999c0 -16.667 -5.66699 -30.834 -17 -42.501s-25.666 -17.5 -42.999 -17.5zM54 -230
l0.000976562 16c15.333 14.667 27.666 30.5 36.999 47.5s16 38 20 63s6 56.167 6 93.5v356l-60 52v7l134 55h6v-460c0 -50.667 -10.167 -95 -30.5 -133s-57.833 -70.333 -112.5 -97z" />
    <glyph glyph-name="uni006B" unicode="k" horiz-adv-x="558" 
d="M48 0v16l63 32v588l-60 52v7l134 55h6v-495l161 137v6l-49 36v16h190v-16l-64 -35l-165 -127l202 -222l64 -34v-16h-132l-38 52l-169 188v-195l71 -29v-16h-214z" />
    <glyph glyph-name="uni006C" unicode="l" horiz-adv-x="294" 
d="M44 0v16l63 32v588l-60 52v7l134 55h6v-702l63 -32v-16h-206z" />
    <glyph glyph-name="uni006D" unicode="m" horiz-adv-x="860" 
d="M48 0l0.00292969 16.0029l63 32v298l-60 52v7l124 55h6l9 -74h5c24.667 25.333 48.5 44 71.5 56s48.167 18 75.5 18c32 0 59.333 -7.16699 82 -21.5s37.334 -35.833 44.001 -64.5h3c28 29.333 54.167 51 78.5 65s51.166 21 80.499 21
c37.333 0 68.166 -9.83301 92.499 -29.5s36.5 -48.834 36.5 -87.501v-295l63 -32v-16h-214v16l71 32v248c0 29.333 -8.83301 51.666 -26.5 66.999s-40.167 23 -67.5 23c-22.667 0 -44 -3.66699 -64 -11s-36.667 -18.333 -50 -33v-294l69 -32v-16h-216v16l67 32v248
c0 29.333 -8.83301 51.666 -26.5 66.999s-40.167 23 -67.5 23c-16.667 0 -35.334 -3 -56.001 -9s-37.334 -14.667 -50.001 -26v-303l65 -32v-16h-208z" />
    <glyph glyph-name="uni006E" unicode="n" horiz-adv-x="582" 
d="M48 0l-0.000976562 16.002l63 32v298l-60 52v7l124 55h6l9 -74h5c25.333 25.333 49.833 44 73.5 56s49.834 18 78.501 18c39.333 0 71.5 -9.83301 96.5 -29.5s37.5 -48.834 37.5 -87.501v-295l63 -32v-16h-214v16l71 32v248c0 29.333 -9.16699 51.666 -27.5 66.999
s-42.166 23 -71.499 23c-18 0 -37.833 -3 -59.5 -9s-38.834 -14.667 -51.501 -26v-303l71 -32v-16h-214z" />
    <glyph glyph-name="uni006F" unicode="o" horiz-adv-x="540" 
d="M270 -10c-44 0 -82.5 10.333 -115.5 31s-58.667 48.667 -77 84s-27.5 75.333 -27.5 120s9.16699 84.667 27.5 120s44 63.333 77 84s71.5 31 115.5 31s82.5 -10.333 115.5 -31s58.667 -48.667 77 -84s27.5 -75.333 27.5 -120s-9.16699 -84.667 -27.5 -120
s-44 -63.333 -77 -84s-71.5 -31 -115.5 -31zM284 33c26.667 0 48.666 8.33301 65.999 25s30 38.167 38 64.5s12 53.833 12 82.5c0 35.333 -4.83301 69.333 -14.5 102s-25 59.334 -46 80.001s-48.167 31 -81.5 31c-27.333 0 -49.666 -8.33301 -66.999 -25
s-30.166 -38 -38.499 -64s-12.5 -53.667 -12.5 -83c0 -35.333 5 -69.333 15 -102s25.667 -59.334 47 -80.001s48.666 -31 81.999 -31z" />
    <glyph glyph-name="uni0070" unicode="p" horiz-adv-x="567" 
d="M48 -230l0.00195312 16l63 32v528l-60 52v7l124 55h6l8 -61h7c25.333 21.333 49.666 36.833 72.999 46.5s48.666 14.5 75.999 14.5c34 0 64 -8.66699 90 -26s46.5 -41.833 61.5 -73.5s22.5 -69.5 22.5 -113.5c0 -54.667 -10.167 -101.167 -30.5 -139.5
s-47.833 -67.5 -82.5 -87.5s-72.667 -30 -114 -30c-37.333 0 -71 3.33301 -101 10v-182l71 -32v-16h-214zM290.002 391c-16 0 -32.5 -2.5 -49.5 -7.5s-33.5 -12.5 -49.5 -22.5v-281c20 -16 40.333 -27 61 -33s43.667 -9 69 -9c32 0 59.667 13.5 83 40.5s35 72.167 35 135.5
c0 41.333 -6.66699 75 -20 101s-31.333 45.167 -54 57.5s-47.667 18.5 -75 18.5z" />
    <glyph glyph-name="uni0071" unicode="q" horiz-adv-x="558" 
d="M305 -230l-0.000976562 15.999l71 28v236h-6c-46 -40 -95.333 -60 -148 -60c-33.333 0 -63.166 8.33301 -89.499 25s-47 40.167 -62 70.5s-22.5 66.5 -22.5 108.5c0 56.667 11 104.834 33 144.501s51.333 69.834 88 90.501s76.667 31 120 31
c22.667 0 43 -1.83301 61 -5.5s36.667 -8.83398 56 -15.501l44 21h6v-643l63 -31v-16h-214zM127.999 216.999c0 -55.333 14.667 -95.5 44 -120.5s64.333 -37.5 105 -37.5c14.667 0 30.834 2.5 48.501 7.5s34.5 12.5 50.5 22.5v232c0 16.667 -0.166992 28.667 -0.5 36
s-1.33301 12.333 -3 15s-4.5 5.66699 -8.5 9c-14 12 -29.333 20 -46 24s-34 6 -52 6c-25.333 0 -48.333 -6.5 -69 -19.5s-37.334 -33.667 -50.001 -62s-19 -65.833 -19 -112.5z" />
    <glyph glyph-name="uni0072" unicode="r" horiz-adv-x="397" 
d="M52 0l0.00195312 16l63 32v298l-60 52v7l124 55h6l9 -85h4c15.333 24.667 29.5 43.167 42.5 55.5s25.167 20.333 36.5 24s22.666 5.5 33.999 5.5c5.33301 0 11.5 -1 18.5 -3s12.833 -4 17.5 -6c7.33301 -3.33301 14.166 -7.33301 20.499 -12s9.5 -10 9.5 -16
s-1.33301 -12 -4 -18l-20 -49h-7l-38 15c-7.33301 3.33301 -14.5 5.33301 -21.5 6s-13.833 1 -20.5 1c-28 0 -51.667 -14.333 -71 -43v-287l71 -32v-16h-214z" />
    <glyph glyph-name="uni0073" unicode="s" horiz-adv-x="432" 
d="M213 -10c-31.333 0 -58.335 2.66895 -81.002 8.00195s-45.667 14 -69 26v112h14l32 -55c20.667 -36.667 54.334 -55 101.001 -55c26.667 0 47.5 6.33301 62.5 19s22.5 30 22.5 52c0 19.333 -4.66699 34.333 -14 45s-22.5 20.167 -39.5 28.5l-60.5 28.5
c-34 15.333 -60.167 32.166 -78.5 50.499s-27.5 44.166 -27.5 77.499c0 24.667 7 47 21 67s31.833 36 53.5 48s44.167 18 67.5 18c24.667 0 47.334 -3 68.001 -9s41.667 -14.333 63 -25v-109h-14l-33 53c-11.333 18 -23.666 31 -36.999 39s-27.666 12 -42.999 12
c-22.667 0 -40.834 -5.66699 -54.501 -17s-20.5 -27 -20.5 -47c0 -22.667 8.16699 -39.834 24.5 -51.501s40.166 -24.834 71.499 -39.501l56.5 -28c19 -9.33301 34.667 -22.5 47 -39.5s18.5 -41.167 18.5 -72.5c0 -29.333 -8 -54.166 -24 -74.499
s-35.667 -35.666 -59 -45.999s-46 -15.5 -68 -15.5z" />
    <glyph glyph-name="uni0074" unicode="t" horiz-adv-x="354" 
d="M208 -10c-29.333 0 -54.666 8.66699 -75.999 26s-32 41.666 -32 72.999v314h-82v6l85 41l71 110h6v-110h132v-47h-132v-297c0 -17.333 7.66699 -30 23 -38s33.333 -12 54 -12c12.667 0 24.5 0.666992 35.5 2s20.5 3 28.5 5h3v-10
c-6.66699 -15.333 -19.834 -29.666 -39.501 -42.999s-45.167 -20 -76.5 -20z" />
    <glyph glyph-name="uni0075" unicode="u" horiz-adv-x="561" 
d="M225 -10c-39.333 0 -71.5 9.83105 -96.5 29.498s-37.5 48.834 -37.5 87.501v296l-63 31v16h143v-296c0 -29.333 9.16699 -51.666 27.5 -66.999s42.166 -23 71.499 -23c18 0 37.833 3 59.5 9s38.834 14.667 51.501 26v304l-71 31v16h151v-405l71 -29v-16h-151v63h-5
c-25.333 -25.333 -49.833 -43.833 -73.5 -55.5s-49.5 -17.5 -77.5 -17.5z" />
    <glyph glyph-name="uni0076" unicode="v" horiz-adv-x="480" 
d="M227 0l-183 403l-67 31v16h239v-16l-82 -30v-6l128 -279h4l113 273v6l-72 36v16h196v-16l-74 -35l-181 -399h-21z" />
    <glyph glyph-name="uni0077" unicode="w" horiz-adv-x="753" 
d="M201 0l-157 403l-67 31v16h239v-16l-82 -30v-6l104 -277h4l142 329h21l142 -326h4l101 268v6l-72 36v16h196v-16l-74 -35l-167 -399h-21l-144 326l-148 -326h-21z" />
    <glyph glyph-name="uni0078" unicode="x" horiz-adv-x="496" 
d="M26 0v16l54 35l131 172l-133 180l-47 31v16h207v-16l-68 -30v-6l93 -126l81 120v6l-57 36v16h166v-16l-53 -35l-117 -154l146 -198l41 -31v-16h-194v16l61 30v6l-106 143l-92 -137v-6l62 -36v-16h-175z" />
    <glyph glyph-name="uni0079" unicode="y" horiz-adv-x="480" 
d="M83 -241c-15.333 0 -24.833 2.16699 -28.5 6.5s-5.5 11.833 -5.5 22.5v50l4 4h46c16.667 0 29.334 1.5 38.001 4.5s16.667 10.667 24 23s17.666 32.5 30.999 60.5l35 78l-183 395l-67 31v16h239v-16l-82 -31v-5l133 -290h3l112 284v6l-75 36v16h196v-16l-75 -34
l-197 -479l-15.5 -38.5c-4.33301 -10.333 -9.16602 -20.333 -14.499 -30s-13 -21.5 -23 -35.5c-13.333 -19.333 -28.333 -33.833 -45 -43.5s-33.334 -14.5 -50.001 -14.5z" />
    <glyph glyph-name="uni007A" unicode="z" horiz-adv-x="482" 
d="M70 0l-0.000976562 18l225 388h-165l-45 -100h-16l11 154h5c8.66699 -2 19.334 -4.16699 32.001 -6.5s23 -3.5 31 -3.5h251v-18l-225 -388h180l37 107h16v-151h-337z" />
    <glyph glyph-name="uni007B" unicode="{" horiz-adv-x="250" 
d="M226 -150c-55.333 0 -95.5 12.3291 -120.5 36.9961s-37.5 56.667 -37.5 96c0 27.333 4 53.166 12 77.499l24 70.5c8 22.667 12 45.334 12 68.001s-6.16699 42.5 -18.5 59.5s-34.833 25.5 -67.5 25.5h-25v23h25c32.667 0 55.167 8.5 67.5 25.5s18.5 36.5 18.5 58.5
c0 22.667 -4 45.334 -12 68.001l-24 70.5c-8 24.333 -12 50.166 -12 77.499c0 39.333 12.5 71.333 37.5 96s65.167 37 120.5 37h19v-23h-27c-29.333 0 -51 -8.5 -65 -25.5s-21 -39.167 -21 -66.5c0 -26 3.66699 -50.833 11 -74.5l21.5 -69
c7 -22.333 10.5 -45.166 10.5 -68.499c0 -24.667 -6.33301 -46.667 -19 -66s-35 -36.666 -67 -51.999c32 -15.333 54.333 -32.666 67 -51.999s19 -41.333 19 -66c0 -23.333 -3.5 -46.166 -10.5 -68.499l-21.5 -69c-7.33301 -23.667 -11 -48.5 -11 -74.5
c0 -27.333 7 -49.5 21 -66.5s35.667 -25.5 65 -25.5h27v-23h-19z" />
    <glyph glyph-name="uni007C" unicode="|" horiz-adv-x="250" 
d="M100 -250v1000h50v-1000h-50z" />
    <glyph glyph-name="uni007D" unicode="}" horiz-adv-x="250" 
d="M24 -150l-19 0.00390625v23h27c29.333 0 51 8.5 65 25.5s21 39.167 21 66.5c0 26 -3.66699 50.833 -11 74.5l-21.5 69c-7 22.333 -10.5 45.166 -10.5 68.499c0 24.667 6.33301 46.667 19 66s35 36.666 67 51.999c-32 15.333 -54.333 32.666 -67 51.999s-19 41.333 -19 66
c0 23.333 3.5 46.166 10.5 68.499l21.5 69c7.33301 23.667 11 48.5 11 74.5c0 27.333 -7 49.5 -21 66.5s-35.667 25.5 -65 25.5h-27v23h19c55.333 0 95.5 -12.333 120.5 -37s37.5 -56.667 37.5 -96c0 -27.333 -4 -53.166 -12 -77.499l-24 -70.5
c-8 -22.667 -12 -45.334 -12 -68.001c0 -22 6.16699 -41.5 18.5 -58.5s34.833 -25.5 67.5 -25.5h25v-23h-25c-32.667 0 -55.167 -8.5 -67.5 -25.5s-18.5 -36.833 -18.5 -59.5s4 -45.334 12 -68.001l24 -70.5c8 -24.333 12 -50.166 12 -77.499
c0 -39.333 -12.5 -71.333 -37.5 -96s-65.167 -37 -120.5 -37z" />
    <glyph glyph-name="uni007E" unicode="~" 
d="M40 201c0 44.667 10.334 79.5 31.001 104.5s48.334 37.5 83.001 37.5c24 0 44.5 -4.5 61.5 -13.5s32.333 -19.667 46 -32s27.167 -23 40.5 -32s28.333 -13.5 45 -13.5c21.333 0 36.833 7.33301 46.5 22s14.5 37.667 14.5 69h52c0 -44.667 -10.333 -79.5 -31 -104.5
s-48.334 -37.5 -83.001 -37.5c-24 0 -44.5 4.5 -61.5 13.5s-32.333 19.667 -46 32s-27.334 23 -41.001 32s-28.5 13.5 -44.5 13.5c-40.667 0 -61 -30.333 -61 -91h-52z" />
    <glyph glyph-name="uni00A0" unicode="&#xa0;" horiz-adv-x="250" 
 />
    <glyph glyph-name="uni00A1" unicode="&#xa1;" horiz-adv-x="250" 
d="M125 338c-16.667 0 -31 6 -43 18s-18 26.333 -18 43c0 16 6 30.167 18 42.5s26.333 18.5 43 18.5c16 0 30.167 -6.16699 42.5 -18.5s18.5 -26.5 18.5 -42.5c0 -16.667 -6.16699 -31 -18.5 -43s-26.5 -18 -42.5 -18zM70 -205l45 460h20l45 -460h-110z" />
    <glyph glyph-name="uni00A2" unicode="&#xa2;" 
d="M168 26l20.001 82c-40.667 14 -72.5 38.667 -95.5 74s-34.5 78.333 -34.5 129c0 50 10.167 94 30.5 132s47.833 67.833 82.5 89.5s73.667 32.5 117 32.5h13l17 70h37l-18 -75c18 -4 34.667 -9.66699 50 -17s27.666 -16 36.999 -26c10.667 -12.667 16 -22.667 16 -30
c0 -9.33301 -4.33301 -17.333 -13 -24l-38 -32h-7l-34 46c-8 10.667 -16.667 19 -26 25l-78 -318c19.333 -6 41.333 -9 66 -9c36.667 0 79.667 13.333 129 40h3v-23c-19.333 -28 -44 -51 -74 -69s-63.667 -27 -101 -27c-15.333 0 -30 1.33301 -44 4l-18 -74h-37z
M141.001 357c0 -37.333 5.66797 -69.5 17.001 -96.5s28.666 -47.5 51.999 -61.5l79 317c-10 2 -20.667 3 -32 3c-36.667 0 -65.167 -14 -85.5 -42s-30.5 -68 -30.5 -120z" />
    <glyph glyph-name="uni00A3" unicode="&#xa3;" 
d="M47 0l0.00292969 40.0039c46.667 38.667 79.5 71.834 98.5 99.501s28.5 53.834 28.5 78.501c0 14.667 -3.16699 30.167 -9.5 46.5s-13.833 33.166 -22.5 50.499h-99v38h80c-10 20 -18.833 40 -26.5 60s-11.5 39.333 -11.5 58c0 33.333 8 65.166 24 95.499
s38.833 55.166 68.5 74.499s64.167 29 103.5 29c34.667 0 64.167 -5.33301 88.5 -16s43.166 -24.334 56.499 -41.001c10.667 -12.667 16 -22.667 16 -30c0 -9.33301 -4.33301 -17.333 -13 -24l-45 -36h-7l-14 26c-15.333 27.333 -29.833 46.333 -43.5 57s-32.5 16 -56.5 16
c-33.333 0 -58.333 -9 -75 -27s-25 -40 -25 -66c0 -25.333 7.83301 -53.333 23.5 -84l46.5 -92h160v-38h-142c5.33301 -12.667 9.66602 -24.834 12.999 -36.501s5 -22.834 5 -33.501c0 -26.667 -9.33301 -53 -28 -79s-49.334 -54 -92.001 -84h242l30 97h36l-10 -179h-400z
" />
    <glyph glyph-name="uni00A4" unicode="&#xa4;" 
d="M40 98l79 79c-9.33301 13.333 -16.833 28.166 -22.5 44.499s-8.5 33.166 -8.5 50.499s2.83301 34.166 8.5 50.499s13.167 31.166 22.5 44.499l-79 79l36 36l79 -79c13.333 9.33301 28.166 16.833 44.499 22.5s33.166 8.5 50.499 8.5s34.166 -2.83301 50.499 -8.5
s31.166 -13.167 44.499 -22.5l79 79l36 -36l-79 -79c9.33301 -13.333 16.833 -28.166 22.5 -44.499s8.5 -33.166 8.5 -50.499s-2.83301 -34.166 -8.5 -50.499s-13.167 -31.166 -22.5 -44.499l79 -79l-36 -36l-79 79c-13.333 -9.33301 -28.166 -16.833 -44.499 -22.5
s-33.166 -8.5 -50.499 -8.5s-34.166 2.83301 -50.499 8.5s-31.166 13.167 -44.499 22.5l-79 -79zM250 157c31.333 0 57.5 11 78.5 33s31.5 49.333 31.5 82s-10.5 60 -31.5 82s-47.167 33 -78.5 33s-57.5 -11 -78.5 -33s-31.5 -49.333 -31.5 -82s10.5 -60 31.5 -82
s47.167 -33 78.5 -33z" />
    <glyph glyph-name="uni00A5" unicode="&#xa5;" 
d="M120 0v16l85 40v183h-133v38h133v112h-133v38h108l-145 200l-33 17v16h208v-16l-61 -22v-2l124 -181l111 176v3l-62 26v16h176v-16l-46 -19l-137 -198h107v-38h-132v-112h132v-38h-132v-183l85 -40v-16h-255z" />
    <glyph glyph-name="uni00A6" unicode="&#xa6;" horiz-adv-x="250" 
d="M100 350v400h50v-400h-50zM100 -250v400h50v-400h-50z" />
    <glyph glyph-name="uni00A7" unicode="&#xa7;" 
d="M188 -120c-19.333 0 -38.6729 4.00195 -58.0059 12.002s-34 17 -44 27c-11.333 12.667 -17 22.667 -17 30c0 2.66699 0.833008 6.16699 2.5 10.5s5.16699 8.5 10.5 12.5l38 36h5l22 -24c12 -13.333 25.667 -25 41 -35s34 -15 56 -15c26.667 0 48.167 7.5 64.5 22.5
s24.5 33.5 24.5 55.5c0 27.333 -7.16699 48.166 -21.5 62.499s-33 25.333 -56 33s-47.333 14.334 -73 20.001s-50 13.5 -73 23.5s-41.667 24.333 -56 43s-21.5 45 -21.5 79c0 30.667 9.33301 57.167 28 79.5s44 39.5 76 51.5c-11.333 10.667 -20.5 24 -27.5 40
s-10.5 35.667 -10.5 59c0 29.333 9.33301 56.666 28 81.999s44.167 45.833 76.5 61.5s69.5 23.5 111.5 23.5c18 0 34 -3.33301 48 -10s26 -14.667 36 -24c4.66699 -5.33301 8.5 -10 11.5 -14s4.5 -8.33301 4.5 -13c0 -6 -4.33301 -13.333 -13 -22l-35 -33h-4l-21 22
c-11.333 12 -24.166 22.333 -38.499 31s-31.166 13 -50.499 13c-23.333 0 -43.5 -7.33301 -60.5 -22s-25.5 -33 -25.5 -55c0 -27.333 7.16699 -48.333 21.5 -63s32.833 -25.834 55.5 -33.501s46.834 -14.334 72.501 -20.001s49.834 -13 72.501 -22
s41.167 -22.167 55.5 -39.5s21.5 -42 21.5 -74c0 -33.333 -9.83301 -61.666 -29.5 -84.999s-47.167 -41.333 -82.5 -54c14.667 -10.667 26.334 -24.167 35.001 -40.5s13 -37.5 13 -63.5c0 -21.333 -6.16699 -42 -18.5 -62s-28.833 -38 -49.5 -54s-43.667 -28.667 -69 -38
s-50.666 -14 -75.999 -14zM104.993 302.002c0 -26 6.66797 -46.002 20.001 -60.002s30.666 -24.5 51.999 -31.5s44.333 -13 69 -18s47.667 -11.833 69 -20.5c22 3.33301 41.167 12.5 57.5 27.5s24.5 32.833 24.5 53.5c0 22 -5.16699 39.333 -15.5 52
s-23.833 22.334 -40.5 29.001s-35.167 12.167 -55.5 16.5l-62 13.5c-21 4.66699 -40.167 11.334 -57.5 20.001c-21.333 -6 -36.833 -16 -46.5 -30s-14.5 -31.333 -14.5 -52z" />
    <glyph glyph-name="uni00A8" unicode="&#xa8;" 
d="M158 568c-14 0 -25.667 4.66699 -35 14s-14 21 -14 35s4.66699 25.667 14 35s21 14 35 14s25.667 -4.66699 35 -14s14 -21 14 -35s-4.66699 -25.667 -14 -35s-21 -14 -35 -14zM342 568c-14 0 -25.667 4.66699 -35 14s-14 21 -14 35s4.66699 25.667 14 35s21 14 35 14
s25.667 -4.66699 35 -14s14 -21 14 -35s-4.66699 -25.667 -14 -35s-21 -14 -35 -14z" />
    <glyph glyph-name="uni00A9" unicode="&#xa9;" horiz-adv-x="806" 
d="M403 -10c-48 0 -92.167 8.5 -132.5 25.5s-75.5 40.667 -105.5 71s-53.333 66.166 -70 107.499s-25 86.666 -25 135.999s8.33301 94.666 25 135.999s40 77.166 70 107.499s65.167 54 105.5 71s84.5 25.5 132.5 25.5s92.167 -8.5 132.5 -25.5s75.5 -40.667 105.5 -71
s53.333 -66.166 70 -107.499s25 -86.666 25 -135.999s-8.33301 -94.666 -25 -135.999s-40 -77.166 -70 -107.499s-65.167 -54 -105.5 -71s-84.5 -25.5 -132.5 -25.5zM403 26c56.667 0 107.167 13.167 151.5 39.5s79.333 62.5 105 108.5s38.5 98 38.5 156
c0 58.667 -12.833 110.834 -38.5 156.501s-60.667 81.667 -105 108s-94.833 39.5 -151.5 39.5s-107.167 -13.167 -151.5 -39.5s-79.333 -62.333 -105 -108s-38.5 -97.834 -38.5 -156.501c0 -58 12.833 -110 38.5 -156s60.667 -82.167 105 -108.5s94.833 -39.5 151.5 -39.5z
M414 129c-41.333 0 -76.832 8.5 -106.499 25.5s-52.5 40.167 -68.5 69.5s-24 62.666 -24 99.999c0 38 9.5 73.5 28.5 106.5s44.167 59.5 75.5 79.5s66 30 104 30c30 0 53.667 -3 71 -9s35 -13.333 53 -22l4 -115h-29l-32 75c-13.333 8.66699 -24.833 15.167 -34.5 19.5
s-20.834 6.5 -33.501 6.5c-40 0 -72.833 -14.5 -98.5 -43.5s-38.5 -65.833 -38.5 -110.5c0 -52 12.167 -92.667 36.5 -122s54.833 -44 91.5 -44c16.667 0 31.5 1.83301 44.5 5.5s25.833 9.83398 38.5 18.501l33 67h29l-8 -105c-18.667 -9.33301 -38.5 -17 -59.5 -23
s-46.5 -9 -76.5 -9z" />
    <glyph glyph-name="uni00AA" unicode="&#xaa;" horiz-adv-x="400" 
d="M144 417c-17.333 0 -31.999 5.16895 -43.999 15.502s-18 25.166 -18 44.499s6 34.5 18 45.5s34.667 20.833 68 29.5l50 13v33c0 13.333 -4.16699 24 -12.5 32s-18.833 12 -31.5 12c-22 0 -33 -10.333 -33 -31v-23l-2 -2h-34c-9.33301 0 -14 5.33301 -14 16
c0 16 11 30.667 33 44c12 7.33301 23.667 13 35 17s23.333 6 36 6c28.667 0 51.167 -5.5 67.5 -16.5s24.5 -27.833 24.5 -50.5v-141c6 -6 15 -9 27 -9h15l2 -2v-6c-4 -6.66699 -10.5 -12.834 -19.5 -18.501s-20.833 -8.5 -35.5 -8.5c-28 0 -46.333 11.667 -55 35h-3
c-9.33301 -10.667 -20.333 -19.167 -33 -25.5s-26.334 -9.5 -41.001 -9.5zM148.001 491.002c0 -22 12 -33 36 -33c10 0 21.333 2.66699 34 8v77c-29.333 -6 -48.333 -13 -57 -21s-13 -18.333 -13 -31zM85.001 292.002v50h230v-50h-230z" />
    <glyph glyph-name="uni00AB" unicode="&#xab;" horiz-adv-x="430" 
d="M219 70l-199 177l199 177h11l-112 -177l112 -177h-11zM399 70l-199 177l199 177h11l-112 -177l112 -177h-11z" />
    <glyph glyph-name="uni00AC" unicode="&#xac;" 
d="M410 62v185h-370v50h420v-235h-50z" />
    <glyph glyph-name="uni00AD" unicode="&#xad;" horiz-adv-x="375" 
d="M50 222v70h275v-70h-275z" />
    <glyph glyph-name="uni00AE" unicode="&#xae;" horiz-adv-x="540" 
d="M270 238c-40.667 0 -77 9.5 -109 28.5s-57.167 44.667 -75.5 77s-27.5 69.166 -27.5 110.499s9.16699 78.166 27.5 110.499s43.5 58 75.5 77s68.333 28.5 109 28.5s77 -9.5 109 -28.5s57.167 -44.667 75.5 -77s27.5 -69.166 27.5 -110.499
s-9.16699 -78.166 -27.5 -110.499s-43.5 -58 -75.5 -77s-68.333 -28.5 -109 -28.5zM270 268c35.333 0 66.5 8.16699 93.5 24.5s48 38.5 63 66.5s22.5 59.667 22.5 95s-7.5 67 -22.5 95s-36 50.167 -63 66.5s-58.167 24.5 -93.5 24.5s-66.5 -8.16699 -93.5 -24.5
s-48 -38.5 -63 -66.5s-22.5 -59.667 -22.5 -95s7.5 -67 22.5 -95s36 -50.167 63 -66.5s58.167 -24.5 93.5 -24.5zM162 329l0.000976562 7l31 16v210l-31 16v6h107c27.333 0 48.666 -5.66699 63.999 -17s23 -26.666 23 -45.999c0 -14.667 -5 -27.834 -15 -39.501
s-23 -20.5 -39 -26.5l54 -106l26 -13v-7h-64l-58 117h-25v-94l30 -16v-7h-103zM257.001 561l-22.001 0.000976562v-92h24c14.667 0 27 4 37 12s15 19.667 15 35s-5.16699 26.666 -15.5 33.999s-23.166 11 -38.499 11z" />
    <glyph glyph-name="uni00AF" unicode="&#xaf;" 
d="M117 592v50h266v-50h-266z" />
    <glyph glyph-name="uni00B0" unicode="&#xb0;" 
d="M250 410c-25.333 0 -47.666 6 -66.999 18s-34.666 27.833 -45.999 47.5s-17 41.167 -17 64.5s5.66699 44.833 17 64.5s26.666 35.5 45.999 47.5s41.666 18 66.999 18s47.666 -6 66.999 -18s34.666 -27.833 45.999 -47.5s17 -41.167 17 -64.5s-5.66699 -44.833 -17 -64.5
s-26.666 -35.5 -45.999 -47.5s-41.666 -18 -66.999 -18zM250 449c24.667 0 45.5 8.16699 62.5 24.5s25.5 38.5 25.5 66.5s-8.5 50.167 -25.5 66.5s-37.833 24.5 -62.5 24.5s-45.5 -8.16699 -62.5 -24.5s-25.5 -38.5 -25.5 -66.5s8.5 -50.167 25.5 -66.5
s37.833 -24.5 62.5 -24.5z" />
    <glyph glyph-name="uni00B1" unicode="&#xb1;" 
d="M224 152v135h-184v50h184v145h52v-145h184v-50h-184v-135h-52zM40 62v50h420v-50h-420z" />
    <glyph glyph-name="uni00B2" unicode="&#xb2;" horiz-adv-x="316" 
d="M27 505v20.001c38.667 44 69.667 80.5 93 109.5s40.833 53.167 52.5 72.5s19.334 36.166 23.001 50.499s5.5 28.5 5.5 42.5c0 20 -4.83301 36.5 -14.5 49.5s-24.834 19.5 -45.501 19.5c-18 0 -32.5 -6 -43.5 -18s-16.5 -28.667 -16.5 -50v-27l-4 -5h-37
c-6.66699 0 -11.667 1.33301 -15 4s-5 8.66699 -5 18c0 14 3.66699 26.667 11 38s18.333 23 33 35c13.333 11.333 27.333 20.166 42 26.499s34.667 9.5 60 9.5c35.333 0 63.333 -9.83301 84 -29.5s31 -45.167 31 -76.5c0 -15.333 -2.33301 -29.666 -7 -42.999
s-13.667 -28 -27 -44s-33 -35.833 -59 -59.5l-102 -90.5h168l27 59h15l-6 -111h-263z" />
    <glyph glyph-name="uni00B3" unicode="&#xb3;" horiz-adv-x="320" 
d="M154 495c-37.333 0 -69.667 8.99805 -97 26.998c-11.333 7.33301 -20.333 15.333 -27 24s-10 18 -10 28s1.83301 16.167 5.5 18.5s9.16699 3.5 16.5 3.5h35l5 -5v-14c0 -17.333 6 -30.333 18 -39s27.667 -13 47 -13c24 0 42 7.33301 54 22s18 33.334 18 56.001
c0 27.333 -7 48.5 -21 63.5s-38.667 22.5 -74 22.5h-34v27h15c28 0 50.667 7.5 68 22.5s26 36.833 26 65.5c0 20 -4.83301 35.833 -14.5 47.5s-24.167 17.5 -43.5 17.5c-15.333 0 -27.666 -4.66699 -36.999 -14s-14 -22.666 -14 -39.999v-24l-5 -5h-35
c-6.66699 0 -11.834 1.5 -15.501 4.5s-5.5 9.83301 -5.5 20.5c0 21.333 13 40.666 39 57.999c15.333 10 29.833 17.667 43.5 23s30.834 8 51.501 8c35.333 0 63.666 -8.33301 84.999 -25s32 -39.334 32 -68.001c0 -23.333 -9.16699 -43.166 -27.5 -59.499
s-42.5 -27.833 -72.5 -34.5c80 -9.33301 120 -43.666 120 -102.999c0 -32.667 -13.833 -60 -41.5 -82s-62.5 -33 -104.5 -33z" />
    <glyph glyph-name="uni00B4" unicode="&#xb4;" 
d="M165 530l86.999 177h82c0 -10 -2.16699 -20 -6.5 -30s-13.166 -21 -26.499 -33l-125 -114h-11z" />
    <glyph glyph-name="uni00B5" unicode="&#xb5;" horiz-adv-x="561" 
d="M251 -10c-18 0 -35.001 2.33105 -51.001 6.99805s-31.667 14.334 -47 29.001l18 -236l-78 -20h-2v680h80v-296c0 -29.333 9.16699 -51.666 27.5 -66.999s42.166 -23 71.499 -23c18 0 37.833 3 59.5 9s38.834 14.667 51.501 26v351h80v-383
c4.66699 -4.66699 11.334 -8.66699 20.001 -12s20.667 -5 36 -5h38l3 -2v-3c-8 -14.667 -19.833 -27.5 -35.5 -38.5s-34.834 -16.5 -57.501 -16.5c-23.333 0 -41.666 6.66699 -54.999 20s-22 31 -26 53h-6c-21.333 -25.333 -42 -43.833 -62 -55.5s-41.667 -17.5 -65 -17.5z
" />
    <glyph glyph-name="uni00B6" unicode="&#xb6;" horiz-adv-x="496" 
d="M266 -110l-0.000976562 469h-43c-36 0 -68.167 6.66699 -96.5 20s-50.666 31.833 -66.999 55.5s-24.5 50.167 -24.5 79.5c0 50.667 15.833 87.667 47.5 111s73.167 35 124.5 35h109v-770h-50zM375.999 -110v770h130v-16l-80 -40v-714h-50z" />
    <glyph glyph-name="uni00B7" unicode="&#xb7;" horiz-adv-x="250" 
d="M125 210c-16.667 0 -31 6 -43 18s-18 26.333 -18 43s6 31 18 43s26.333 18 43 18s31 -6 43 -18s18 -26.333 18 -43s-6 -31 -18 -43s-26.333 -18 -43 -18z" />
    <glyph glyph-name="uni00B8" unicode="&#xb8;" 
d="M243 -240c-38 0 -65.667 9.99902 -83 29.999v12h3c8.66699 -4 18 -7 28 -9s21.667 -3 35 -3c20 0 34 3.83301 42 11.5s12 16.834 12 27.501c0 14.667 -7 26.5 -21 35.5s-40.667 19.833 -80 32.5l57 123h35l-34 -75c38 -12 64.667 -25 80 -39s23 -34.333 23 -61
c0 -24 -8.33301 -44.167 -25 -60.5s-40.667 -24.5 -72 -24.5z" />
    <glyph glyph-name="uni00B9" unicode="&#xb9;" horiz-adv-x="269" 
d="M64 505v15l55 21v287l-104 -54v28l142 88h38v-349l49 -21v-15h-180z" />
    <glyph glyph-name="uni00BA" unicode="&#xba;" horiz-adv-x="400" 
d="M200 417c-37.333 0 -67.5 12.167 -90.5 36.5s-34.5 54.166 -34.5 89.499c0 34.667 11.5 64.334 34.5 89.001s53.167 37 90.5 37s67.5 -12.333 90.5 -37s34.5 -54.334 34.5 -89.001c0 -35.333 -11.5 -65.166 -34.5 -89.499s-53.167 -36.5 -90.5 -36.5zM206 442
c14.667 0 26.166 8.00098 34.499 24.001s12.5 38 12.5 66c0 34 -5.33301 61.167 -16 81.5s-24.667 30.5 -42 30.5c-15.333 0 -27.166 -8.33301 -35.499 -25s-12.5 -38.334 -12.5 -65.001c0 -34.667 5.5 -62 16.5 -82s25.167 -30 42.5 -30zM84.999 292.001v50h230v-50h-230z
" />
    <glyph glyph-name="uni00BB" unicode="&#xbb;" horiz-adv-x="430" 
d="M20 70l112 177l-112 177h11l199 -177l-199 -177h-11zM200 70l112 177l-112 177h11l199 -177l-199 -177h-11z" />
    <glyph glyph-name="uni00BC" unicode="&#xbc;" horiz-adv-x="750" 
d="M64 355v15l55 21v287l-104 -54v28l142 88h38v-349l49 -21v-15h-180zM67 13l465 737l36 -23l-465 -737zM505 0v15l55 21v69h-166v15l204 265h38v-241h70v-39h-70v-69l49 -21v-15h-180zM452 144h108v144z" />
    <glyph glyph-name="uni00BD" unicode="&#xbd;" horiz-adv-x="750" 
d="M64 355v15l55 21v287l-104 -54v28l142 88h38v-349l49 -21v-15h-180zM67 13l465 737l36 -23l-465 -737zM427 0v20.001c38.667 44 69.667 80.5 93 109.5s40.833 53.167 52.5 72.5s19.334 36.166 23.001 50.499s5.5 28.5 5.5 42.5c0 20 -4.83301 36.5 -14.5 49.5
s-24.834 19.5 -45.501 19.5c-18 0 -32.5 -6 -43.5 -18s-16.5 -28.667 -16.5 -50v-27l-4 -5h-37c-6.66699 0 -11.667 1.33301 -15 4s-5 8.66699 -5 18c0 14 3.66699 26.667 11 38s18.333 23 33 35c13.333 11.333 27.333 20.166 42 26.499s34.667 9.5 60 9.5
c35.333 0 63.333 -9.83301 84 -29.5s31 -45.167 31 -76.5c0 -15.333 -2.33301 -29.666 -7 -42.999s-13.667 -28 -27 -44s-33 -35.833 -59 -59.5l-102 -90.5h168l27 59h15l-6 -111h-263z" />
    <glyph glyph-name="uni00BE" unicode="&#xbe;" horiz-adv-x="750" 
d="M154 345c-37.333 0 -69.667 8.99805 -97 26.998c-11.333 7.33301 -20.333 15.333 -27 24s-10 18 -10 28s1.83301 16.167 5.5 18.5s9.16699 3.5 16.5 3.5h35l5 -5v-14c0 -17.333 6 -30.333 18 -39s27.667 -13 47 -13c24 0 42 7.33301 54 22s18 33.334 18 56.001
c0 27.333 -7 48.5 -21 63.5s-38.667 22.5 -74 22.5h-34v27h15c28 0 50.667 7.5 68 22.5s26 36.833 26 65.5c0 20 -4.83301 35.833 -14.5 47.5s-24.167 17.5 -43.5 17.5c-15.333 0 -27.666 -4.66699 -36.999 -14s-14 -22.666 -14 -39.999v-24l-5 -5h-35
c-6.66699 0 -11.834 1.5 -15.501 4.5s-5.5 9.83301 -5.5 20.5c0 21.333 13 40.666 39 57.999c15.333 10 29.833 17.667 43.5 23s30.834 8 51.501 8c35.333 0 63.666 -8.33301 84.999 -25s32 -39.334 32 -68.001c0 -23.333 -9.16699 -43.166 -27.5 -59.499
s-42.5 -27.833 -72.5 -34.5c80 -9.33301 120 -43.666 120 -102.999c0 -32.667 -13.833 -60 -41.5 -82s-62.5 -33 -104.5 -33zM117.999 12.998l465 737l36 -23l-465 -737zM530.999 -0.00195312v15l55 21v69h-166v15l204 265h38v-241h70v-39h-70v-69l49 -21v-15h-180z
M477.999 143.998h108v144z" />
    <glyph glyph-name="uni00BF" unicode="&#xbf;" horiz-adv-x="479" 
d="M269 338c-16 0 -30.167 6 -42.5 18s-18.5 26.333 -18.5 43c0 16 6.16699 30.167 18.5 42.5s26.5 18.5 42.5 18.5c16.667 0 31 -6.16699 43 -18.5s18 -26.5 18 -42.5c0 -16.667 -6 -31 -18 -43s-26.333 -18 -43 -18zM233 -215c-34 0 -64.334 7.99707 -91.001 23.9971
s-47.667 37.333 -63 64s-23 56.334 -23 89.001c0 42.667 14.833 81.5 44.5 116.5s79.834 68.167 150.501 99.5l8 77h20l26 -145c-49.333 -17.333 -87.833 -37.666 -115.5 -60.999s-41.5 -51.666 -41.5 -84.999c0 -46.667 11.167 -80.667 33.5 -102s49.5 -32 81.5 -32
c28 0 49.667 9 65 27s23 44.667 23 80v40l8 10h41c13.333 0 23 -2.33301 29 -7s9 -15.667 9 -33c0 -18 -4.83301 -36.167 -14.5 -54.5s-24.834 -34.5 -45.501 -48.5c-22.667 -16.667 -44.167 -30.667 -64.5 -42s-47.166 -17 -80.499 -17z" />
    <glyph glyph-name="uni00C0" unicode="&#xc0;" horiz-adv-x="750" 
d="M33 0v16l64 33l256 616h45l252 -613l67 -36v-16h-248v16l88 34l-75 185h-243l-74 -185l84 -34v-16h-216zM262 290h198l-99 246zM370 710l-124.999 88.999c-14.667 10.667 -23.834 21.334 -27.501 32.001s-5.5 21 -5.5 31h82l87 -152h-11z" />
    <glyph glyph-name="uni00C1" unicode="&#xc1;" horiz-adv-x="750" 
d="M33 0v16l64 33l256 616h45l252 -613l67 -36v-16h-248v16l88 34l-75 185h-243l-74 -185l84 -34v-16h-216zM262 290h198l-99 246zM371 710l87.001 152.001h82c0 -10 -1.83301 -20.333 -5.5 -31s-12.834 -21.334 -27.501 -32.001l-125 -89h-11z" />
    <glyph glyph-name="uni00C2" unicode="&#xc2;" horiz-adv-x="750" 
d="M33 0v16l64 33l256 616h45l252 -613l67 -36v-16h-248v16l88 34l-75 185h-243l-74 -185l84 -34v-16h-216zM262 290h198l-99 246zM229 710l132 152h30l132 -152h-11l-136 75l-136 -75h-11z" />
    <glyph glyph-name="uni00C3" unicode="&#xc3;" horiz-adv-x="750" 
d="M33 0v16l64 33l256 616h45l252 -613l67 -36v-16h-248v16l88 34l-75 185h-243l-74 -185l84 -34v-16h-216zM262 290h198l-99 246zM224 726c10.667 33.333 20.834 58.166 30.501 74.499s19.667 27 30 32s21.833 7.5 34.5 7.5c17.333 0 33.333 -4.33301 48 -13l42.5 -26
c13.667 -8.66699 28.167 -13 43.5 -13c12.667 0 24 3.33301 34 10s19.333 20.667 28 42h13c-10.667 -33.333 -20.834 -58.166 -30.501 -74.499s-19.667 -27 -30 -32s-21.833 -7.5 -34.5 -7.5c-17.333 0 -33.333 4.33301 -48 13l-42.5 26
c-13.667 8.66699 -28.167 13 -43.5 13c-12.667 0 -24 -3.33301 -34 -10s-19.333 -20.667 -28 -42h-13z" />
    <glyph glyph-name="uni00C4" unicode="&#xc4;" horiz-adv-x="750" 
d="M33 0v16l64 33l256 616h45l252 -613l67 -36v-16h-248v16l88 34l-75 185h-243l-74 -185l84 -34v-16h-216zM262 290h198l-99 246zM284 737c-14 0 -25.667 4.66699 -35 14s-14 21 -14 35s4.66699 25.667 14 35s21 14 35 14s25.667 -4.66699 35 -14s14 -21 14 -35
s-4.66699 -25.667 -14 -35s-21 -14 -35 -14zM468 737c-14 0 -25.667 4.66699 -35 14s-14 21 -14 35s4.66699 25.667 14 35s21 14 35 14s25.667 -4.66699 35 -14s14 -21 14 -35s-4.66699 -25.667 -14 -35s-21 -14 -35 -14z" />
    <glyph glyph-name="uni00C5" unicode="&#xc5;" horiz-adv-x="750" 
d="M33 0v16l64 33l256 616h45l252 -613l67 -36v-16h-248v16l88 34l-75 185h-243l-74 -185l84 -34v-16h-216zM262 290h198l-99 246zM376 710c-25.333 0 -46 7.83301 -62 23.5s-24 35.5 -24 59.5c0 23.333 8 43 24 59s36.667 24 62 24c26 0 46.833 -8 62.5 -24
s23.5 -35.667 23.5 -59c0 -24 -7.83301 -43.833 -23.5 -59.5s-36.5 -23.5 -62.5 -23.5zM381 734c22 0 33 17.333 33 52c0 44 -14 66 -42 66c-10.667 0 -18.667 -4 -24 -12s-8 -21.333 -8 -40c0 -44 13.667 -66 41 -66z" />
    <glyph glyph-name="uni00C6" unicode="&#xc6;" horiz-adv-x="982" 
d="M464 660h420v-172h-16l-62 117h-241v-237h170l50 83h16v-219h-16l-50 81h-170v-258h269l62 127h16v-182h-517v16l80 40v179h-203l-109 -185l80 -34v-16h-215v16l64 33zM305 290h170v288z" />
    <glyph glyph-name="uni00C7" unicode="&#xc7;" horiz-adv-x="726" 
d="M383 -210c20 0 34.001 3.83496 42.001 11.502s12 16.834 12 27.501c0 14.667 -7 26.5 -21 35.5s-40.667 19.833 -80 32.5l43 93c-64 3.33301 -119.167 19.166 -165.5 47.499s-81.833 66.166 -106.5 113.499s-37 101 -37 161c0 47.333 9.16699 92.5 27.5 135.5
s43.333 81.167 75 114.5s68.334 59.666 110.001 78.999s85.834 29 132.501 29c33.333 0 61.666 -2.16699 84.999 -6.5s44.166 -10 62.499 -17s36.833 -15.167 55.5 -24.5l5 -175h-18l-61 122c-25.333 18 -47.5 31 -66.5 39s-40.5 12 -64.5 12c-48 0 -90.833 -12 -128.5 -36
s-67.334 -56.833 -89.001 -98.5s-32.5 -89.5 -32.5 -143.5c0 -63.333 10.5 -117.5 31.5 -162.5s49.333 -79.333 85 -103s75.167 -35.5 118.5 -35.5c36.667 0 67.5 5.16699 92.5 15.5s47.167 21.833 66.5 34.5l60 107h17l-11 -159c-18.667 -9.33301 -37.667 -17.5 -57 -24.5
s-41 -12.667 -65 -17s-53 -6.83301 -87 -7.5l-20 -45c38 -12 64.667 -25 80 -39s23 -34.333 23 -61c0 -24 -8.33301 -44.167 -25 -60.5s-40.667 -24.5 -72 -24.5c-38 0 -65.667 10 -83 30v12h3c9.33301 -4 18.833 -7 28.5 -9s21.167 -3 34.5 -3z" />
    <glyph glyph-name="uni00C8" unicode="&#xc8;" horiz-adv-x="652" 
d="M65 0v16l80 40v548l-80 40v16h489v-172h-16l-62 117h-241v-237h170l50 83h16v-219h-16l-50 81h-170v-258h269l62 127h16v-182h-517zM329 710l-124.999 88.999c-14.667 10.667 -23.834 21.334 -27.501 32.001s-5.5 21 -5.5 31h82l87 -152h-11z" />
    <glyph glyph-name="uni00C9" unicode="&#xc9;" horiz-adv-x="652" 
d="M65 0v16l80 40v548l-80 40v16h489v-172h-16l-62 117h-241v-237h170l50 83h16v-219h-16l-50 81h-170v-258h269l62 127h16v-182h-517zM330 710l87.001 152.001h82c0 -10 -1.83301 -20.333 -5.5 -31s-12.834 -21.334 -27.501 -32.001l-125 -89h-11z" />
    <glyph glyph-name="uni00CA" unicode="&#xca;" horiz-adv-x="652" 
d="M65 0v16l80 40v548l-80 40v16h489v-172h-16l-62 117h-241v-237h170l50 83h16v-219h-16l-50 81h-170v-258h269l62 127h16v-182h-517zM188 710l132 152h30l132 -152h-11l-136 75l-136 -75h-11z" />
    <glyph glyph-name="uni00CB" unicode="&#xcb;" horiz-adv-x="652" 
d="M65 0v16l80 40v548l-80 40v16h489v-172h-16l-62 117h-241v-237h170l50 83h16v-219h-16l-50 81h-170v-258h269l62 127h16v-182h-517zM243 737c-14 0 -25.667 4.66699 -35 14s-14 21 -14 35s4.66699 25.667 14 35s21 14 35 14s25.667 -4.66699 35 -14s14 -21 14 -35
s-4.66699 -25.667 -14 -35s-21 -14 -35 -14zM427 737c-14 0 -25.667 4.66699 -35 14s-14 21 -14 35s4.66699 25.667 14 35s21 14 35 14s25.667 -4.66699 35 -14s14 -21 14 -35s-4.66699 -25.667 -14 -35s-21 -14 -35 -14z" />
    <glyph glyph-name="uni00CC" unicode="&#xcc;" horiz-adv-x="390" 
d="M70 0v16l80 40v548l-80 40v16h250v-16l-80 -40v-548l80 -40v-16h-250zM189 710l-124.999 88.999c-14.667 10.667 -23.834 21.334 -27.501 32.001s-5.5 21 -5.5 31h82l87 -152h-11z" />
    <glyph glyph-name="uni00CD" unicode="&#xcd;" horiz-adv-x="390" 
d="M70 0v16l80 40v548l-80 40v16h250v-16l-80 -40v-548l80 -40v-16h-250zM190 710l87.001 152.001h82c0 -10 -1.83301 -20.333 -5.5 -31s-12.834 -21.334 -27.501 -32.001l-125 -89h-11z" />
    <glyph glyph-name="uni00CE" unicode="&#xce;" horiz-adv-x="390" 
d="M70 0v16l80 40v548l-80 40v16h250v-16l-80 -40v-548l80 -40v-16h-250zM48 710l132 152h30l132 -152h-11l-136 75l-136 -75h-11z" />
    <glyph glyph-name="uni00CF" unicode="&#xcf;" horiz-adv-x="390" 
d="M70 0v16l80 40v548l-80 40v16h250v-16l-80 -40v-548l80 -40v-16h-250zM103 737c-14 0 -25.667 4.66699 -35 14s-14 21 -14 35s4.66699 25.667 14 35s21 14 35 14s25.667 -4.66699 35 -14s14 -21 14 -35s-4.66699 -25.667 -14 -35s-21 -14 -35 -14zM287 737
c-14 0 -25.667 4.66699 -35 14s-14 21 -14 35s4.66699 25.667 14 35s21 14 35 14s25.667 -4.66699 35 -14s14 -21 14 -35s-4.66699 -25.667 -14 -35s-21 -14 -35 -14z" />
    <glyph glyph-name="uni00D0" unicode="&#xd0;" horiz-adv-x="775" 
d="M65 0v15.999l80 40v261h-80v50h80v237l-80 40v16h293c73.333 0 136 -13 188 -39s91.5 -61.667 118.5 -107s40.5 -96.666 40.5 -153.999c0 -52 -8.83301 -100 -26.5 -144s-42.5 -82 -74.5 -114s-69.5 -57 -112.5 -75s-89.833 -27 -140.5 -27h-286zM410 316.999
l-175 -0.000976562v-262h115c53.333 0 99.5 11.167 138.5 33.5s69 54 90 95s31.5 89.5 31.5 145.5c0 55.333 -10.667 103.833 -32 145.5s-52.5 73.834 -93.5 96.501s-90.833 34 -149.5 34h-100v-238h175v-50z" />
    <glyph glyph-name="uni00D1" unicode="&#xd1;" horiz-adv-x="799" 
d="M60 0v16l80 40v546l-79 42v16h147l382 -480v426l-100 38v16h249v-16l-79 -39v-610h-37l-413 521v-461l100 -39v-16h-250zM258 726c10.667 33.333 20.834 58.166 30.501 74.499s19.667 27 30 32s21.833 7.5 34.5 7.5c17.333 0 33.333 -4.33301 48 -13l42.5 -26
c13.667 -8.66699 28.167 -13 43.5 -13c12.667 0 24 3.33301 34 10s19.333 20.667 28 42h13c-10.667 -33.333 -20.834 -58.166 -30.501 -74.499s-19.667 -27 -30 -32s-21.833 -7.5 -34.5 -7.5c-17.333 0 -33.333 4.33301 -48 13l-42.5 26
c-13.667 8.66699 -28.167 13 -43.5 13c-12.667 0 -24 -3.33301 -34 -10s-19.333 -20.667 -28 -42h-13z" />
    <glyph glyph-name="uni00D2" unicode="&#xd2;" horiz-adv-x="807" 
d="M403 -10c-48 0 -92.167 8.5 -132.5 25.5s-75.5 40.667 -105.5 71s-53.333 66.166 -70 107.499s-25 86.666 -25 135.999s8.33301 94.666 25 135.999s40 77.166 70 107.499s65.167 54 105.5 71s84.5 25.5 132.5 25.5s92.333 -8.5 133 -25.5s76 -40.667 106 -71
s53.333 -66.166 70 -107.499s25 -86.666 25 -135.999s-8.33301 -94.666 -25 -135.999s-40 -77.166 -70 -107.499s-65.333 -54 -106 -71s-85 -25.5 -133 -25.5zM424 40c42.667 0 80.167 10.6689 112.5 32.002s57.666 51.333 75.999 90s27.5 84.334 27.5 137.001
c0 64.667 -11.333 121.167 -34 169.5s-53.167 85.833 -91.5 112.5s-81.166 40 -128.499 40c-42.667 0 -80.5 -10.5 -113.5 -31.5s-58.833 -50.833 -77.5 -89.5s-28 -84.334 -28 -137.001c0 -64.667 11.5 -121.334 34.5 -170.001s53.833 -86.334 92.5 -113.001
s82 -40 130 -40zM385 710.002l-124.999 88.999c-14.667 10.667 -23.834 21.334 -27.501 32.001s-5.5 21 -5.5 31h82l87 -152h-11z" />
    <glyph glyph-name="uni00D3" unicode="&#xd3;" horiz-adv-x="807" 
d="M403 -10c-48 0 -92.167 8.5 -132.5 25.5s-75.5 40.667 -105.5 71s-53.333 66.166 -70 107.499s-25 86.666 -25 135.999s8.33301 94.666 25 135.999s40 77.166 70 107.499s65.167 54 105.5 71s84.5 25.5 132.5 25.5s92.333 -8.5 133 -25.5s76 -40.667 106 -71
s53.333 -66.166 70 -107.499s25 -86.666 25 -135.999s-8.33301 -94.666 -25 -135.999s-40 -77.166 -70 -107.499s-65.333 -54 -106 -71s-85 -25.5 -133 -25.5zM424 40c42.667 0 80.167 10.6689 112.5 32.002s57.666 51.333 75.999 90s27.5 84.334 27.5 137.001
c0 64.667 -11.333 121.167 -34 169.5s-53.167 85.833 -91.5 112.5s-81.166 40 -128.499 40c-42.667 0 -80.5 -10.5 -113.5 -31.5s-58.833 -50.833 -77.5 -89.5s-28 -84.334 -28 -137.001c0 -64.667 11.5 -121.334 34.5 -170.001s53.833 -86.334 92.5 -113.001
s82 -40 130 -40zM386 710.002l87.001 152.001h82c0 -10 -1.83301 -20.333 -5.5 -31s-12.834 -21.334 -27.501 -32.001l-125 -89h-11z" />
    <glyph glyph-name="uni00D4" unicode="&#xd4;" horiz-adv-x="807" 
d="M403 -10c-48 0 -92.167 8.5 -132.5 25.5s-75.5 40.667 -105.5 71s-53.333 66.166 -70 107.499s-25 86.666 -25 135.999s8.33301 94.666 25 135.999s40 77.166 70 107.499s65.167 54 105.5 71s84.5 25.5 132.5 25.5s92.333 -8.5 133 -25.5s76 -40.667 106 -71
s53.333 -66.166 70 -107.499s25 -86.666 25 -135.999s-8.33301 -94.666 -25 -135.999s-40 -77.166 -70 -107.499s-65.333 -54 -106 -71s-85 -25.5 -133 -25.5zM424 40c42.667 0 80.167 10.6689 112.5 32.002s57.666 51.333 75.999 90s27.5 84.334 27.5 137.001
c0 64.667 -11.333 121.167 -34 169.5s-53.167 85.833 -91.5 112.5s-81.166 40 -128.499 40c-42.667 0 -80.5 -10.5 -113.5 -31.5s-58.833 -50.833 -77.5 -89.5s-28 -84.334 -28 -137.001c0 -64.667 11.5 -121.334 34.5 -170.001s53.833 -86.334 92.5 -113.001
s82 -40 130 -40zM244 710.002l132 152h30l132 -152h-11l-136 75l-136 -75h-11z" />
    <glyph glyph-name="uni00D5" unicode="&#xd5;" horiz-adv-x="807" 
d="M403 -10c-48 0 -92.167 8.5 -132.5 25.5s-75.5 40.667 -105.5 71s-53.333 66.166 -70 107.499s-25 86.666 -25 135.999s8.33301 94.666 25 135.999s40 77.166 70 107.499s65.167 54 105.5 71s84.5 25.5 132.5 25.5s92.333 -8.5 133 -25.5s76 -40.667 106 -71
s53.333 -66.166 70 -107.499s25 -86.666 25 -135.999s-8.33301 -94.666 -25 -135.999s-40 -77.166 -70 -107.499s-65.333 -54 -106 -71s-85 -25.5 -133 -25.5zM424 40c42.667 0 80.167 10.6689 112.5 32.002s57.666 51.333 75.999 90s27.5 84.334 27.5 137.001
c0 64.667 -11.333 121.167 -34 169.5s-53.167 85.833 -91.5 112.5s-81.166 40 -128.499 40c-42.667 0 -80.5 -10.5 -113.5 -31.5s-58.833 -50.833 -77.5 -89.5s-28 -84.334 -28 -137.001c0 -64.667 11.5 -121.334 34.5 -170.001s53.833 -86.334 92.5 -113.001
s82 -40 130 -40zM239 726.002c10.667 33.333 20.834 58.166 30.501 74.499s19.667 27 30 32s21.833 7.5 34.5 7.5c17.333 0 33.333 -4.33301 48 -13l42.5 -26c13.667 -8.66699 28.167 -13 43.5 -13c12.667 0 24 3.33301 34 10s19.333 20.667 28 42h13
c-10.667 -33.333 -20.834 -58.166 -30.501 -74.499s-19.667 -27 -30 -32s-21.833 -7.5 -34.5 -7.5c-17.333 0 -33.333 4.33301 -48 13l-42.5 26c-13.667 8.66699 -28.167 13 -43.5 13c-12.667 0 -24 -3.33301 -34 -10s-19.333 -20.667 -28 -42h-13z" />
    <glyph glyph-name="uni00D6" unicode="&#xd6;" horiz-adv-x="807" 
d="M403 -10c-48 0 -92.167 8.5 -132.5 25.5s-75.5 40.667 -105.5 71s-53.333 66.166 -70 107.499s-25 86.666 -25 135.999s8.33301 94.666 25 135.999s40 77.166 70 107.499s65.167 54 105.5 71s84.5 25.5 132.5 25.5s92.333 -8.5 133 -25.5s76 -40.667 106 -71
s53.333 -66.166 70 -107.499s25 -86.666 25 -135.999s-8.33301 -94.666 -25 -135.999s-40 -77.166 -70 -107.499s-65.333 -54 -106 -71s-85 -25.5 -133 -25.5zM424 40c42.667 0 80.167 10.6689 112.5 32.002s57.666 51.333 75.999 90s27.5 84.334 27.5 137.001
c0 64.667 -11.333 121.167 -34 169.5s-53.167 85.833 -91.5 112.5s-81.166 40 -128.499 40c-42.667 0 -80.5 -10.5 -113.5 -31.5s-58.833 -50.833 -77.5 -89.5s-28 -84.334 -28 -137.001c0 -64.667 11.5 -121.334 34.5 -170.001s53.833 -86.334 92.5 -113.001
s82 -40 130 -40zM299 737.002c-14 0 -25.667 4.66699 -35 14s-14 21 -14 35s4.66699 25.667 14 35s21 14 35 14s25.667 -4.66699 35 -14s14 -21 14 -35s-4.66699 -25.667 -14 -35s-21 -14 -35 -14zM483 737.002c-14 0 -25.667 4.66699 -35 14s-14 21 -14 35
s4.66699 25.667 14 35s21 14 35 14s25.667 -4.66699 35 -14s14 -21 14 -35s-4.66699 -25.667 -14 -35s-21 -14 -35 -14z" />
    <glyph glyph-name="uni00D7" unicode="&#xd7;" 
d="M102 88l-36 37l147 147l-147 147l36 37l148 -148l148 148l36 -37l-147 -147l147 -147l-36 -37l-148 148z" />
    <glyph glyph-name="uni00D8" unicode="&#xd8;" horiz-adv-x="807" 
d="M70 -10l90 102c-28.667 30 -50.834 65.333 -66.501 106s-23.5 84.667 -23.5 132c0 49.333 8.33301 94.666 25 135.999s40 77.166 70 107.499s65.167 54 105.5 71s84.5 25.5 132.5 25.5c39.333 0 76.5 -5.83301 111.5 -17.5s66.5 -28.167 94.5 -49.5l59 67h69l-90 -102
c28.667 -30 50.834 -65.333 66.501 -106s23.5 -84.667 23.5 -132c0 -49.333 -8.33301 -94.666 -25 -135.999s-40 -77.166 -70 -107.499s-65.333 -54 -106 -71s-85 -25.5 -133 -25.5c-39.333 0 -76.333 5.83301 -111 17.5s-66 28.167 -94 49.5l-59 -67h-69zM167 363
c0 -40 4.66699 -77.166 14 -111.499s22 -64.833 38 -91.5l338 384c-22.667 24.667 -48.5 43.667 -77.5 57s-60.167 20 -93.5 20c-42.667 0 -80.5 -10.5 -113.5 -31.5s-58.833 -50.833 -77.5 -89.5s-28 -84.334 -28 -137.001zM424 40.001
c42.667 0 80.167 10.665 112.5 31.998s57.666 51.333 75.999 90s27.5 84.334 27.5 137.001c0 40 -4.5 77 -13.5 111s-21.5 64.333 -37.5 91l-338 -383c22.667 -25.333 48.834 -44.666 78.501 -57.999s61.167 -20 94.5 -20z" />
    <glyph glyph-name="uni00D9" unicode="&#xd9;" horiz-adv-x="809" 
d="M405 -10c-50 0 -94.501 9.33398 -133.501 28.001s-69.833 47.5 -92.5 86.5s-34 89.5 -34 151.5v348l-80 40v16h250v-16l-80 -40v-333c0 -55.333 8.66699 -99.333 26 -132s40.833 -56 70.5 -70s62.834 -21 99.501 -21c29.333 0 56.5 6.33301 81.5 19s45 32.667 60 60
s22.5 63.666 22.5 108.999v370l-100 38v16h249v-16l-79 -39v-349c0 -62 -11.333 -112.5 -34 -151.5s-53.5 -67.833 -92.5 -86.5s-83.5 -28 -133.5 -28zM408.999 710.001l-124.999 88.999c-14.667 10.667 -23.834 21.334 -27.501 32.001s-5.5 21 -5.5 31h82l87 -152h-11z" />
    <glyph glyph-name="uni00DA" unicode="&#xda;" horiz-adv-x="809" 
d="M405 -10c-50 0 -94.501 9.33398 -133.501 28.001s-69.833 47.5 -92.5 86.5s-34 89.5 -34 151.5v348l-80 40v16h250v-16l-80 -40v-333c0 -55.333 8.66699 -99.333 26 -132s40.833 -56 70.5 -70s62.834 -21 99.501 -21c29.333 0 56.5 6.33301 81.5 19s45 32.667 60 60
s22.5 63.666 22.5 108.999v370l-100 38v16h249v-16l-79 -39v-349c0 -62 -11.333 -112.5 -34 -151.5s-53.5 -67.833 -92.5 -86.5s-83.5 -28 -133.5 -28zM409.999 710.001l87.001 152.001h82c0 -10 -1.83301 -20.333 -5.5 -31s-12.834 -21.334 -27.501 -32.001l-125 -89h-11z
" />
    <glyph glyph-name="uni00DB" unicode="&#xdb;" horiz-adv-x="809" 
d="M405 -10c-50 0 -94.501 9.33398 -133.501 28.001s-69.833 47.5 -92.5 86.5s-34 89.5 -34 151.5v348l-80 40v16h250v-16l-80 -40v-333c0 -55.333 8.66699 -99.333 26 -132s40.833 -56 70.5 -70s62.834 -21 99.501 -21c29.333 0 56.5 6.33301 81.5 19s45 32.667 60 60
s22.5 63.666 22.5 108.999v370l-100 38v16h249v-16l-79 -39v-349c0 -62 -11.333 -112.5 -34 -151.5s-53.5 -67.833 -92.5 -86.5s-83.5 -28 -133.5 -28zM267.999 710.001l132 152h30l132 -152h-11l-136 75l-136 -75h-11z" />
    <glyph glyph-name="uni00DC" unicode="&#xdc;" horiz-adv-x="809" 
d="M405 -10c-50 0 -94.501 9.33398 -133.501 28.001s-69.833 47.5 -92.5 86.5s-34 89.5 -34 151.5v348l-80 40v16h250v-16l-80 -40v-333c0 -55.333 8.66699 -99.333 26 -132s40.833 -56 70.5 -70s62.834 -21 99.501 -21c29.333 0 56.5 6.33301 81.5 19s45 32.667 60 60
s22.5 63.666 22.5 108.999v370l-100 38v16h249v-16l-79 -39v-349c0 -62 -11.333 -112.5 -34 -151.5s-53.5 -67.833 -92.5 -86.5s-83.5 -28 -133.5 -28zM322.999 737.001c-14 0 -25.667 4.66699 -35 14s-14 21 -14 35s4.66699 25.667 14 35s21 14 35 14
s25.667 -4.66699 35 -14s14 -21 14 -35s-4.66699 -25.667 -14 -35s-21 -14 -35 -14zM506.999 737.001c-14 0 -25.667 4.66699 -35 14s-14 21 -14 35s4.66699 25.667 14 35s21 14 35 14s25.667 -4.66699 35 -14s14 -21 14 -35s-4.66699 -25.667 -14 -35s-21 -14 -35 -14z" />
    <glyph glyph-name="uni00DD" unicode="&#xdd;" horiz-adv-x="718" 
d="M228 0v16l90 40v252l-222 303l-61 33v16h242v-16l-73 -35v-4l179 -243l161 242v4l-73 36v16h212v-16l-64 -33l-211 -302v-253l90 -40v-16h-270zM369 710l87.001 152.001h82c0 -10 -1.83301 -20.333 -5.5 -31s-12.834 -21.334 -27.501 -32.001l-125 -89h-11z" />
    <glyph glyph-name="uni00DE" unicode="&#xde;" horiz-adv-x="638" 
d="M65 0l-0.000976562 16l80 40v548l-80 40v16h250v-16l-80 -40v-64h90c78.667 0 141.834 -14.333 189.501 -43s71.5 -74 71.5 -136c0 -36.667 -12.5 -69.167 -37.5 -97.5s-59 -50.833 -102 -67.5s-91.5 -25 -145.5 -25h-66v-115l80 -40v-16h-250zM312.999 485
l-78 -0.000976562v-259h85c52.667 0 94 11.833 124 35.5s45 54.167 45 91.5c0 46.667 -15.167 80.334 -45.5 101.001s-73.833 31 -130.5 31z" />
    <glyph glyph-name="uni00DF" unicode="&#xdf;" horiz-adv-x="603" 
d="M64 0v16l63 32v355h-78v47h78v30c0 34 5.33301 67 16 99s25.834 61 45.501 87s43.834 46.5 72.501 61.5s61 22.5 97 22.5c51.333 0 91.666 -12.5 120.999 -37.5s44 -54.833 44 -89.5c0 -20.667 -4.16699 -39.334 -12.5 -56.001s-18.833 -32.334 -31.5 -47.001l-38 -44
c-12.667 -14.667 -23.167 -30.167 -31.5 -46.5s-12.5 -34.833 -12.5 -55.5c0 -13.333 3.5 -25 10.5 -35s17.5 -20.5 31.5 -31.5l54 -42.5c33.333 -26.667 56.666 -50.167 69.999 -70.5s20 -43.833 20 -70.5c0 -24.667 -6.83301 -47.167 -20.5 -67.5
s-31.834 -36.5 -54.501 -48.5s-47 -18 -73 -18c-31.333 0 -58 2.66699 -80 8s-44.667 14 -68 26v112h14l32 -55c10 -17.333 22.667 -30.833 38 -40.5s34 -14.5 56 -14.5c24.667 0 45.167 6.33301 61.5 19s24.5 31.334 24.5 56.001c0 27.333 -10.5 49.833 -31.5 67.5
s-46.833 37.5 -77.5 59.5c-22.667 16.667 -42.167 33.667 -58.5 51s-24.5 41.333 -24.5 72c0 18.667 4.16699 35 12.5 49s18.833 27.667 31.5 41s25.334 27.5 38.001 42.5s23.167 32.5 31.5 52.5s12.5 44 12.5 72c0 28.667 -9.83301 52.834 -29.5 72.501
s-47.5 29.5 -83.5 29.5c-46 0 -78.667 -14.667 -98 -44s-29 -67.333 -29 -114v-552h-143z" />
    <glyph glyph-name="uni00E0" unicode="&#xe0;" horiz-adv-x="489" 
d="M156 -10c-31.333 0 -57.3311 9.16895 -77.998 27.502s-31 43.833 -31 76.5s12.167 61 36.5 85s65.166 42.667 122.499 56l95 22v73c0 22.667 -9.16699 42.167 -27.5 58.5s-39.166 24.5 -62.499 24.5c-25.333 0 -43 -6.83301 -53 -20.5s-15 -31.834 -15 -54.501v-28l-5 -5
h-52c-10 0 -16.833 1.66699 -20.5 5s-5.5 11 -5.5 23c0 14.667 4.33301 29.667 13 45s22 28.666 40 39.999c18.667 12 38.167 22 58.5 30s42.166 12 65.499 12s46.166 -3.33301 68.499 -10s40.5 -17.834 54.5 -33.501s21 -37.5 21 -65.5v-284
c4.66699 -4.66699 11.334 -8.66699 20.001 -12s20.667 -5 36 -5h38l3 -2v-3c-8 -14.667 -19.833 -27.5 -35.5 -38.5s-34.834 -16.5 -57.501 -16.5c-20.667 0 -37.5 5.5 -50.5 16.5s-22.167 25.5 -27.5 43.5h-6c-17.333 -17.333 -38.833 -31.666 -64.5 -42.999
s-52.5 -17 -80.5 -17zM125.002 114.002c0 -41.333 25 -62 75 -62c16 0 31.833 1.66699 47.5 5s33.5 9.33301 53.5 18v148c-53.333 -10 -92.333 -20.5 -117 -31.5s-40.667 -22.833 -48 -35.5s-11 -26.667 -11 -42zM220.002 530.002l-125.001 114
c-13.333 12 -22.166 23 -26.499 33s-6.5 20 -6.5 30h82l87 -177h-11z" />
    <glyph glyph-name="uni00E1" unicode="&#xe1;" horiz-adv-x="489" 
d="M156 -10c-31.333 0 -57.3311 9.16895 -77.998 27.502s-31 43.833 -31 76.5s12.167 61 36.5 85s65.166 42.667 122.499 56l95 22v73c0 22.667 -9.16699 42.167 -27.5 58.5s-39.166 24.5 -62.499 24.5c-25.333 0 -43 -6.83301 -53 -20.5s-15 -31.834 -15 -54.501v-28l-5 -5
h-52c-10 0 -16.833 1.66699 -20.5 5s-5.5 11 -5.5 23c0 14.667 4.33301 29.667 13 45s22 28.666 40 39.999c18.667 12 38.167 22 58.5 30s42.166 12 65.499 12s46.166 -3.33301 68.499 -10s40.5 -17.834 54.5 -33.501s21 -37.5 21 -65.5v-284
c4.66699 -4.66699 11.334 -8.66699 20.001 -12s20.667 -5 36 -5h38l3 -2v-3c-8 -14.667 -19.833 -27.5 -35.5 -38.5s-34.834 -16.5 -57.501 -16.5c-20.667 0 -37.5 5.5 -50.5 16.5s-22.167 25.5 -27.5 43.5h-6c-17.333 -17.333 -38.833 -31.666 -64.5 -42.999
s-52.5 -17 -80.5 -17zM125.002 114.002c0 -41.333 25 -62 75 -62c16 0 31.833 1.66699 47.5 5s33.5 9.33301 53.5 18v148c-53.333 -10 -92.333 -20.5 -117 -31.5s-40.667 -22.833 -48 -35.5s-11 -26.667 -11 -42zM225.002 530.002l86.999 177h82
c0 -10 -2.16699 -20 -6.5 -30s-13.166 -21 -26.499 -33l-125 -114h-11z" />
    <glyph glyph-name="uni00E2" unicode="&#xe2;" horiz-adv-x="489" 
d="M156 -10c-31.333 0 -57.3311 9.16895 -77.998 27.502s-31 43.833 -31 76.5s12.167 61 36.5 85s65.166 42.667 122.499 56l95 22v73c0 22.667 -9.16699 42.167 -27.5 58.5s-39.166 24.5 -62.499 24.5c-25.333 0 -43 -6.83301 -53 -20.5s-15 -31.834 -15 -54.501v-28l-5 -5
h-52c-10 0 -16.833 1.66699 -20.5 5s-5.5 11 -5.5 23c0 14.667 4.33301 29.667 13 45s22 28.666 40 39.999c18.667 12 38.167 22 58.5 30s42.166 12 65.499 12s46.166 -3.33301 68.499 -10s40.5 -17.834 54.5 -33.501s21 -37.5 21 -65.5v-284
c4.66699 -4.66699 11.334 -8.66699 20.001 -12s20.667 -5 36 -5h38l3 -2v-3c-8 -14.667 -19.833 -27.5 -35.5 -38.5s-34.834 -16.5 -57.501 -16.5c-20.667 0 -37.5 5.5 -50.5 16.5s-22.167 25.5 -27.5 43.5h-6c-17.333 -17.333 -38.833 -31.666 -64.5 -42.999
s-52.5 -17 -80.5 -17zM125.002 114.002c0 -41.333 25 -62 75 -62c16 0 31.833 1.66699 47.5 5s33.5 9.33301 53.5 18v148c-53.333 -10 -92.333 -20.5 -117 -31.5s-40.667 -22.833 -48 -35.5s-11 -26.667 -11 -42zM78.002 530.002l132 177h30l132 -177h-11l-136 95l-136 -95
h-11z" />
    <glyph glyph-name="uni00E3" unicode="&#xe3;" horiz-adv-x="489" 
d="M156 -10c-31.333 0 -57.3311 9.16895 -77.998 27.502s-31 43.833 -31 76.5s12.167 61 36.5 85s65.166 42.667 122.499 56l95 22v73c0 22.667 -9.16699 42.167 -27.5 58.5s-39.166 24.5 -62.499 24.5c-25.333 0 -43 -6.83301 -53 -20.5s-15 -31.834 -15 -54.501v-28l-5 -5
h-52c-10 0 -16.833 1.66699 -20.5 5s-5.5 11 -5.5 23c0 14.667 4.33301 29.667 13 45s22 28.666 40 39.999c18.667 12 38.167 22 58.5 30s42.166 12 65.499 12s46.166 -3.33301 68.499 -10s40.5 -17.834 54.5 -33.501s21 -37.5 21 -65.5v-284
c4.66699 -4.66699 11.334 -8.66699 20.001 -12s20.667 -5 36 -5h38l3 -2v-3c-8 -14.667 -19.833 -27.5 -35.5 -38.5s-34.834 -16.5 -57.501 -16.5c-20.667 0 -37.5 5.5 -50.5 16.5s-22.167 25.5 -27.5 43.5h-6c-17.333 -17.333 -38.833 -31.666 -64.5 -42.999
s-52.5 -17 -80.5 -17zM125.002 114.002c0 -41.333 25 -62 75 -62c16 0 31.833 1.66699 47.5 5s33.5 9.33301 53.5 18v148c-53.333 -10 -92.333 -20.5 -117 -31.5s-40.667 -22.833 -48 -35.5s-11 -26.667 -11 -42zM73.002 556.002c12 36 22.667 62.833 32 80.5
s19 29.334 29 35.001s21.333 8.5 34 8.5s24.834 -3.33301 36.501 -10s22.834 -14.167 33.501 -22.5s21.167 -15.833 31.5 -22.5s21.166 -10 32.499 -10c12.667 0 23.5 4.5 32.5 13.5s18.833 26.167 29.5 51.5h13c-12 -36 -22.667 -62.833 -32 -80.5s-19 -29.334 -29 -35.001
s-21.333 -8.5 -34 -8.5s-24.834 3.33301 -36.501 10s-22.834 14.167 -33.501 22.5s-21.167 15.833 -31.5 22.5s-21.166 10 -32.499 10c-12.667 0 -23.5 -4.5 -32.5 -13.5s-18.833 -26.167 -29.5 -51.5h-13z" />
    <glyph glyph-name="uni00E4" unicode="&#xe4;" horiz-adv-x="489" 
d="M156 -10c-31.333 0 -57.3311 9.16895 -77.998 27.502s-31 43.833 -31 76.5s12.167 61 36.5 85s65.166 42.667 122.499 56l95 22v73c0 22.667 -9.16699 42.167 -27.5 58.5s-39.166 24.5 -62.499 24.5c-25.333 0 -43 -6.83301 -53 -20.5s-15 -31.834 -15 -54.501v-28l-5 -5
h-52c-10 0 -16.833 1.66699 -20.5 5s-5.5 11 -5.5 23c0 14.667 4.33301 29.667 13 45s22 28.666 40 39.999c18.667 12 38.167 22 58.5 30s42.166 12 65.499 12s46.166 -3.33301 68.499 -10s40.5 -17.834 54.5 -33.501s21 -37.5 21 -65.5v-284
c4.66699 -4.66699 11.334 -8.66699 20.001 -12s20.667 -5 36 -5h38l3 -2v-3c-8 -14.667 -19.833 -27.5 -35.5 -38.5s-34.834 -16.5 -57.501 -16.5c-20.667 0 -37.5 5.5 -50.5 16.5s-22.167 25.5 -27.5 43.5h-6c-17.333 -17.333 -38.833 -31.666 -64.5 -42.999
s-52.5 -17 -80.5 -17zM125.002 114.002c0 -41.333 25 -62 75 -62c16 0 31.833 1.66699 47.5 5s33.5 9.33301 53.5 18v148c-53.333 -10 -92.333 -20.5 -117 -31.5s-40.667 -22.833 -48 -35.5s-11 -26.667 -11 -42zM133.002 568.002c-14 0 -25.667 4.66699 -35 14
s-14 21 -14 35s4.66699 25.667 14 35s21 14 35 14s25.667 -4.66699 35 -14s14 -21 14 -35s-4.66699 -25.667 -14 -35s-21 -14 -35 -14zM317.002 568.002c-14 0 -25.667 4.66699 -35 14s-14 21 -14 35s4.66699 25.667 14 35s21 14 35 14s25.667 -4.66699 35 -14
s14 -21 14 -35s-4.66699 -25.667 -14 -35s-21 -14 -35 -14z" />
    <glyph glyph-name="uni00E5" unicode="&#xe5;" horiz-adv-x="489" 
d="M156 -10c-31.333 0 -57.3311 9.16895 -77.998 27.502s-31 43.833 -31 76.5s12.167 61 36.5 85s65.166 42.667 122.499 56l95 22v73c0 22.667 -9.16699 42.167 -27.5 58.5s-39.166 24.5 -62.499 24.5c-25.333 0 -43 -6.83301 -53 -20.5s-15 -31.834 -15 -54.501v-28l-5 -5
h-52c-10 0 -16.833 1.66699 -20.5 5s-5.5 11 -5.5 23c0 14.667 4.33301 29.667 13 45s22 28.666 40 39.999c18.667 12 38.167 22 58.5 30s42.166 12 65.499 12s46.166 -3.33301 68.499 -10s40.5 -17.834 54.5 -33.501s21 -37.5 21 -65.5v-284
c4.66699 -4.66699 11.334 -8.66699 20.001 -12s20.667 -5 36 -5h38l3 -2v-3c-8 -14.667 -19.833 -27.5 -35.5 -38.5s-34.834 -16.5 -57.501 -16.5c-20.667 0 -37.5 5.5 -50.5 16.5s-22.167 25.5 -27.5 43.5h-6c-17.333 -17.333 -38.833 -31.666 -64.5 -42.999
s-52.5 -17 -80.5 -17zM125.002 114.002c0 -41.333 25 -62 75 -62c16 0 31.833 1.66699 47.5 5s33.5 9.33301 53.5 18v148c-53.333 -10 -92.333 -20.5 -117 -31.5s-40.667 -22.833 -48 -35.5s-11 -26.667 -11 -42zM225.002 701.002c26 0 46.833 -8 62.5 -24
s23.5 -35.667 23.5 -59c0 -24 -7.83301 -43.833 -23.5 -59.5s-36.5 -23.5 -62.5 -23.5c-25.333 0 -46 7.83301 -62 23.5s-24 35.5 -24 59.5c0 23.333 8 43 24 59s36.667 24 62 24zM221.002 677.002c-10.667 0 -18.667 -4 -24 -12s-8 -21.333 -8 -40c0 -44 13.667 -66 41 -66
c22 0 33 17.333 33 52c0 44 -14 66 -42 66z" />
    <glyph glyph-name="uni00E6" unicode="&#xe6;" horiz-adv-x="737" 
d="M157 -10c-31.333 0 -57.3369 9.17188 -78.0039 27.5049s-31 43.833 -31 76.5s12.167 61 36.5 85s65.166 42.667 122.499 56l95 22v73c0 22.667 -9.33301 42.167 -28 58.5s-39.334 24.5 -62.001 24.5c-25.333 0 -43 -6.83301 -53 -20.5s-15 -31.834 -15 -54.501v-28l-5 -5
h-52c-10 0 -16.833 1.66699 -20.5 5s-5.5 11 -5.5 23c0 14.667 4.33301 29.667 13 45s22 28.666 40 39.999c18.667 12 38.334 22 59.001 30s42.334 12 65.001 12c28 0 55 -4.66699 81 -14s44.333 -26.333 55 -51c18.667 20.667 40.334 36.667 65.001 48s50.334 17 77.001 17
c52.667 0 94.167 -18.333 124.5 -55s45.5 -89.334 45.5 -158.001l-5 -5h-299c0.666992 -30.667 6.66699 -59.5 18 -86.5s29.5 -48.833 54.5 -65.5s58.5 -25 100.5 -25c36.667 0 79.667 13.333 129 40h3v-10c-15.333 -28.667 -38.166 -53.334 -68.499 -74.001
s-65.833 -31 -106.5 -31c-37.333 0 -70.666 7 -99.999 21s-53 34 -71 60h-5c-18.667 -22.667 -43.5 -41.834 -74.5 -57.501s-65.833 -23.5 -104.5 -23.5zM499.996 416.005c-32 0 -58.1689 -11.167 -78.502 -33.5s-32.833 -53.833 -37.5 -94.5h226
c-7.33301 45.333 -20.166 78 -38.499 98s-42.166 30 -71.499 30zM125.994 114.005c0 -41.333 25.002 -62 75.002 -62c23.333 0 45.166 3.33301 65.499 10s41.166 15.667 62.499 27c-18 34 -27 73.333 -27 118v16c-53.333 -10 -92.333 -20.5 -117 -31.5
s-40.667 -22.833 -48 -35.5s-11 -26.667 -11 -42z" />
    <glyph glyph-name="uni00E7" unicode="&#xe7;" horiz-adv-x="479" 
d="M243 -210c20 0 34.001 3.83398 42.001 11.501s12 16.834 12 27.501c0 14.667 -7 26.5 -21 35.5s-40.667 19.833 -80 32.5l43 94c-58.667 4 -104.834 25.333 -138.501 64s-50.5 88.667 -50.5 150c0 50 10.167 94.167 30.5 132.5s47.833 68.333 82.5 90
s73.667 32.5 117 32.5c26.667 0 52.667 -4.5 78 -13.5s44.666 -20.833 57.999 -35.5c10.667 -12.667 16 -22.667 16 -30c0 -9.33301 -4.33301 -17.333 -13 -24l-38 -32h-7l-34 46c-10 13.333 -22.5 24.166 -37.5 32.499s-33.5 12.5 -55.5 12.5
c-36.667 0 -65.5 -14.5 -86.5 -43.5s-31.5 -69.5 -31.5 -121.5c0 -32 5.33301 -62.167 16 -90.5s28.5 -51.333 53.5 -69s59.5 -26.5 103.5 -26.5c36.667 0 79.667 13.333 129 40h3v-10c-14.667 -27.333 -35.667 -50.833 -63 -70.5s-59.666 -30.834 -96.999 -33.501l-20 -46
c38 -12 64.667 -25 80 -39s23 -34.333 23 -61c0 -24 -8.33301 -44.167 -25 -60.5s-40.667 -24.5 -72 -24.5c-38 0 -65.667 10 -83 30v12h3c9.33301 -4 18.833 -7 28.5 -9s21.167 -3 34.5 -3z" />
    <glyph glyph-name="uni00E8" unicode="&#xe8;" horiz-adv-x="484" 
d="M259 -10c-64.667 0 -115.668 19.6689 -153.001 59.002s-56 91.333 -56 156c0 50 9.83301 94.167 29.5 132.5s45.667 68.333 78 90s67.5 32.5 105.5 32.5c52.667 0 94.167 -18.333 124.5 -55s45.5 -89.334 45.5 -158.001l-5 -5h-299
c0.666992 -30.667 6.66699 -59.5 18 -86.5s29.5 -48.833 54.5 -65.5s58.5 -25 100.5 -25c36.667 0 79.667 13.333 129 40h3v-10c-15.333 -28.667 -38.166 -53.334 -68.499 -74.001s-65.833 -31 -106.5 -31zM246.999 416.002c-32 0 -58.1689 -11.167 -78.502 -33.5
s-32.833 -53.833 -37.5 -94.5h226c-7.33301 45.333 -20.166 78 -38.499 98s-42.166 30 -71.499 30zM254.997 530.002l-125.001 114c-13.333 12 -22.166 23 -26.499 33s-6.5 20 -6.5 30h82l87 -177h-11z" />
    <glyph glyph-name="uni00E9" unicode="&#xe9;" horiz-adv-x="484" 
d="M259 -10c-64.667 0 -115.668 19.6689 -153.001 59.002s-56 91.333 -56 156c0 50 9.83301 94.167 29.5 132.5s45.667 68.333 78 90s67.5 32.5 105.5 32.5c52.667 0 94.167 -18.333 124.5 -55s45.5 -89.334 45.5 -158.001l-5 -5h-299
c0.666992 -30.667 6.66699 -59.5 18 -86.5s29.5 -48.833 54.5 -65.5s58.5 -25 100.5 -25c36.667 0 79.667 13.333 129 40h3v-10c-15.333 -28.667 -38.166 -53.334 -68.499 -74.001s-65.833 -31 -106.5 -31zM246.999 416.002c-32 0 -58.1689 -11.167 -78.502 -33.5
s-32.833 -53.833 -37.5 -94.5h226c-7.33301 45.333 -20.166 78 -38.499 98s-42.166 30 -71.499 30zM259.997 530.002l86.999 177h82c0 -10 -2.16699 -20 -6.5 -30s-13.166 -21 -26.499 -33l-125 -114h-11z" />
    <glyph glyph-name="uni00EA" unicode="&#xea;" horiz-adv-x="484" 
d="M259 -10c-64.667 0 -115.668 19.6689 -153.001 59.002s-56 91.333 -56 156c0 50 9.83301 94.167 29.5 132.5s45.667 68.333 78 90s67.5 32.5 105.5 32.5c52.667 0 94.167 -18.333 124.5 -55s45.5 -89.334 45.5 -158.001l-5 -5h-299
c0.666992 -30.667 6.66699 -59.5 18 -86.5s29.5 -48.833 54.5 -65.5s58.5 -25 100.5 -25c36.667 0 79.667 13.333 129 40h3v-10c-15.333 -28.667 -38.166 -53.334 -68.499 -74.001s-65.833 -31 -106.5 -31zM246.999 416.002c-32 0 -58.1689 -11.167 -78.502 -33.5
s-32.833 -53.833 -37.5 -94.5h226c-7.33301 45.333 -20.166 78 -38.499 98s-42.166 30 -71.499 30zM112.997 530.002l132 177h30l132 -177h-11l-136 95l-136 -95h-11z" />
    <glyph glyph-name="uni00EB" unicode="&#xeb;" horiz-adv-x="484" 
d="M259 -10c-64.667 0 -115.668 19.6689 -153.001 59.002s-56 91.333 -56 156c0 50 9.83301 94.167 29.5 132.5s45.667 68.333 78 90s67.5 32.5 105.5 32.5c52.667 0 94.167 -18.333 124.5 -55s45.5 -89.334 45.5 -158.001l-5 -5h-299
c0.666992 -30.667 6.66699 -59.5 18 -86.5s29.5 -48.833 54.5 -65.5s58.5 -25 100.5 -25c36.667 0 79.667 13.333 129 40h3v-10c-15.333 -28.667 -38.166 -53.334 -68.499 -74.001s-65.833 -31 -106.5 -31zM246.999 416.002c-32 0 -58.1689 -11.167 -78.502 -33.5
s-32.833 -53.833 -37.5 -94.5h226c-7.33301 45.333 -20.166 78 -38.499 98s-42.166 30 -71.499 30zM167.997 568.002c-14 0 -25.667 4.66699 -35 14s-14 21 -14 35s4.66699 25.667 14 35s21 14 35 14s25.667 -4.66699 35 -14s14 -21 14 -35s-4.66699 -25.667 -14 -35
s-21 -14 -35 -14zM351.997 568.002c-14 0 -25.667 4.66699 -35 14s-14 21 -14 35s4.66699 25.667 14 35s21 14 35 14s25.667 -4.66699 35 -14s14 -21 14 -35s-4.66699 -25.667 -14 -35s-21 -14 -35 -14z" />
    <glyph glyph-name="uni00EC" unicode="&#xec;" horiz-adv-x="313" 
d="M54 0v16l63 32v298l-60 52v7l134 55h6v-412l63 -32v-16h-206zM152 530l-125.001 114c-13.333 12 -22.166 23 -26.499 33s-6.5 20 -6.5 30h82l87 -177h-11z" />
    <glyph glyph-name="uni00ED" unicode="&#xed;" horiz-adv-x="313" 
d="M54 0v16l63 32v298l-60 52v7l134 55h6v-412l63 -32v-16h-206zM157 530l86.999 177h82c0 -10 -2.16699 -20 -6.5 -30s-13.166 -21 -26.499 -33l-125 -114h-11z" />
    <glyph glyph-name="uni00EE" unicode="&#xee;" horiz-adv-x="313" 
d="M54 0v16l63 32v298l-60 52v7l134 55h6v-412l63 -32v-16h-206zM10 530l132 177h30l132 -177h-11l-136 95l-136 -95h-11z" />
    <glyph glyph-name="uni00EF" unicode="&#xef;" horiz-adv-x="313" 
d="M54 0v16l63 32v298l-60 52v7l134 55h6v-412l63 -32v-16h-206zM65 568c-14 0 -25.667 4.66699 -35 14s-14 21 -14 35s4.66699 25.667 14 35s21 14 35 14s25.667 -4.66699 35 -14s14 -21 14 -35s-4.66699 -25.667 -14 -35s-21 -14 -35 -14zM249 568
c-14 0 -25.667 4.66699 -35 14s-14 21 -14 35s4.66699 25.667 14 35s21 14 35 14s25.667 -4.66699 35 -14s14 -21 14 -35s-4.66699 -25.667 -14 -35s-21 -14 -35 -14z" />
    <glyph glyph-name="uni00F0" unicode="&#xf0;" horiz-adv-x="545" 
d="M270 -10c-44 0 -82.499 10.166 -115.499 30.499s-58.667 47.5 -77 81.5s-27.5 71.667 -27.5 113c0 54 11 99.167 33 135.5s51 63.666 87 81.999s75.667 27.5 119 27.5c17.333 0 32.833 -0.666992 46.5 -2s25.834 -3.33301 36.501 -6
c-20 56.667 -48.667 106.334 -86 149.001l-79 -78h-69l114 112c-40.667 35.333 -87.334 62.333 -140.001 81v33c63.333 -20 120.333 -47.667 171 -83l77 75h69l-107 -105c54.667 -46.667 97.167 -102.167 127.5 -166.5s45.5 -134.5 45.5 -210.5
c0 -52 -9.33301 -98.167 -28 -138.5s-44.834 -72.166 -78.501 -95.499s-73.167 -35 -118.5 -35zM140.001 225.999c0 -21.333 2.66797 -43.167 8.00098 -65.5s13.666 -43.166 24.999 -62.499s25.833 -35 43.5 -47s38.834 -18 63.501 -18c33.333 0 62 18.167 86 54.5
s36 95.166 36 176.499c0 32 -2.33301 63.333 -7 94c-18 17.333 -36.5 30.5 -55.5 39.5s-40.167 13.5 -63.5 13.5c-24 0 -46.333 -5.5 -67 -16.5s-37.334 -30 -50.001 -57s-19 -64.167 -19 -111.5z" />
    <glyph glyph-name="uni00F1" unicode="&#xf1;" horiz-adv-x="582" 
d="M48 0l-0.000976562 16.002l63 32v298l-60 52v7l124 55h6l9 -74h5c25.333 25.333 49.833 44 73.5 56s49.834 18 78.501 18c39.333 0 71.5 -9.83301 96.5 -29.5s37.5 -48.834 37.5 -87.501v-295l63 -32v-16h-214v16l71 32v248c0 29.333 -9.16699 51.666 -27.5 66.999
s-42.166 23 -71.499 23c-18 0 -37.833 -3 -59.5 -9s-38.834 -14.667 -51.501 -26v-303l71 -32v-16h-214zM143.999 556.002c12 36 22.667 62.833 32 80.5s19 29.334 29 35.001s21.333 8.5 34 8.5s24.834 -3.33301 36.501 -10s22.834 -14.167 33.501 -22.5
s21.167 -15.833 31.5 -22.5s21.166 -10 32.499 -10c12.667 0 23.5 4.5 32.5 13.5s18.833 26.167 29.5 51.5h13c-12 -36 -22.667 -62.833 -32 -80.5s-19 -29.334 -29 -35.001s-21.333 -8.5 -34 -8.5s-24.834 3.33301 -36.501 10s-22.834 14.167 -33.501 22.5
s-21.167 15.833 -31.5 22.5s-21.166 10 -32.499 10c-12.667 0 -23.5 -4.5 -32.5 -13.5s-18.833 -26.167 -29.5 -51.5h-13z" />
    <glyph glyph-name="uni00F2" unicode="&#xf2;" horiz-adv-x="540" 
d="M270 -10c-44 0 -82.5 10.333 -115.5 31s-58.667 48.667 -77 84s-27.5 75.333 -27.5 120s9.16699 84.667 27.5 120s44 63.333 77 84s71.5 31 115.5 31s82.5 -10.333 115.5 -31s58.667 -48.667 77 -84s27.5 -75.333 27.5 -120s-9.16699 -84.667 -27.5 -120
s-44 -63.333 -77 -84s-71.5 -31 -115.5 -31zM284 33c26.667 0 48.666 8.33301 65.999 25s30 38.167 38 64.5s12 53.833 12 82.5c0 35.333 -4.83301 69.333 -14.5 102s-25 59.334 -46 80.001s-48.167 31 -81.5 31c-27.333 0 -49.666 -8.33301 -66.999 -25
s-30.166 -38 -38.499 -64s-12.5 -53.667 -12.5 -83c0 -35.333 5 -69.333 15 -102s25.667 -59.334 47 -80.001s48.666 -31 81.999 -31zM261.999 530l-125.001 114c-13.333 12 -22.166 23 -26.499 33s-6.5 20 -6.5 30h82l87 -177h-11z" />
    <glyph glyph-name="uni00F3" unicode="&#xf3;" horiz-adv-x="540" 
d="M270 -10c-44 0 -82.5 10.333 -115.5 31s-58.667 48.667 -77 84s-27.5 75.333 -27.5 120s9.16699 84.667 27.5 120s44 63.333 77 84s71.5 31 115.5 31s82.5 -10.333 115.5 -31s58.667 -48.667 77 -84s27.5 -75.333 27.5 -120s-9.16699 -84.667 -27.5 -120
s-44 -63.333 -77 -84s-71.5 -31 -115.5 -31zM284 33c26.667 0 48.666 8.33301 65.999 25s30 38.167 38 64.5s12 53.833 12 82.5c0 35.333 -4.83301 69.333 -14.5 102s-25 59.334 -46 80.001s-48.167 31 -81.5 31c-27.333 0 -49.666 -8.33301 -66.999 -25
s-30.166 -38 -38.499 -64s-12.5 -53.667 -12.5 -83c0 -35.333 5 -69.333 15 -102s25.667 -59.334 47 -80.001s48.666 -31 81.999 -31zM266.999 530l86.999 177h82c0 -10 -2.16699 -20 -6.5 -30s-13.166 -21 -26.499 -33l-125 -114h-11z" />
    <glyph glyph-name="uni00F4" unicode="&#xf4;" horiz-adv-x="540" 
d="M270 -10c-44 0 -82.5 10.333 -115.5 31s-58.667 48.667 -77 84s-27.5 75.333 -27.5 120s9.16699 84.667 27.5 120s44 63.333 77 84s71.5 31 115.5 31s82.5 -10.333 115.5 -31s58.667 -48.667 77 -84s27.5 -75.333 27.5 -120s-9.16699 -84.667 -27.5 -120
s-44 -63.333 -77 -84s-71.5 -31 -115.5 -31zM284 33c26.667 0 48.666 8.33301 65.999 25s30 38.167 38 64.5s12 53.833 12 82.5c0 35.333 -4.83301 69.333 -14.5 102s-25 59.334 -46 80.001s-48.167 31 -81.5 31c-27.333 0 -49.666 -8.33301 -66.999 -25
s-30.166 -38 -38.499 -64s-12.5 -53.667 -12.5 -83c0 -35.333 5 -69.333 15 -102s25.667 -59.334 47 -80.001s48.666 -31 81.999 -31zM119.999 530l132 177h30l132 -177h-11l-136 95l-136 -95h-11z" />
    <glyph glyph-name="uni00F5" unicode="&#xf5;" horiz-adv-x="540" 
d="M270 -10c-44 0 -82.5 10.333 -115.5 31s-58.667 48.667 -77 84s-27.5 75.333 -27.5 120s9.16699 84.667 27.5 120s44 63.333 77 84s71.5 31 115.5 31s82.5 -10.333 115.5 -31s58.667 -48.667 77 -84s27.5 -75.333 27.5 -120s-9.16699 -84.667 -27.5 -120
s-44 -63.333 -77 -84s-71.5 -31 -115.5 -31zM284 33c26.667 0 48.666 8.33301 65.999 25s30 38.167 38 64.5s12 53.833 12 82.5c0 35.333 -4.83301 69.333 -14.5 102s-25 59.334 -46 80.001s-48.167 31 -81.5 31c-27.333 0 -49.666 -8.33301 -66.999 -25
s-30.166 -38 -38.499 -64s-12.5 -53.667 -12.5 -83c0 -35.333 5 -69.333 15 -102s25.667 -59.334 47 -80.001s48.666 -31 81.999 -31zM114.999 556c12 36 22.667 62.833 32 80.5s19 29.334 29 35.001s21.333 8.5 34 8.5s24.834 -3.33301 36.501 -10
s22.834 -14.167 33.501 -22.5s21.167 -15.833 31.5 -22.5s21.166 -10 32.499 -10c12.667 0 23.5 4.5 32.5 13.5s18.833 26.167 29.5 51.5h13c-12 -36 -22.667 -62.833 -32 -80.5s-19 -29.334 -29 -35.001s-21.333 -8.5 -34 -8.5s-24.834 3.33301 -36.501 10
s-22.834 14.167 -33.501 22.5s-21.167 15.833 -31.5 22.5s-21.166 10 -32.499 10c-12.667 0 -23.5 -4.5 -32.5 -13.5s-18.833 -26.167 -29.5 -51.5h-13z" />
    <glyph glyph-name="uni00F6" unicode="&#xf6;" horiz-adv-x="540" 
d="M270 -10c-44 0 -82.5 10.333 -115.5 31s-58.667 48.667 -77 84s-27.5 75.333 -27.5 120s9.16699 84.667 27.5 120s44 63.333 77 84s71.5 31 115.5 31s82.5 -10.333 115.5 -31s58.667 -48.667 77 -84s27.5 -75.333 27.5 -120s-9.16699 -84.667 -27.5 -120
s-44 -63.333 -77 -84s-71.5 -31 -115.5 -31zM284 33c26.667 0 48.666 8.33301 65.999 25s30 38.167 38 64.5s12 53.833 12 82.5c0 35.333 -4.83301 69.333 -14.5 102s-25 59.334 -46 80.001s-48.167 31 -81.5 31c-27.333 0 -49.666 -8.33301 -66.999 -25
s-30.166 -38 -38.499 -64s-12.5 -53.667 -12.5 -83c0 -35.333 5 -69.333 15 -102s25.667 -59.334 47 -80.001s48.666 -31 81.999 -31zM174.999 568c-14 0 -25.667 4.66699 -35 14s-14 21 -14 35s4.66699 25.667 14 35s21 14 35 14s25.667 -4.66699 35 -14s14 -21 14 -35
s-4.66699 -25.667 -14 -35s-21 -14 -35 -14zM358.999 568c-14 0 -25.667 4.66699 -35 14s-14 21 -14 35s4.66699 25.667 14 35s21 14 35 14s25.667 -4.66699 35 -14s14 -21 14 -35s-4.66699 -25.667 -14 -35s-21 -14 -35 -14z" />
    <glyph glyph-name="uni00F7" unicode="&#xf7;" 
d="M218 418v64h64v-64h-64zM40 247v50h420v-50h-420zM218 62v64h64v-64h-64z" />
    <glyph glyph-name="uni00F8" unicode="&#xf8;" horiz-adv-x="540" 
d="M50 -10l57 72c-18 20.667 -32 44.834 -42 72.501s-15 57.834 -15 90.501c0 44.667 9.16699 84.667 27.5 120s44 63.333 77 84s71.5 31 115.5 31c24 0 46.5 -3.16699 67.5 -9.5s39.833 -15.5 56.5 -27.5l30 37h66l-57 -72c18 -20.667 32 -44.834 42 -72.501
s15 -57.834 15 -90.501c0 -44.667 -9.16699 -84.667 -27.5 -120s-44 -63.333 -77 -84s-71.5 -31 -115.5 -31c-24 0 -46.5 3.16699 -67.5 9.5s-39.833 15.5 -56.5 27.5l-30 -37h-66zM140 246c0 -20.667 1.66602 -41 4.99902 -61s8.33301 -38.667 15 -56l193 242
c-11.333 14.667 -24.833 26.167 -40.5 34.5s-33.834 12.5 -54.501 12.5c-27.333 0 -49.666 -8.33301 -66.999 -25s-30.166 -38 -38.499 -64s-12.5 -53.667 -12.5 -83zM283.999 33c26.667 0 48.667 8.33301 66 25s30 38.167 38 64.5s12 53.833 12 82.5
c0 20.667 -1.66699 41 -5 61s-8.33301 38.667 -15 56l-192 -242c11.333 -14.667 25 -26.167 41 -34.5s34.333 -12.5 55 -12.5z" />
    <glyph glyph-name="uni00F9" unicode="&#xf9;" horiz-adv-x="561" 
d="M225 -10c-39.333 0 -71.5 9.83105 -96.5 29.498s-37.5 48.834 -37.5 87.501v296l-63 31v16h143v-296c0 -29.333 9.16699 -51.666 27.5 -66.999s42.166 -23 71.499 -23c18 0 37.833 3 59.5 9s38.834 14.667 51.501 26v304l-71 31v16h151v-405l71 -29v-16h-151v63h-5
c-25.333 -25.333 -49.833 -43.833 -73.5 -55.5s-49.5 -17.5 -77.5 -17.5zM265 529.998l-125.001 114c-13.333 12 -22.166 23 -26.499 33s-6.5 20 -6.5 30h82l87 -177h-11z" />
    <glyph glyph-name="uni00FA" unicode="&#xfa;" horiz-adv-x="561" 
d="M225 -10c-39.333 0 -71.5 9.83105 -96.5 29.498s-37.5 48.834 -37.5 87.501v296l-63 31v16h143v-296c0 -29.333 9.16699 -51.666 27.5 -66.999s42.166 -23 71.499 -23c18 0 37.833 3 59.5 9s38.834 14.667 51.501 26v304l-71 31v16h151v-405l71 -29v-16h-151v63h-5
c-25.333 -25.333 -49.833 -43.833 -73.5 -55.5s-49.5 -17.5 -77.5 -17.5zM270 529.998l86.999 177h82c0 -10 -2.16699 -20 -6.5 -30s-13.166 -21 -26.499 -33l-125 -114h-11z" />
    <glyph glyph-name="uni00FB" unicode="&#xfb;" horiz-adv-x="561" 
d="M225 -10c-39.333 0 -71.5 9.83105 -96.5 29.498s-37.5 48.834 -37.5 87.501v296l-63 31v16h143v-296c0 -29.333 9.16699 -51.666 27.5 -66.999s42.166 -23 71.499 -23c18 0 37.833 3 59.5 9s38.834 14.667 51.501 26v304l-71 31v16h151v-405l71 -29v-16h-151v63h-5
c-25.333 -25.333 -49.833 -43.833 -73.5 -55.5s-49.5 -17.5 -77.5 -17.5zM123 529.998l132 177h30l132 -177h-11l-136 95l-136 -95h-11z" />
    <glyph glyph-name="uni00FC" unicode="&#xfc;" horiz-adv-x="561" 
d="M225 -10c-39.333 0 -71.5 9.83105 -96.5 29.498s-37.5 48.834 -37.5 87.501v296l-63 31v16h143v-296c0 -29.333 9.16699 -51.666 27.5 -66.999s42.166 -23 71.499 -23c18 0 37.833 3 59.5 9s38.834 14.667 51.501 26v304l-71 31v16h151v-405l71 -29v-16h-151v63h-5
c-25.333 -25.333 -49.833 -43.833 -73.5 -55.5s-49.5 -17.5 -77.5 -17.5zM178 567.998c-14 0 -25.667 4.66699 -35 14s-14 21 -14 35s4.66699 25.667 14 35s21 14 35 14s25.667 -4.66699 35 -14s14 -21 14 -35s-4.66699 -25.667 -14 -35s-21 -14 -35 -14zM362 567.998
c-14 0 -25.667 4.66699 -35 14s-14 21 -14 35s4.66699 25.667 14 35s21 14 35 14s25.667 -4.66699 35 -14s14 -21 14 -35s-4.66699 -25.667 -14 -35s-21 -14 -35 -14z" />
    <glyph glyph-name="uni00FD" unicode="&#xfd;" horiz-adv-x="480" 
d="M83 -241c-15.333 0 -24.833 2.16699 -28.5 6.5s-5.5 11.833 -5.5 22.5v50l4 4h46c16.667 0 29.334 1.5 38.001 4.5s16.667 10.667 24 23s17.666 32.5 30.999 60.5l35 78l-183 395l-67 31v16h239v-16l-82 -31v-5l133 -290h3l112 284v6l-75 36v16h196v-16l-75 -34
l-197 -479l-15.5 -38.5c-4.33301 -10.333 -9.16602 -20.333 -14.499 -30s-13 -21.5 -23 -35.5c-13.333 -19.333 -28.333 -33.833 -45 -43.5s-33.334 -14.5 -50.001 -14.5zM264 530l86.999 177h82c0 -10 -2.16699 -20 -6.5 -30s-13.166 -21 -26.499 -33l-125 -114h-11z" />
    <glyph glyph-name="uni00FE" unicode="&#xfe;" horiz-adv-x="567" 
d="M48 -230l0.00195312 16l63 32v818l-60 52v7l124 55h16v-351h5c25.333 21.333 49.666 36.833 72.999 46.5s48.666 14.5 75.999 14.5c34 0 64 -8.66699 90 -26s46.5 -41.833 61.5 -73.5s22.5 -69.5 22.5 -113.5c0 -54.667 -10.167 -101.167 -30.5 -139.5
s-47.833 -67.5 -82.5 -87.5s-72.667 -30 -114 -30c-37.333 0 -71 3.33301 -101 10v-182l71 -32v-16h-214zM290.002 391c-16 0 -32.5 -2.5 -49.5 -7.5s-33.5 -12.5 -49.5 -22.5v-281c20 -16 40.333 -27 61 -33s43.667 -9 69 -9c32 0 59.667 13.5 83 40.5s35 72.167 35 135.5
c0 41.333 -6.66699 75 -20 101s-31.333 45.167 -54 57.5s-47.667 18.5 -75 18.5z" />
    <glyph glyph-name="uni00FF" unicode="&#xff;" horiz-adv-x="480" 
d="M83 -241c-15.333 0 -24.833 2.16699 -28.5 6.5s-5.5 11.833 -5.5 22.5v50l4 4h46c16.667 0 29.334 1.5 38.001 4.5s16.667 10.667 24 23s17.666 32.5 30.999 60.5l35 78l-183 395l-67 31v16h239v-16l-82 -31v-5l133 -290h3l112 284v6l-75 36v16h196v-16l-75 -34
l-197 -479l-15.5 -38.5c-4.33301 -10.333 -9.16602 -20.333 -14.499 -30s-13 -21.5 -23 -35.5c-13.333 -19.333 -28.333 -33.833 -45 -43.5s-33.334 -14.5 -50.001 -14.5zM172 568c-14 0 -25.667 4.66699 -35 14s-14 21 -14 35s4.66699 25.667 14 35s21 14 35 14
s25.667 -4.66699 35 -14s14 -21 14 -35s-4.66699 -25.667 -14 -35s-21 -14 -35 -14zM356 568c-14 0 -25.667 4.66699 -35 14s-14 21 -14 35s4.66699 25.667 14 35s21 14 35 14s25.667 -4.66699 35 -14s14 -21 14 -35s-4.66699 -25.667 -14 -35s-21 -14 -35 -14z" />
    <glyph glyph-name="uni0100" unicode="&#x100;" horiz-adv-x="750" 
d="M33 0v16l64 33l256 616h45l252 -613l67 -36v-16h-248v16l88 34l-75 185h-243l-74 -185l84 -34v-16h-216zM262 290h198l-99 246zM243 764v50h266v-50h-266z" />
    <glyph glyph-name="uni0101" unicode="&#x101;" horiz-adv-x="489" 
d="M156 -10c-31.333 0 -57.3311 9.16895 -77.998 27.502s-31 43.833 -31 76.5s12.167 61 36.5 85s65.166 42.667 122.499 56l95 22v73c0 22.667 -9.16699 42.167 -27.5 58.5s-39.166 24.5 -62.499 24.5c-25.333 0 -43 -6.83301 -53 -20.5s-15 -31.834 -15 -54.501v-28l-5 -5
h-52c-10 0 -16.833 1.66699 -20.5 5s-5.5 11 -5.5 23c0 14.667 4.33301 29.667 13 45s22 28.666 40 39.999c18.667 12 38.167 22 58.5 30s42.166 12 65.499 12s46.166 -3.33301 68.499 -10s40.5 -17.834 54.5 -33.501s21 -37.5 21 -65.5v-284
c4.66699 -4.66699 11.334 -8.66699 20.001 -12s20.667 -5 36 -5h38l3 -2v-3c-8 -14.667 -19.833 -27.5 -35.5 -38.5s-34.834 -16.5 -57.501 -16.5c-20.667 0 -37.5 5.5 -50.5 16.5s-22.167 25.5 -27.5 43.5h-6c-17.333 -17.333 -38.833 -31.666 -64.5 -42.999
s-52.5 -17 -80.5 -17zM125.002 114.002c0 -41.333 25 -62 75 -62c16 0 31.833 1.66699 47.5 5s33.5 9.33301 53.5 18v148c-53.333 -10 -92.333 -20.5 -117 -31.5s-40.667 -22.833 -48 -35.5s-11 -26.667 -11 -42zM92.002 592.002v50h266v-50h-266z" />
    <glyph glyph-name="uni0102" unicode="&#x102;" horiz-adv-x="750" 
d="M33 0v16l64 33l256 616h45l252 -613l67 -36v-16h-248v16l88 34l-75 185h-243l-74 -185l84 -34v-16h-216zM262 290h198l-99 246zM376 710c-42.667 0 -74.8359 13.667 -96.5029 41s-38.167 64.333 -49.5 111h11c12.667 -24 24.834 -42 36.501 -54
s25.334 -20.167 41.001 -24.5s34.834 -6.5 57.501 -6.5s41.667 2.16699 57 6.5s29 12.5 41 24.5s24.333 30 37 54h11c-12 -46.667 -28.667 -83.667 -50 -111s-53.333 -41 -96 -41z" />
    <glyph glyph-name="uni0103" unicode="&#x103;" horiz-adv-x="489" 
d="M156 -10c-31.333 0 -57.3311 9.16895 -77.998 27.502s-31 43.833 -31 76.5s12.167 61 36.5 85s65.166 42.667 122.499 56l95 22v73c0 22.667 -9.16699 42.167 -27.5 58.5s-39.166 24.5 -62.499 24.5c-25.333 0 -43 -6.83301 -53 -20.5s-15 -31.834 -15 -54.501v-28l-5 -5
h-52c-10 0 -16.833 1.66699 -20.5 5s-5.5 11 -5.5 23c0 14.667 4.33301 29.667 13 45s22 28.666 40 39.999c18.667 12 38.167 22 58.5 30s42.166 12 65.499 12s46.166 -3.33301 68.499 -10s40.5 -17.834 54.5 -33.501s21 -37.5 21 -65.5v-284
c4.66699 -4.66699 11.334 -8.66699 20.001 -12s20.667 -5 36 -5h38l3 -2v-3c-8 -14.667 -19.833 -27.5 -35.5 -38.5s-34.834 -16.5 -57.501 -16.5c-20.667 0 -37.5 5.5 -50.5 16.5s-22.167 25.5 -27.5 43.5h-6c-17.333 -17.333 -38.833 -31.666 -64.5 -42.999
s-52.5 -17 -80.5 -17zM125.002 114.002c0 -41.333 25 -62 75 -62c16 0 31.833 1.66699 47.5 5s33.5 9.33301 53.5 18v148c-53.333 -10 -92.333 -20.5 -117 -31.5s-40.667 -22.833 -48 -35.5s-11 -26.667 -11 -42zM225.002 540.002c-42.667 0 -74.499 13.833 -95.499 41.5
s-37.833 69.5 -50.5 125.5h11c14 -30 27.5 -52.167 40.5 -66.5s27 -23.5 42 -27.5s32.5 -6 52.5 -6s37.333 2 52 6s28.667 13.167 42 27.5s27 36.5 41 66.5h11c-13.333 -56 -30.333 -97.833 -51 -125.5s-52.334 -41.5 -95.001 -41.5z" />
    <glyph glyph-name="uni0104" unicode="&#x104;" horiz-adv-x="750" 
d="M571 -130c0 -22.667 5.66699 -39.168 17 -49.501s27.333 -15.5 48 -15.5c7.33301 0 15.166 0.833008 23.499 2.5s17.166 4.83398 26.499 9.50098h3v-12c-8.66699 -14 -20.167 -25 -34.5 -33s-31.166 -12 -50.499 -12c-29.333 0 -53.166 8 -71.499 24
s-27.5 37.333 -27.5 64c0 24 8 48 24 72s36.667 50.667 62 80h-122v16l88 34l-75 185h-243l-74 -185l84 -34v-16h-216v16l64 33l256 616h45l252 -613l67 -36v-16h-100c-16 -25.333 -27.667 -48.5 -35 -69.5s-11 -41.167 -11 -60.5zM262 289.999h198l-99 246z" />
    <glyph glyph-name="uni0105" unicode="&#x105;" horiz-adv-x="489" 
d="M156 -10c-31.333 0 -57.3311 9.16699 -77.998 27.5s-31 43.833 -31 76.5s12.167 61 36.5 85s65.166 42.667 122.499 56l95 22v73c0 22.667 -9.16699 42.167 -27.5 58.5s-39.166 24.5 -62.499 24.5c-25.333 0 -43 -6.83301 -53 -20.5s-15 -31.834 -15 -54.501v-28l-5 -5
h-52c-10 0 -16.833 1.66699 -20.5 5s-5.5 11 -5.5 23c0 14.667 4.33301 29.667 13 45s22 28.666 40 39.999c18.667 12 38.167 22 58.5 30s42.166 12 65.499 12s46.166 -3.33301 68.499 -10s40.5 -17.834 54.5 -33.501s21 -37.5 21 -65.5v-284
c4.66699 -4.66699 11.334 -8.66699 20.001 -12s20.667 -5 36 -5h38l3 -2v-3c-7.33301 -12.667 -17.5 -24.167 -30.5 -34.5s-28.833 -16.833 -47.5 -19.5c-14.667 -23.333 -25.167 -44.833 -31.5 -64.5s-9.5 -38.5 -9.5 -56.5c0 -22.667 5.66699 -39.167 17 -49.5
s27.333 -15.5 48 -15.5c7.33301 0 15.166 0.833008 23.499 2.5s17.166 4.83398 26.499 9.50098h3v-12c-8.66699 -14 -20.167 -25 -34.5 -33s-31.166 -12 -50.499 -12c-29.333 0 -53.166 8 -71.499 24s-27.5 37.333 -27.5 64c0 23.333 7.33301 46.333 22 69
s33.667 47.334 57 74.001c-17.333 2 -31.333 8.33301 -42 19s-18.334 24 -23.001 40h-6c-17.333 -17.333 -38.833 -31.666 -64.5 -42.999s-52.5 -17 -80.5 -17zM125.002 114c0 -41.333 25 -62 75 -62c16 0 31.833 1.66699 47.5 5s33.5 9.33301 53.5 18v148
c-53.333 -10 -92.333 -20.5 -117 -31.5s-40.667 -22.833 -48 -35.5s-11 -26.667 -11 -42z" />
    <glyph glyph-name="uni0106" unicode="&#x106;" horiz-adv-x="726" 
d="M400 -10c-68 0 -126.667 14.001 -176 42.001s-87.333 66.167 -114 114.5s-40 103.5 -40 165.5c0 47.333 9.16699 92.5 27.5 135.5s43.333 81.167 75 114.5s68.334 59.666 110.001 78.999s85.834 29 132.501 29c33.333 0 61.666 -2.16699 84.999 -6.5
s44.166 -10 62.499 -17s36.833 -15.167 55.5 -24.5l5 -175h-18l-61 122c-25.333 18 -47.5 31 -66.5 39s-40.5 12 -64.5 12c-48 0 -90.833 -12 -128.5 -36s-67.334 -56.833 -89.001 -98.5s-32.5 -89.5 -32.5 -143.5c0 -63.333 10.5 -117.5 31.5 -162.5
s49.333 -79.333 85 -103s75.167 -35.5 118.5 -35.5c36.667 0 67.5 5.16699 92.5 15.5s47.167 21.833 66.5 34.5l60 107h17l-11 -159c-19.333 -10 -39.166 -18.667 -59.499 -26s-43.5 -13 -69.5 -17s-57.333 -6 -94 -6zM384 710.001l87.001 152.001h82
c0 -10 -1.83301 -20.333 -5.5 -31s-12.834 -21.334 -27.501 -32.001l-125 -89h-11z" />
    <glyph glyph-name="uni0107" unicode="&#x107;" horiz-adv-x="479" 
d="M259 -10c-64.667 0 -115.667 19.6689 -153 59.002s-56 91.333 -56 156c0 50 10.167 94.167 30.5 132.5s47.833 68.333 82.5 90s73.667 32.5 117 32.5c26.667 0 52.667 -4.5 78 -13.5s44.666 -20.833 57.999 -35.5c10.667 -12.667 16 -22.667 16 -30
c0 -9.33301 -4.33301 -17.333 -13 -24l-38 -32h-7l-34 46c-10 13.333 -22.5 24.166 -37.5 32.499s-33.5 12.5 -55.5 12.5c-36.667 0 -65.5 -14.5 -86.5 -43.5s-31.5 -69.5 -31.5 -121.5c0 -32 5.33301 -62.167 16 -90.5s28.5 -51.333 53.5 -69s59.5 -26.5 103.5 -26.5
c36.667 0 79.667 13.333 129 40h3v-10c-15.333 -28.667 -38.166 -53.334 -68.499 -74.001s-65.833 -31 -106.5 -31zM264 530.002l86.999 177h82c0 -10 -2.16699 -20 -6.5 -30s-13.166 -21 -26.499 -33l-125 -114h-11z" />
    <glyph glyph-name="uni0108" unicode="&#x108;" horiz-adv-x="726" 
d="M400 -10c-68 0 -126.667 14.001 -176 42.001s-87.333 66.167 -114 114.5s-40 103.5 -40 165.5c0 47.333 9.16699 92.5 27.5 135.5s43.333 81.167 75 114.5s68.334 59.666 110.001 78.999s85.834 29 132.501 29c33.333 0 61.666 -2.16699 84.999 -6.5
s44.166 -10 62.499 -17s36.833 -15.167 55.5 -24.5l5 -175h-18l-61 122c-25.333 18 -47.5 31 -66.5 39s-40.5 12 -64.5 12c-48 0 -90.833 -12 -128.5 -36s-67.334 -56.833 -89.001 -98.5s-32.5 -89.5 -32.5 -143.5c0 -63.333 10.5 -117.5 31.5 -162.5
s49.333 -79.333 85 -103s75.167 -35.5 118.5 -35.5c36.667 0 67.5 5.16699 92.5 15.5s47.167 21.833 66.5 34.5l60 107h17l-11 -159c-19.333 -10 -39.166 -18.667 -59.499 -26s-43.5 -13 -69.5 -17s-57.333 -6 -94 -6zM242 710.001l132 152h30l132 -152h-11l-136 75
l-136 -75h-11z" />
    <glyph glyph-name="uni0109" unicode="&#x109;" horiz-adv-x="479" 
d="M259 -10c-64.667 0 -115.667 19.6689 -153 59.002s-56 91.333 -56 156c0 50 10.167 94.167 30.5 132.5s47.833 68.333 82.5 90s73.667 32.5 117 32.5c26.667 0 52.667 -4.5 78 -13.5s44.666 -20.833 57.999 -35.5c10.667 -12.667 16 -22.667 16 -30
c0 -9.33301 -4.33301 -17.333 -13 -24l-38 -32h-7l-34 46c-10 13.333 -22.5 24.166 -37.5 32.499s-33.5 12.5 -55.5 12.5c-36.667 0 -65.5 -14.5 -86.5 -43.5s-31.5 -69.5 -31.5 -121.5c0 -32 5.33301 -62.167 16 -90.5s28.5 -51.333 53.5 -69s59.5 -26.5 103.5 -26.5
c36.667 0 79.667 13.333 129 40h3v-10c-15.333 -28.667 -38.166 -53.334 -68.499 -74.001s-65.833 -31 -106.5 -31zM117 530.002l132 177h30l132 -177h-11l-136 95l-136 -95h-11z" />
    <glyph glyph-name="uni010A" unicode="&#x10a;" horiz-adv-x="726" 
d="M400 -10c-68 0 -126.667 14.001 -176 42.001s-87.333 66.167 -114 114.5s-40 103.5 -40 165.5c0 47.333 9.16699 92.5 27.5 135.5s43.333 81.167 75 114.5s68.334 59.666 110.001 78.999s85.834 29 132.501 29c33.333 0 61.666 -2.16699 84.999 -6.5
s44.166 -10 62.499 -17s36.833 -15.167 55.5 -24.5l5 -175h-18l-61 122c-25.333 18 -47.5 31 -66.5 39s-40.5 12 -64.5 12c-48 0 -90.833 -12 -128.5 -36s-67.334 -56.833 -89.001 -98.5s-32.5 -89.5 -32.5 -143.5c0 -63.333 10.5 -117.5 31.5 -162.5
s49.333 -79.333 85 -103s75.167 -35.5 118.5 -35.5c36.667 0 67.5 5.16699 92.5 15.5s47.167 21.833 66.5 34.5l60 107h17l-11 -159c-19.333 -10 -39.166 -18.667 -59.499 -26s-43.5 -13 -69.5 -17s-57.333 -6 -94 -6zM389 726.001c-16.667 0 -30.834 5.83301 -42.501 17.5
s-17.5 25.834 -17.5 42.501s5.83301 30.834 17.5 42.501s25.834 17.5 42.501 17.5s30.834 -5.83301 42.501 -17.5s17.5 -25.834 17.5 -42.501s-5.83301 -30.834 -17.5 -42.501s-25.834 -17.5 -42.501 -17.5z" />
    <glyph glyph-name="uni010B" unicode="&#x10b;" horiz-adv-x="479" 
d="M259 -10c-64.667 0 -115.667 19.6689 -153 59.002s-56 91.333 -56 156c0 50 10.167 94.167 30.5 132.5s47.833 68.333 82.5 90s73.667 32.5 117 32.5c26.667 0 52.667 -4.5 78 -13.5s44.666 -20.833 57.999 -35.5c10.667 -12.667 16 -22.667 16 -30
c0 -9.33301 -4.33301 -17.333 -13 -24l-38 -32h-7l-34 46c-10 13.333 -22.5 24.166 -37.5 32.499s-33.5 12.5 -55.5 12.5c-36.667 0 -65.5 -14.5 -86.5 -43.5s-31.5 -69.5 -31.5 -121.5c0 -32 5.33301 -62.167 16 -90.5s28.5 -51.333 53.5 -69s59.5 -26.5 103.5 -26.5
c36.667 0 79.667 13.333 129 40h3v-10c-15.333 -28.667 -38.166 -53.334 -68.499 -74.001s-65.833 -31 -106.5 -31zM264 558.002c-16.667 0 -30.834 5.83301 -42.501 17.5s-17.5 25.834 -17.5 42.501s5.83301 30.834 17.5 42.501s25.834 17.5 42.501 17.5
s30.834 -5.83301 42.501 -17.5s17.5 -25.834 17.5 -42.501s-5.83301 -30.834 -17.5 -42.501s-25.834 -17.5 -42.501 -17.5z" />
    <glyph glyph-name="uni010C" unicode="&#x10c;" horiz-adv-x="726" 
d="M400 -10c-68 0 -126.667 14.001 -176 42.001s-87.333 66.167 -114 114.5s-40 103.5 -40 165.5c0 47.333 9.16699 92.5 27.5 135.5s43.333 81.167 75 114.5s68.334 59.666 110.001 78.999s85.834 29 132.501 29c33.333 0 61.666 -2.16699 84.999 -6.5
s44.166 -10 62.499 -17s36.833 -15.167 55.5 -24.5l5 -175h-18l-61 122c-25.333 18 -47.5 31 -66.5 39s-40.5 12 -64.5 12c-48 0 -90.833 -12 -128.5 -36s-67.334 -56.833 -89.001 -98.5s-32.5 -89.5 -32.5 -143.5c0 -63.333 10.5 -117.5 31.5 -162.5
s49.333 -79.333 85 -103s75.167 -35.5 118.5 -35.5c36.667 0 67.5 5.16699 92.5 15.5s47.167 21.833 66.5 34.5l60 107h17l-11 -159c-19.333 -10 -39.166 -18.667 -59.499 -26s-43.5 -13 -69.5 -17s-57.333 -6 -94 -6zM374 710.001l-132 152h11l136 -75l136 75h11l-132 -152
h-30z" />
    <glyph glyph-name="uni010D" unicode="&#x10d;" horiz-adv-x="479" 
d="M259 -10c-64.667 0 -115.667 19.6689 -153 59.002s-56 91.333 -56 156c0 50 10.167 94.167 30.5 132.5s47.833 68.333 82.5 90s73.667 32.5 117 32.5c26.667 0 52.667 -4.5 78 -13.5s44.666 -20.833 57.999 -35.5c10.667 -12.667 16 -22.667 16 -30
c0 -9.33301 -4.33301 -17.333 -13 -24l-38 -32h-7l-34 46c-10 13.333 -22.5 24.166 -37.5 32.499s-33.5 12.5 -55.5 12.5c-36.667 0 -65.5 -14.5 -86.5 -43.5s-31.5 -69.5 -31.5 -121.5c0 -32 5.33301 -62.167 16 -90.5s28.5 -51.333 53.5 -69s59.5 -26.5 103.5 -26.5
c36.667 0 79.667 13.333 129 40h3v-10c-15.333 -28.667 -38.166 -53.334 -68.499 -74.001s-65.833 -31 -106.5 -31zM249 530.002l-132 177h11l136 -95l136 95h11l-132 -177h-30z" />
    <glyph glyph-name="uni010E" unicode="&#x10e;" horiz-adv-x="775" 
d="M65 0v15.999l80 40v548l-80 40v16h293c73.333 0 136 -13 188 -39s91.5 -61.667 118.5 -107s40.5 -96.666 40.5 -153.999c0 -52 -8.83301 -100 -26.5 -144s-42.5 -82 -74.5 -114s-69.5 -57 -112.5 -75s-89.833 -27 -140.5 -27h-286zM335 604.999l-100 -0.000976562v-550
h115c53.333 0 99.5 11.167 138.5 33.5s69 54 90 95s31.5 89.5 31.5 145.5c0 55.333 -10.667 103.833 -32 145.5s-52.5 73.834 -93.5 96.501s-90.833 34 -149.5 34zM373 709.998l-132 152h11l136 -75l136 75h11l-132 -152h-30z" />
    <glyph glyph-name="uni010F" unicode="&#x10f;" horiz-adv-x="559" 
d="M218 -10c-33.333 0 -63.166 8.33203 -89.499 24.999s-47 40.167 -62 70.5s-22.5 66.5 -22.5 108.5c0 56.667 11 104.834 33 144.501s51.333 69.834 88 90.501s76.667 31 120 31c18.667 0 35 -0.833008 49 -2.5s26.667 -3.83398 38 -6.50098v185l-65 52v7l139 55h6v-705
l71 -29v-16h-141l-8 51h-7c-25.333 -21.333 -49.833 -36.833 -73.5 -46.5s-48.834 -14.5 -75.501 -14.5zM124 216.999c0 -55.333 14.667 -95.5 44 -120.5s64.333 -37.5 105 -37.5c16 0 32.5 2.5 49.5 7.5s33.5 12.5 49.5 22.5v280c-16 14 -31.833 24.5 -47.5 31.5
s-33.167 10.5 -52.5 10.5c-26.667 0 -51.167 -6.5 -73.5 -19.5s-40.333 -33.667 -54 -62s-20.5 -65.833 -20.5 -112.5zM519 552.999l21 187h75c2 -9.33301 2.83301 -19 2.5 -29s-4.83301 -22 -13.5 -36l-74 -122h-11z" />
    <glyph glyph-name="uni0110" unicode="&#x110;" horiz-adv-x="775" 
d="M65 0v15.999l80 40v261h-80v50h80v237l-80 40v16h293c73.333 0 136 -13 188 -39s91.5 -61.667 118.5 -107s40.5 -96.666 40.5 -153.999c0 -52 -8.83301 -100 -26.5 -144s-42.5 -82 -74.5 -114s-69.5 -57 -112.5 -75s-89.833 -27 -140.5 -27h-286zM410 316.999
l-175 -0.000976562v-262h115c53.333 0 99.5 11.167 138.5 33.5s69 54 90 95s31.5 89.5 31.5 145.5c0 55.333 -10.667 103.833 -32 145.5s-52.5 73.834 -93.5 96.501s-90.833 34 -149.5 34h-100v-238h175v-50z" />
    <glyph glyph-name="uni0111" unicode="&#x111;" horiz-adv-x="575" 
d="M222 -10c-33.333 0 -63.166 8.33203 -89.499 24.999s-47 40.167 -62 70.5s-22.5 66.5 -22.5 108.5c0 56.667 11 104.834 33 144.501s51.333 69.834 88 90.501s76.667 31 120 31c18.667 0 35 -0.833008 49 -2.5s26.667 -3.83398 38 -6.50098v87h-136v47h136v51l-65 52v7
l139 55h6v-165h71v-47h-71v-493l71 -29v-16h-141l-8 51h-7c-25.333 -21.333 -49.833 -36.833 -73.5 -46.5s-48.834 -14.5 -75.501 -14.5zM128 216.999c0 -55.333 14.667 -95.5 44 -120.5s64.333 -37.5 105 -37.5c16 0 32.5 2.5 49.5 7.5s33.5 12.5 49.5 22.5v280
c-16 14 -31.833 24.5 -47.5 31.5s-33.167 10.5 -52.5 10.5c-26.667 0 -51.167 -6.5 -73.5 -19.5s-40.333 -33.667 -54 -62s-20.5 -65.833 -20.5 -112.5z" />
    <glyph glyph-name="uni0112" unicode="&#x112;" horiz-adv-x="652" 
d="M65 0v16l80 40v548l-80 40v16h489v-172h-16l-62 117h-241v-237h170l50 83h16v-219h-16l-50 81h-170v-258h269l62 127h16v-182h-517zM202 764v50h266v-50h-266z" />
    <glyph glyph-name="uni0113" unicode="&#x113;" horiz-adv-x="484" 
d="M259 -10c-64.667 0 -115.668 19.6689 -153.001 59.002s-56 91.333 -56 156c0 50 9.83301 94.167 29.5 132.5s45.667 68.333 78 90s67.5 32.5 105.5 32.5c52.667 0 94.167 -18.333 124.5 -55s45.5 -89.334 45.5 -158.001l-5 -5h-299
c0.666992 -30.667 6.66699 -59.5 18 -86.5s29.5 -48.833 54.5 -65.5s58.5 -25 100.5 -25c36.667 0 79.667 13.333 129 40h3v-10c-15.333 -28.667 -38.166 -53.334 -68.499 -74.001s-65.833 -31 -106.5 -31zM246.999 416.002c-32 0 -58.1689 -11.167 -78.502 -33.5
s-32.833 -53.833 -37.5 -94.5h226c-7.33301 45.333 -20.166 78 -38.499 98s-42.166 30 -71.499 30zM126.997 592.002v50h266v-50h-266z" />
    <glyph glyph-name="uni0114" unicode="&#x114;" horiz-adv-x="652" 
d="M65 0v16l80 40v548l-80 40v16h489v-172h-16l-62 117h-241v-237h170l50 83h16v-219h-16l-50 81h-170v-258h269l62 127h16v-182h-517zM335 710c-42.667 0 -74.8359 13.667 -96.5029 41s-38.167 64.333 -49.5 111h11c12.667 -24 24.834 -42 36.501 -54
s25.334 -20.167 41.001 -24.5s34.834 -6.5 57.501 -6.5s41.667 2.16699 57 6.5s29 12.5 41 24.5s24.333 30 37 54h11c-12 -46.667 -28.667 -83.667 -50 -111s-53.333 -41 -96 -41z" />
    <glyph glyph-name="uni0115" unicode="&#x115;" horiz-adv-x="484" 
d="M259 -10c-64.667 0 -115.668 19.6689 -153.001 59.002s-56 91.333 -56 156c0 50 9.83301 94.167 29.5 132.5s45.667 68.333 78 90s67.5 32.5 105.5 32.5c52.667 0 94.167 -18.333 124.5 -55s45.5 -89.334 45.5 -158.001l-5 -5h-299
c0.666992 -30.667 6.66699 -59.5 18 -86.5s29.5 -48.833 54.5 -65.5s58.5 -25 100.5 -25c36.667 0 79.667 13.333 129 40h3v-10c-15.333 -28.667 -38.166 -53.334 -68.499 -74.001s-65.833 -31 -106.5 -31zM246.999 416.002c-32 0 -58.1689 -11.167 -78.502 -33.5
s-32.833 -53.833 -37.5 -94.5h226c-7.33301 45.333 -20.166 78 -38.499 98s-42.166 30 -71.499 30zM259.997 540.002c-42.667 0 -74.499 13.833 -95.499 41.5s-37.833 69.5 -50.5 125.5h11c14 -30 27.5 -52.167 40.5 -66.5s27 -23.5 42 -27.5s32.5 -6 52.5 -6s37.333 2 52 6
s28.667 13.167 42 27.5s27 36.5 41 66.5h11c-13.333 -56 -30.333 -97.833 -51 -125.5s-52.334 -41.5 -95.001 -41.5z" />
    <glyph glyph-name="uni0116" unicode="&#x116;" horiz-adv-x="652" 
d="M65 0v16l80 40v548l-80 40v16h489v-172h-16l-62 117h-241v-237h170l50 83h16v-219h-16l-50 81h-170v-258h269l62 127h16v-182h-517zM335 726c-16.667 0 -30.834 5.83301 -42.501 17.5s-17.5 25.834 -17.5 42.501s5.83301 30.834 17.5 42.501s25.834 17.5 42.501 17.5
s30.834 -5.83301 42.501 -17.5s17.5 -25.834 17.5 -42.501s-5.83301 -30.834 -17.5 -42.501s-25.834 -17.5 -42.501 -17.5z" />
    <glyph glyph-name="uni0117" unicode="&#x117;" horiz-adv-x="484" 
d="M259 -10c-64.667 0 -115.668 19.6689 -153.001 59.002s-56 91.333 -56 156c0 50 9.83301 94.167 29.5 132.5s45.667 68.333 78 90s67.5 32.5 105.5 32.5c52.667 0 94.167 -18.333 124.5 -55s45.5 -89.334 45.5 -158.001l-5 -5h-299
c0.666992 -30.667 6.66699 -59.5 18 -86.5s29.5 -48.833 54.5 -65.5s58.5 -25 100.5 -25c36.667 0 79.667 13.333 129 40h3v-10c-15.333 -28.667 -38.166 -53.334 -68.499 -74.001s-65.833 -31 -106.5 -31zM246.999 416.002c-32 0 -58.1689 -11.167 -78.502 -33.5
s-32.833 -53.833 -37.5 -94.5h226c-7.33301 45.333 -20.166 78 -38.499 98s-42.166 30 -71.499 30zM259.997 558.002c-16.667 0 -30.834 5.83301 -42.501 17.5s-17.5 25.834 -17.5 42.501s5.83301 30.834 17.5 42.501s25.834 17.5 42.501 17.5s30.834 -5.83301 42.501 -17.5
s17.5 -25.834 17.5 -42.501s-5.83301 -30.834 -17.5 -42.501s-25.834 -17.5 -42.501 -17.5z" />
    <glyph glyph-name="uni0118" unicode="&#x118;" horiz-adv-x="652" 
d="M65 0v15.999l80 40v548l-80 40v16h489v-172h-16l-62 117h-241v-237h170l50 83h16v-219h-16l-50 81h-170v-258h269l62 127h16v-182h-74c-16 -25.333 -27.667 -48.5 -35 -69.5s-11 -41.167 -11 -60.5c0 -22.667 5.66699 -39.167 17 -49.5s27.333 -15.5 48 -15.5
c7.33301 0 15.333 0.833008 24 2.5s17.334 4.83398 26.001 9.50098h3v-12c-9.33301 -14 -21 -25 -35 -33s-30.667 -12 -50 -12c-28.667 0 -52.334 8 -71.001 24s-28 37.333 -28 64c0 24 8 48 24 72s36.667 50.667 62 80h-417z" />
    <glyph glyph-name="uni0119" unicode="&#x119;" horiz-adv-x="484" 
d="M259 -10c-64.667 0 -115.666 19.668 -152.999 59.001s-56 91.333 -56 156c0 50 9.83301 94.167 29.5 132.5s45.667 68.333 78 90s67.5 32.5 105.5 32.5c52.667 0 94.167 -18.333 124.5 -55s45.5 -89.334 45.5 -158.001l-5 -5h-299
c0.666992 -30.667 6.66699 -59.5 18 -86.5s29.5 -48.833 54.5 -65.5s58.5 -25 100.5 -25c36.667 0 79.667 13.333 129 40h3v-10c-11.333 -22 -27 -41.333 -47 -58c-24.667 -33.333 -42.834 -63.5 -54.501 -90.5s-17.5 -52.5 -17.5 -76.5c0 -22.667 5.66699 -39.167 17 -49.5
s27.333 -15.5 48 -15.5c7.33301 0 15.166 0.833008 23.499 2.5s17.166 4.83398 26.499 9.50098h3v-12c-8.66699 -14 -20.167 -25 -34.5 -33s-31.166 -12 -50.499 -12c-29.333 0 -53.166 8 -71.499 24s-27.5 37.333 -27.5 64c0 24.667 9 50.167 27 76.5s40 54.166 66 83.499
c-25.333 -12 -53 -18 -83 -18zM247.001 416.001c-32 0 -58.1689 -11.167 -78.502 -33.5s-32.833 -53.833 -37.5 -94.5h226c-7.33301 45.333 -20.166 78 -38.499 98s-42.166 30 -71.499 30z" />
    <glyph glyph-name="uni011A" unicode="&#x11a;" horiz-adv-x="652" 
d="M65 0v16l80 40v548l-80 40v16h489v-172h-16l-62 117h-241v-237h170l50 83h16v-219h-16l-50 81h-170v-258h269l62 127h16v-182h-517zM320 710l-132 152h11l136 -75l136 75h11l-132 -152h-30z" />
    <glyph glyph-name="uni011B" unicode="&#x11b;" horiz-adv-x="484" 
d="M259 -10c-64.667 0 -115.668 19.6689 -153.001 59.002s-56 91.333 -56 156c0 50 9.83301 94.167 29.5 132.5s45.667 68.333 78 90s67.5 32.5 105.5 32.5c52.667 0 94.167 -18.333 124.5 -55s45.5 -89.334 45.5 -158.001l-5 -5h-299
c0.666992 -30.667 6.66699 -59.5 18 -86.5s29.5 -48.833 54.5 -65.5s58.5 -25 100.5 -25c36.667 0 79.667 13.333 129 40h3v-10c-15.333 -28.667 -38.166 -53.334 -68.499 -74.001s-65.833 -31 -106.5 -31zM246.999 416.002c-32 0 -58.1689 -11.167 -78.502 -33.5
s-32.833 -53.833 -37.5 -94.5h226c-7.33301 45.333 -20.166 78 -38.499 98s-42.166 30 -71.499 30zM244.997 530.002l-132 177h11l136 -95l136 95h11l-132 -177h-30z" />
    <glyph glyph-name="uni011C" unicode="&#x11c;" horiz-adv-x="768" 
d="M403 -10c-64 0 -121.166 14.002 -171.499 42.002s-89.833 66.167 -118.5 114.5s-43 103.5 -43 165.5c0 51.333 9.16699 98.666 27.5 141.999s44 81.166 77 113.499s70.833 57.5 113.5 75.5s88.667 27 138 27c34.667 0 64.334 -2 89.001 -6s46.667 -9.66699 66 -17
s38.666 -15.666 57.999 -24.999l5 -165h-16l-65 112c-28 19.333 -51.833 32.666 -71.5 39.999s-42.167 11 -67.5 11c-51.333 0 -97 -11.167 -137 -33.5s-71.333 -53 -94 -92s-34 -83.167 -34 -132.5c0 -66.667 12.167 -123.334 36.5 -170.001
s57.166 -82.334 98.499 -107.001s87.333 -37 138 -37c22 0 43.167 1.33301 63.5 4s41.5 8.33398 63.5 17.001v165l-89 40v16h248v-16l-69 -43v-157c-30.667 -25.333 -68.5 -45.666 -113.5 -60.999s-89.167 -23 -132.5 -23zM253.001 710.002l132 152h30l132 -152h-11l-136 75
l-136 -75h-11z" />
    <glyph glyph-name="uni011D" unicode="&#x11d;" horiz-adv-x="546" 
d="M258 142c-29.333 0 -56.334 5.33398 -81.001 16.001c-13.333 -5.33301 -22.833 -12.333 -28.5 -21s-8.5 -18 -8.5 -28c0 -33.333 23.667 -50 71 -50h120c48.667 0 84.5 -10.667 107.5 -32s34.5 -53 34.5 -95c0 -28.667 -9.5 -56.167 -28.5 -82.5s-46 -47.833 -81 -64.5
s-76.5 -25 -124.5 -25c-63.333 0 -108.833 11.5 -136.5 34.5s-41.5 51.167 -41.5 84.5c0 24.667 6 46 18 64l69 46v4c-25.333 5.33301 -44.666 15.166 -57.999 29.499s-20 31.833 -20 52.5c0 25.333 8.66699 46.666 26 63.999l54 28v6c-21.333 14 -38.333 32 -51 54
s-19 46.667 -19 74c0 30 7.66699 57 23 81s36.5 43 63.5 57s57.5 21 91.5 21c14 0 29.167 -1.66699 45.5 -5s30.5 -7.66602 42.5 -12.999l150 8v-54l-93 6l-4 -4c10.667 -12 19.5 -26.667 26.5 -44s10.5 -35 10.5 -53c0 -30 -7.66699 -57 -23 -81s-36.5 -43 -63.5 -57
s-57.5 -21 -91.5 -21zM267.999 183.001c26.667 0 47.667 11.5 63 34.5s23 49.833 23 80.5c0 36.667 -10 66.167 -30 88.5s-44.333 33.5 -73 33.5s-50.667 -11.5 -66 -34.5s-23 -50.167 -23 -81.5c0 -34.667 10 -63.5 30 -86.5s45.333 -34.5 76 -34.5zM131.999 -109.999
c0 -29.333 11.502 -53.667 34.502 -73s51.167 -29 84.5 -29c30 0 56.167 5.83301 78.5 17.5s39.666 27 51.999 46s18.5 39.167 18.5 60.5c0 29.333 -7.83301 49.666 -23.5 60.999s-43.834 17 -84.501 17h-107h-5c-18 -10.667 -30.5 -24.167 -37.5 -40.5
s-10.5 -36.166 -10.5 -59.499zM116.001 530l132 177h30l132 -177h-11l-136 95l-136 -95h-11z" />
    <glyph glyph-name="uni011E" unicode="&#x11e;" horiz-adv-x="768" 
d="M403 -10c-64 0 -121.166 14.002 -171.499 42.002s-89.833 66.167 -118.5 114.5s-43 103.5 -43 165.5c0 51.333 9.16699 98.666 27.5 141.999s44 81.166 77 113.499s70.833 57.5 113.5 75.5s88.667 27 138 27c34.667 0 64.334 -2 89.001 -6s46.667 -9.66699 66 -17
s38.666 -15.666 57.999 -24.999l5 -165h-16l-65 112c-28 19.333 -51.833 32.666 -71.5 39.999s-42.167 11 -67.5 11c-51.333 0 -97 -11.167 -137 -33.5s-71.333 -53 -94 -92s-34 -83.167 -34 -132.5c0 -66.667 12.167 -123.334 36.5 -170.001
s57.166 -82.334 98.499 -107.001s87.333 -37 138 -37c22 0 43.167 1.33301 63.5 4s41.5 8.33398 63.5 17.001v165l-89 40v16h248v-16l-69 -43v-157c-30.667 -25.333 -68.5 -45.666 -113.5 -60.999s-89.167 -23 -132.5 -23zM400.001 710.002
c-42.667 0 -74.8359 13.667 -96.5029 41s-38.167 64.333 -49.5 111h11c12.667 -24 24.834 -42 36.501 -54s25.334 -20.167 41.001 -24.5s34.834 -6.5 57.501 -6.5s41.667 2.16699 57 6.5s29 12.5 41 24.5s24.333 30 37 54h11c-12 -46.667 -28.667 -83.667 -50 -111
s-53.333 -41 -96 -41z" />
    <glyph glyph-name="uni011F" unicode="&#x11f;" horiz-adv-x="546" 
d="M258 142c-29.333 0 -56.334 5.33398 -81.001 16.001c-13.333 -5.33301 -22.833 -12.333 -28.5 -21s-8.5 -18 -8.5 -28c0 -33.333 23.667 -50 71 -50h120c48.667 0 84.5 -10.667 107.5 -32s34.5 -53 34.5 -95c0 -28.667 -9.5 -56.167 -28.5 -82.5s-46 -47.833 -81 -64.5
s-76.5 -25 -124.5 -25c-63.333 0 -108.833 11.5 -136.5 34.5s-41.5 51.167 -41.5 84.5c0 24.667 6 46 18 64l69 46v4c-25.333 5.33301 -44.666 15.166 -57.999 29.499s-20 31.833 -20 52.5c0 25.333 8.66699 46.666 26 63.999l54 28v6c-21.333 14 -38.333 32 -51 54
s-19 46.667 -19 74c0 30 7.66699 57 23 81s36.5 43 63.5 57s57.5 21 91.5 21c14 0 29.167 -1.66699 45.5 -5s30.5 -7.66602 42.5 -12.999l150 8v-54l-93 6l-4 -4c10.667 -12 19.5 -26.667 26.5 -44s10.5 -35 10.5 -53c0 -30 -7.66699 -57 -23 -81s-36.5 -43 -63.5 -57
s-57.5 -21 -91.5 -21zM267.999 183.001c26.667 0 47.667 11.5 63 34.5s23 49.833 23 80.5c0 36.667 -10 66.167 -30 88.5s-44.333 33.5 -73 33.5s-50.667 -11.5 -66 -34.5s-23 -50.167 -23 -81.5c0 -34.667 10 -63.5 30 -86.5s45.333 -34.5 76 -34.5zM131.999 -109.999
c0 -29.333 11.502 -53.667 34.502 -73s51.167 -29 84.5 -29c30 0 56.167 5.83301 78.5 17.5s39.666 27 51.999 46s18.5 39.167 18.5 60.5c0 29.333 -7.83301 49.666 -23.5 60.999s-43.834 17 -84.501 17h-107h-5c-18 -10.667 -30.5 -24.167 -37.5 -40.5
s-10.5 -36.166 -10.5 -59.499zM263.001 540c-42.667 0 -74.499 13.833 -95.499 41.5s-37.833 69.5 -50.5 125.5h11c14 -30 27.5 -52.167 40.5 -66.5s27 -23.5 42 -27.5s32.5 -6 52.5 -6s37.333 2 52 6s28.667 13.167 42 27.5s27 36.5 41 66.5h11
c-13.333 -56 -30.333 -97.833 -51 -125.5s-52.334 -41.5 -95.001 -41.5z" />
    <glyph glyph-name="uni0120" unicode="&#x120;" horiz-adv-x="768" 
d="M403 -10c-64 0 -121.166 14.002 -171.499 42.002s-89.833 66.167 -118.5 114.5s-43 103.5 -43 165.5c0 51.333 9.16699 98.666 27.5 141.999s44 81.166 77 113.499s70.833 57.5 113.5 75.5s88.667 27 138 27c34.667 0 64.334 -2 89.001 -6s46.667 -9.66699 66 -17
s38.666 -15.666 57.999 -24.999l5 -165h-16l-65 112c-28 19.333 -51.833 32.666 -71.5 39.999s-42.167 11 -67.5 11c-51.333 0 -97 -11.167 -137 -33.5s-71.333 -53 -94 -92s-34 -83.167 -34 -132.5c0 -66.667 12.167 -123.334 36.5 -170.001
s57.166 -82.334 98.499 -107.001s87.333 -37 138 -37c22 0 43.167 1.33301 63.5 4s41.5 8.33398 63.5 17.001v165l-89 40v16h248v-16l-69 -43v-157c-30.667 -25.333 -68.5 -45.666 -113.5 -60.999s-89.167 -23 -132.5 -23zM400.001 726.002
c-16.667 0 -30.834 5.83301 -42.501 17.5s-17.5 25.834 -17.5 42.501s5.83301 30.834 17.5 42.501s25.834 17.5 42.501 17.5s30.834 -5.83301 42.501 -17.5s17.5 -25.834 17.5 -42.501s-5.83301 -30.834 -17.5 -42.501s-25.834 -17.5 -42.501 -17.5z" />
    <glyph glyph-name="uni0121" unicode="&#x121;" horiz-adv-x="546" 
d="M258 142c-29.333 0 -56.334 5.33398 -81.001 16.001c-13.333 -5.33301 -22.833 -12.333 -28.5 -21s-8.5 -18 -8.5 -28c0 -33.333 23.667 -50 71 -50h120c48.667 0 84.5 -10.667 107.5 -32s34.5 -53 34.5 -95c0 -28.667 -9.5 -56.167 -28.5 -82.5s-46 -47.833 -81 -64.5
s-76.5 -25 -124.5 -25c-63.333 0 -108.833 11.5 -136.5 34.5s-41.5 51.167 -41.5 84.5c0 24.667 6 46 18 64l69 46v4c-25.333 5.33301 -44.666 15.166 -57.999 29.499s-20 31.833 -20 52.5c0 25.333 8.66699 46.666 26 63.999l54 28v6c-21.333 14 -38.333 32 -51 54
s-19 46.667 -19 74c0 30 7.66699 57 23 81s36.5 43 63.5 57s57.5 21 91.5 21c14 0 29.167 -1.66699 45.5 -5s30.5 -7.66602 42.5 -12.999l150 8v-54l-93 6l-4 -4c10.667 -12 19.5 -26.667 26.5 -44s10.5 -35 10.5 -53c0 -30 -7.66699 -57 -23 -81s-36.5 -43 -63.5 -57
s-57.5 -21 -91.5 -21zM267.999 183.001c26.667 0 47.667 11.5 63 34.5s23 49.833 23 80.5c0 36.667 -10 66.167 -30 88.5s-44.333 33.5 -73 33.5s-50.667 -11.5 -66 -34.5s-23 -50.167 -23 -81.5c0 -34.667 10 -63.5 30 -86.5s45.333 -34.5 76 -34.5zM131.999 -109.999
c0 -29.333 11.502 -53.667 34.502 -73s51.167 -29 84.5 -29c30 0 56.167 5.83301 78.5 17.5s39.666 27 51.999 46s18.5 39.167 18.5 60.5c0 29.333 -7.83301 49.666 -23.5 60.999s-43.834 17 -84.501 17h-107h-5c-18 -10.667 -30.5 -24.167 -37.5 -40.5
s-10.5 -36.166 -10.5 -59.499zM263.001 558c-16.667 0 -30.834 5.83301 -42.501 17.5s-17.5 25.834 -17.5 42.501s5.83301 30.834 17.5 42.501s25.834 17.5 42.501 17.5s30.834 -5.83301 42.501 -17.5s17.5 -25.834 17.5 -42.501s-5.83301 -30.834 -17.5 -42.501
s-25.834 -17.5 -42.501 -17.5z" />
    <glyph glyph-name="uni0122" unicode="&#x122;" horiz-adv-x="768" 
d="M403 -10c-64 0 -121.166 14.002 -171.499 42.002s-89.833 66.167 -118.5 114.5s-43 103.5 -43 165.5c0 51.333 9.16699 98.666 27.5 141.999s44 81.166 77 113.499s70.833 57.5 113.5 75.5s88.667 27 138 27c34.667 0 64.334 -2 89.001 -6s46.667 -9.66699 66 -17
s38.666 -15.666 57.999 -24.999l5 -165h-16l-65 112c-28 19.333 -51.833 32.666 -71.5 39.999s-42.167 11 -67.5 11c-51.333 0 -97 -11.167 -137 -33.5s-71.333 -53 -94 -92s-34 -83.167 -34 -132.5c0 -66.667 12.167 -123.334 36.5 -170.001
s57.166 -82.334 98.499 -107.001s87.333 -37 138 -37c22 0 43.167 1.33301 63.5 4s41.5 8.33398 63.5 17.001v165l-89 40v16h248v-16l-69 -43v-157c-30.667 -25.333 -68.5 -45.666 -113.5 -60.999s-89.167 -23 -132.5 -23zM420.001 710.002
c-67.333 0 -101.001 25.999 -101.001 77.999c0 26.667 10.333 47.167 31 61.5s47 21.5 79 21.5c4.66699 0 9.83398 -0.166992 15.501 -0.5s10.5 -1.16602 14.5 -2.49902v-15c-8 2 -16 3 -24 3c-18 0 -32.167 -3.16699 -42.5 -9.5s-15.5 -16.166 -15.5 -29.499
c0 -16.667 6.66699 -27.834 20 -33.501s34.333 -8.5 63 -8.5v-44c0 -6 -3 -11 -9 -15s-16.333 -6 -31 -6z" />
    <glyph glyph-name="uni0123" unicode="&#x123;" horiz-adv-x="546" 
d="M258 142c-29.333 0 -56.334 5.33398 -81.001 16.001c-13.333 -5.33301 -22.833 -12.333 -28.5 -21s-8.5 -18 -8.5 -28c0 -33.333 23.667 -50 71 -50h120c48.667 0 84.5 -10.667 107.5 -32s34.5 -53 34.5 -95c0 -28.667 -9.5 -56.167 -28.5 -82.5s-46 -47.833 -81 -64.5
s-76.5 -25 -124.5 -25c-63.333 0 -108.833 11.5 -136.5 34.5s-41.5 51.167 -41.5 84.5c0 24.667 6 46 18 64l69 46v4c-25.333 5.33301 -44.666 15.166 -57.999 29.499s-20 31.833 -20 52.5c0 25.333 8.66699 46.666 26 63.999l54 28v6c-21.333 14 -38.333 32 -51 54
s-19 46.667 -19 74c0 30 7.66699 57 23 81s36.5 43 63.5 57s57.5 21 91.5 21c14 0 29.167 -1.66699 45.5 -5s30.5 -7.66602 42.5 -12.999l150 8v-54l-93 6l-4 -4c10.667 -12 19.5 -26.667 26.5 -44s10.5 -35 10.5 -53c0 -30 -7.66699 -57 -23 -81s-36.5 -43 -63.5 -57
s-57.5 -21 -91.5 -21zM267.999 183.001c26.667 0 47.667 11.5 63 34.5s23 49.833 23 80.5c0 36.667 -10 66.167 -30 88.5s-44.333 33.5 -73 33.5s-50.667 -11.5 -66 -34.5s-23 -50.167 -23 -81.5c0 -34.667 10 -63.5 30 -86.5s45.333 -34.5 76 -34.5zM131.999 -109.999
c0 -29.333 11.502 -53.667 34.502 -73s51.167 -29 84.5 -29c30 0 56.167 5.83301 78.5 17.5s39.666 27 51.999 46s18.5 39.167 18.5 60.5c0 29.333 -7.83301 49.666 -23.5 60.999s-43.834 17 -84.501 17h-107h-5c-18 -10.667 -30.5 -24.167 -37.5 -40.5
s-10.5 -36.166 -10.5 -59.499zM283.001 538c-67.333 0 -101.001 25.999 -101.001 77.999c0 26.667 10.333 47.167 31 61.5s47 21.5 79 21.5c4.66699 0 9.83398 -0.166992 15.501 -0.5s10.5 -1.16602 14.5 -2.49902v-15c-8 2 -16 3 -24 3c-18 0 -32.167 -3.16699 -42.5 -9.5
s-15.5 -16.166 -15.5 -29.499c0 -16.667 6.66699 -27.834 20 -33.501s34.333 -8.5 63 -8.5v-44c0 -6 -3 -11 -9 -15s-16.333 -6 -31 -6z" />
    <glyph glyph-name="uni0124" unicode="&#x124;" horiz-adv-x="810" 
d="M65 0v16l80 40v548l-80 40v16h250v-16l-80 -40v-236h340v236l-80 40v16h250v-16l-80 -40v-548l80 -40v-16h-250v16l80 40v257h-340v-257l80 -40v-16h-250zM258 710l132 152h30l132 -152h-11l-136 75l-136 -75h-11z" />
    <glyph glyph-name="uni0125" unicode="&#x125;" horiz-adv-x="582" 
d="M48 0l-0.000976562 16.002l63 32v588l-60 52v7l134 55h6v-364h4c25.333 25.333 49.833 44 73.5 56s49.834 18 78.501 18c39.333 0 71.5 -9.83301 96.5 -29.5s37.5 -48.834 37.5 -87.501v-295l63 -32v-16h-214v16l71 29v251c0 29.333 -9.16699 51.666 -27.5 66.999
s-42.166 23 -71.499 23c-18 0 -37.833 -3 -59.5 -9s-38.834 -14.667 -51.501 -26v-306l71 -29v-16h-214zM148.999 765.002l132 152h30l132 -152h-11l-136 75l-136 -75h-11z" />
    <glyph glyph-name="uni0126" unicode="&#x126;" horiz-adv-x="810" 
d="M65 0v16l80 40v414h-80v50h80v84l-80 40v16h250v-16l-80 -40v-84h340v84l-80 40v16h250v-16l-80 -40v-84h80v-50h-80v-414l80 -40v-16h-250v16l80 40v257h-340v-257l80 -40v-16h-250zM235 368h340v102h-340v-102z" />
    <glyph glyph-name="uni0127" unicode="&#x127;" horiz-adv-x="582" 
d="M191 45l70.999 -28.998v-16h-214v16l63 32v490h-63v47h63v51l-60 52v7l134 55h6v-165h144v-47h-144v-152h4c25.333 25.333 49.833 44 73.5 56s49.834 18 78.501 18c39.333 0 71.5 -9.83301 96.5 -29.5s37.5 -48.834 37.5 -87.501v-295l63 -32v-16h-214v16l71 29v251
c0 29.333 -9.16699 51.666 -27.5 66.999s-42.166 23 -71.499 23c-18 0 -37.833 -3 -59.5 -9s-38.834 -14.667 -51.501 -26v-306z" />
    <glyph glyph-name="uni0128" unicode="&#x128;" horiz-adv-x="390" 
d="M70 0v16l80 40v548l-80 40v16h250v-16l-80 -40v-548l80 -40v-16h-250zM43 726c10.667 33.333 20.834 58.166 30.501 74.499s19.667 27 30 32s21.833 7.5 34.5 7.5c17.333 0 33.333 -4.33301 48 -13l42.5 -26c13.667 -8.66699 28.167 -13 43.5 -13
c12.667 0 24 3.33301 34 10s19.333 20.667 28 42h13c-10.667 -33.333 -20.834 -58.166 -30.501 -74.499s-19.667 -27 -30 -32s-21.833 -7.5 -34.5 -7.5c-17.333 0 -33.333 4.33301 -48 13l-42.5 26c-13.667 8.66699 -28.167 13 -43.5 13c-12.667 0 -24 -3.33301 -34 -10
s-19.333 -20.667 -28 -42h-13z" />
    <glyph glyph-name="uni0129" unicode="&#x129;" horiz-adv-x="313" 
d="M54 0v16l63 32v298l-60 52v7l134 55h6v-412l63 -32v-16h-206zM5 556c12 36 22.667 62.833 32 80.5s19 29.334 29 35.001s21.333 8.5 34 8.5s24.834 -3.33301 36.501 -10s22.834 -14.167 33.501 -22.5s21.167 -15.833 31.5 -22.5s21.166 -10 32.499 -10
c12.667 0 23.5 4.5 32.5 13.5s18.833 26.167 29.5 51.5h13c-12 -36 -22.667 -62.833 -32 -80.5s-19 -29.334 -29 -35.001s-21.333 -8.5 -34 -8.5s-24.834 3.33301 -36.501 10s-22.834 14.167 -33.501 22.5s-21.167 15.833 -31.5 22.5s-21.166 10 -32.499 10
c-12.667 0 -23.5 -4.5 -32.5 -13.5s-18.833 -26.167 -29.5 -51.5h-13z" />
    <glyph glyph-name="uni012A" unicode="&#x12a;" horiz-adv-x="390" 
d="M70 0v16l80 40v548l-80 40v16h250v-16l-80 -40v-548l80 -40v-16h-250zM62 764v50h266v-50h-266z" />
    <glyph glyph-name="uni012B" unicode="&#x12b;" horiz-adv-x="313" 
d="M54 0v16l63 32v298l-60 52v7l134 55h6v-412l63 -32v-16h-206zM24 592v50h266v-50h-266z" />
    <glyph glyph-name="uni012C" unicode="&#x12c;" horiz-adv-x="390" 
d="M70 0v16l80 40v548l-80 40v16h250v-16l-80 -40v-548l80 -40v-16h-250zM195 710c-42.667 0 -74.8359 13.667 -96.5029 41s-38.167 64.333 -49.5 111h11c12.667 -24 24.834 -42 36.501 -54s25.334 -20.167 41.001 -24.5s34.834 -6.5 57.501 -6.5s41.667 2.16699 57 6.5
s29 12.5 41 24.5s24.333 30 37 54h11c-12 -46.667 -28.667 -83.667 -50 -111s-53.333 -41 -96 -41z" />
    <glyph glyph-name="uni012D" unicode="&#x12d;" horiz-adv-x="313" 
d="M54 0v16l63 32v298l-60 52v7l134 55h6v-412l63 -32v-16h-206zM157 540c-42.667 0 -74.499 13.833 -95.499 41.5s-37.833 69.5 -50.5 125.5h11c14 -30 27.5 -52.167 40.5 -66.5s27 -23.5 42 -27.5s32.5 -6 52.5 -6s37.333 2 52 6s28.667 13.167 42 27.5s27 36.5 41 66.5
h11c-13.333 -56 -30.333 -97.833 -51 -125.5s-52.334 -41.5 -95.001 -41.5z" />
    <glyph glyph-name="uni012E" unicode="&#x12e;" horiz-adv-x="390" 
d="M70 0v15.999l80 40v548l-80 40v16h250v-16l-80 -40v-548l80 -40v-16h-105c-16 -25.333 -27.667 -48.5 -35 -69.5s-11 -41.167 -11 -60.5c0 -22.667 5.66699 -39.167 17 -49.5s27.333 -15.5 48 -15.5c7.33301 0 15.166 0.833008 23.499 2.5s17.166 4.83398 26.499 9.50098
h3v-12c-8.66699 -14 -20.167 -25 -34.5 -33s-31.166 -12 -50.499 -12c-29.333 0 -53.166 8 -71.499 24s-27.5 37.333 -27.5 64c0 24 8 48 24 72s36.667 50.667 62 80h-119z" />
    <glyph glyph-name="uni012F" unicode="&#x12f;" horiz-adv-x="313" 
d="M154 581c-17.333 0 -31.666 5.83301 -42.999 17.5s-17 25.834 -17 42.501c0 17.333 5.66699 31.666 17 42.999s25.666 17 42.999 17s31.666 -5.66699 42.999 -17s17 -25.666 17 -42.999c0 -16.667 -5.66699 -30.834 -17 -42.501s-25.666 -17.5 -42.999 -17.5zM54 0
v15.999l63 32v298l-60 52v7l134 55h6v-412l63 -32v-16h-82c-16 -25.333 -27.667 -48.5 -35 -69.5s-11 -41.167 -11 -60.5c0 -22.667 5.66699 -39.167 17 -49.5s27.333 -15.5 48 -15.5c7.33301 0 15.333 0.833008 24 2.5s17.334 4.83398 26.001 9.50098h3v-12
c-9.33301 -14 -21 -25 -35 -33s-30.667 -12 -50 -12c-28.667 0 -52.334 8 -71.001 24s-28 37.333 -28 64c0 24 8 48 24 72s36.667 50.667 62 80h-98z" />
    <glyph glyph-name="uni0130" unicode="&#x130;" horiz-adv-x="390" 
d="M70 0v16l80 40v548l-80 40v16h250v-16l-80 -40v-548l80 -40v-16h-250zM195 726c-16.667 0 -30.834 5.83301 -42.501 17.5s-17.5 25.834 -17.5 42.501s5.83301 30.834 17.5 42.501s25.834 17.5 42.501 17.5s30.834 -5.83301 42.501 -17.5s17.5 -25.834 17.5 -42.501
s-5.83301 -30.834 -17.5 -42.501s-25.834 -17.5 -42.501 -17.5z" />
    <glyph glyph-name="uni0131" unicode="&#x131;" horiz-adv-x="313" 
d="M54 0v16l63 32v298l-60 52v7l134 55h6v-412l63 -32v-16h-206z" />
    <glyph glyph-name="uni0132" unicode="&#x132;" horiz-adv-x="780" 
d="M70 0v16l80 40v548l-80 40v16h250v-16l-80 -40v-548l80 -40v-16h-250zM436 -173c-8.66699 0 -16.333 2.00098 -23 6.00098s-10 11.333 -10 22c0 1.33301 0.5 4.66602 1.5 9.99902l8.5 44h6c11.333 -3.33301 20.333 -5.66602 27 -6.99902s14.667 -2 24 -2
c14.667 0 27.167 3.33301 37.5 10s18.333 20.667 24 42s8.5 54.333 8.5 99v553l-80 40v16h250v-16l-80 -40v-364c0 -74.667 -6 -141.834 -18 -201.501s-32.333 -105.5 -61 -137.5c-19.333 -21.333 -35 -37.333 -47 -48s-23 -17.667 -33 -21s-21.667 -5 -35 -5z" />
    <glyph glyph-name="uni0133" unicode="&#x133;" horiz-adv-x="627" 
d="M154 581c-17.333 0 -31.666 5.83301 -42.999 17.5s-17 25.834 -17 42.501c0 17.333 5.66699 31.666 17 42.999s25.666 17 42.999 17s31.666 -5.66699 42.999 -17s17 -25.666 17 -42.999c0 -16.667 -5.66699 -30.834 -17 -42.501s-25.666 -17.5 -42.999 -17.5zM54 0v16
l63 32v298l-60 52v7l134 55h6v-412l63 -32v-16h-206zM467 581c-17.333 0 -31.666 5.83301 -42.999 17.5s-17 25.834 -17 42.501c0 17.333 5.66699 31.666 17 42.999s25.666 17 42.999 17s31.666 -5.66699 42.999 -17s17 -25.666 17 -42.999
c0 -16.667 -5.66699 -30.834 -17 -42.501s-25.666 -17.5 -42.999 -17.5zM367 -230l0.000976562 16c15.333 14.667 27.666 30.5 36.999 47.5s16 38 20 63s6 56.167 6 93.5v356l-60 52v7l134 55h6v-460c0 -50.667 -10.167 -95 -30.5 -133s-57.833 -70.333 -112.5 -97z" />
    <glyph glyph-name="uni0134" unicode="&#x134;" horiz-adv-x="390" 
d="M46 -173c-8.66699 0 -16.333 2.00098 -23 6.00098s-10 11.333 -10 22c0 1.33301 0.5 4.66602 1.5 9.99902l8.5 44h6c11.333 -3.33301 20.333 -5.66602 27 -6.99902s14.667 -2 24 -2c14.667 0 27.167 3.33301 37.5 10s18.333 20.667 24 42s8.5 54.333 8.5 99v553l-80 40
v16h250v-16l-80 -40v-364c0 -74.667 -6 -141.834 -18 -201.501s-32.333 -105.5 -61 -137.5c-19.333 -21.333 -35 -37.333 -47 -48s-23 -17.667 -33 -21s-21.667 -5 -35 -5zM48.001 710.001l132 152h30l132 -152h-11l-136 75l-136 -75h-11z" />
    <glyph glyph-name="uni0135" unicode="&#x135;" horiz-adv-x="314" 
d="M197 0c0 -50.667 -10.166 -95 -30.499 -133s-57.833 -70.333 -112.5 -97v16c15.333 14.667 27.666 30.5 36.999 47.5s16 38 20 63s6 56.167 6 93.5v356l-60 52v7l134 55h6v-460zM4.00098 530l132 177h30l132 -177h-11l-136 95l-136 -95h-11z" />
    <glyph glyph-name="uni0136" unicode="&#x136;" horiz-adv-x="719" 
d="M65 0v16l80 40v548l-80 40v16h250v-16l-80 -40v-548l80 -40v-16h-250zM236 338l277 272l-71 34v16h210v-16l-62 -24l-263 -258l316 -320l61 -26v-16h-144zM348 -239c-4.66699 0 -9.99902 0.168945 -15.999 0.501953s-11 1.16602 -15 2.49902v15
c4 -0.666992 8.33301 -1.33398 13 -2.00098s8.66699 -1 12 -1c18 0 32.167 3.16699 42.5 9.5s15.5 16.166 15.5 29.499c0 16.667 -6.83301 27.834 -20.5 33.501s-34.834 8.5 -63.501 8.5v44c0 6 3 11 9 15s16.667 6 32 6c67.333 0 101 -26 101 -78
c0 -26.667 -10.333 -47.167 -31 -61.5s-47 -21.5 -79 -21.5z" />
    <glyph glyph-name="uni0137" unicode="&#x137;" horiz-adv-x="558" 
d="M48 0v16l63 32v588l-60 52v7l134 55h6v-495l161 137v6l-49 36v16h190v-16l-64 -35l-165 -127l202 -222l64 -34v-16h-132l-38 52l-169 188v-195l71 -29v-16h-214zM258 -239c-4.66699 0 -9.99902 0.168945 -15.999 0.501953s-11 1.16602 -15 2.49902v15
c4 -0.666992 8.33301 -1.33398 13 -2.00098s8.66699 -1 12 -1c18 0 32.167 3.16699 42.5 9.5s15.5 16.166 15.5 29.499c0 16.667 -6.83301 27.834 -20.5 33.501s-34.834 8.5 -63.501 8.5v44c0 6 3 11 9 15s16.667 6 32 6c67.333 0 101 -26 101 -78
c0 -26.667 -10.333 -47.167 -31 -61.5s-47 -21.5 -79 -21.5z" />
    <glyph glyph-name="uni0138" unicode="&#x138;" horiz-adv-x="558" 
d="M48 0v16l63 32v298l-60 52v7l134 55h6v-205l161 137v6l-49 36v16h190v-16l-64 -35l-165 -127l202 -222l64 -34v-16h-132l-38 52l-169 188v-195l71 -29v-16h-214z" />
    <glyph glyph-name="uni0139" unicode="&#x139;" horiz-adv-x="632" 
d="M65 0v16l80 40v548l-80 40v16h260v-16l-90 -40v-549h243l68 167h16v-222h-497zM185 710l87.001 152.001h82c0 -10 -1.83301 -20.333 -5.5 -31s-12.834 -21.334 -27.501 -32.001l-125 -89h-11z" />
    <glyph glyph-name="uni013A" unicode="&#x13a;" horiz-adv-x="294" 
d="M44 0v16l63 32v588l-60 52v7l134 55h6v-702l63 -32v-16h-206zM142 765l87.001 152.001h82c0 -10 -1.83301 -20.333 -5.5 -31s-12.834 -21.334 -27.501 -32.001l-125 -89h-11z" />
    <glyph glyph-name="uni013B" unicode="&#x13b;" horiz-adv-x="632" 
d="M65 0v16l80 40v548l-80 40v16h260v-16l-90 -40v-549h243l68 167h16v-222h-497zM317 -239c-4.66699 0 -9.99902 0.168945 -15.999 0.501953s-11 1.16602 -15 2.49902v15c4 -0.666992 8.33301 -1.33398 13 -2.00098s8.66699 -1 12 -1c18 0 32.167 3.16699 42.5 9.5
s15.5 16.166 15.5 29.499c0 16.667 -6.83301 27.834 -20.5 33.501s-34.834 8.5 -63.501 8.5v44c0 6 3 11 9 15s16.667 6 32 6c67.333 0 101 -26 101 -78c0 -26.667 -10.333 -47.167 -31 -61.5s-47 -21.5 -79 -21.5z" />
    <glyph glyph-name="uni013C" unicode="&#x13c;" horiz-adv-x="294" 
d="M44 0v16l63 32v588l-60 52v7l134 55h6v-702l63 -32v-16h-206zM110 -239c-4.66699 0 -9.99902 0.168945 -15.999 0.501953s-11 1.16602 -15 2.49902v15c4 -0.666992 8.33301 -1.33398 13 -2.00098s8.66699 -1 12 -1c18 0 32.167 3.16699 42.5 9.5s15.5 16.166 15.5 29.499
c0 16.667 -6.83301 27.834 -20.5 33.501s-34.834 8.5 -63.501 8.5v44c0 6 3 11 9 15s16.667 6 32 6c67.333 0 101 -26 101 -78c0 -26.667 -10.333 -47.167 -31 -61.5s-47 -21.5 -79 -21.5z" />
    <glyph glyph-name="uni013D" unicode="&#x13d;" horiz-adv-x="632" 
d="M65 0v16l80 40v548l-80 40v16h260v-16l-90 -40v-549h243l68 167h16v-222h-497zM417 473l21 187h75c2 -9.33301 2.83301 -19 2.5 -29s-4.83301 -22 -13.5 -36l-74 -122h-11z" />
    <glyph glyph-name="uni013E" unicode="&#x13e;" horiz-adv-x="294" 
d="M44 0v16l63 32v588l-60 52v7l134 55h6v-702l63 -32v-16h-206zM255 553l21 187h75c2 -9.33301 2.83301 -19 2.5 -29s-4.83301 -22 -13.5 -36l-74 -122h-11z" />
    <glyph glyph-name="uni013F" unicode="&#x13f;" horiz-adv-x="632" 
d="M65 0v16l80 40v548l-80 40v16h260v-16l-90 -40v-549h243l68 167h16v-222h-497zM490 287c-16.667 0 -30.834 5.83301 -42.501 17.5s-17.5 25.834 -17.5 42.501s5.83301 30.834 17.5 42.501s25.834 17.5 42.501 17.5s30.834 -5.83301 42.501 -17.5
s17.5 -25.834 17.5 -42.501s-5.83301 -30.834 -17.5 -42.501s-25.834 -17.5 -42.501 -17.5z" />
    <glyph glyph-name="uni0140" unicode="&#x140;" horiz-adv-x="294" 
d="M44 0v16l63 32v588l-60 52v7l134 55h6v-702l63 -32v-16h-206zM295 240c-16.667 0 -30.834 5.83301 -42.501 17.5s-17.5 25.834 -17.5 42.501s5.83301 30.834 17.5 42.501s25.834 17.5 42.501 17.5s30.834 -5.83301 42.501 -17.5s17.5 -25.834 17.5 -42.501
s-5.83301 -30.834 -17.5 -42.501s-25.834 -17.5 -42.501 -17.5z" />
    <glyph glyph-name="uni0141" unicode="&#x141;" horiz-adv-x="632" 
d="M65 0v16l80 40v195l-79 -55v59l79 55v294l-80 40v16h260v-16l-90 -40v-244l148 100v-59l-148 -100v-246h243l68 167h16v-222h-497z" />
    <glyph glyph-name="uni0142" unicode="&#x142;" horiz-adv-x="294" 
d="M44 0v16l63 32v257l-63 -39v56l63 39v275l-60 52v7l124 55h16v-346l73 46v-56l-73 -46v-300l63 -32v-16h-206z" />
    <glyph glyph-name="uni0143" unicode="&#x143;" horiz-adv-x="799" 
d="M60 0v16l80 40v546l-79 42v16h147l382 -480v426l-100 38v16h249v-16l-79 -39v-610h-37l-413 521v-461l100 -39v-16h-250zM405 710l87.001 152.001h82c0 -10 -1.83301 -20.333 -5.5 -31s-12.834 -21.334 -27.501 -32.001l-125 -89h-11z" />
    <glyph glyph-name="uni0144" unicode="&#x144;" horiz-adv-x="582" 
d="M48 0l-0.000976562 16.002l63 32v298l-60 52v7l124 55h6l9 -74h5c25.333 25.333 49.833 44 73.5 56s49.834 18 78.501 18c39.333 0 71.5 -9.83301 96.5 -29.5s37.5 -48.834 37.5 -87.501v-295l63 -32v-16h-214v16l71 32v248c0 29.333 -9.16699 51.666 -27.5 66.999
s-42.166 23 -71.499 23c-18 0 -37.833 -3 -59.5 -9s-38.834 -14.667 -51.501 -26v-303l71 -32v-16h-214zM295.999 530.002l86.999 177h82c0 -10 -2.16699 -20 -6.5 -30s-13.166 -21 -26.499 -33l-125 -114h-11z" />
    <glyph glyph-name="uni0145" unicode="&#x145;" horiz-adv-x="799" 
d="M60 0v16l80 40v546l-79 42v16h147l382 -480v426l-100 38v16h249v-16l-79 -39v-610h-37l-413 521v-461l100 -39v-16h-250zM383 -239c-4.66699 0 -9.99902 0.168945 -15.999 0.501953s-11 1.16602 -15 2.49902v15c4 -0.666992 8.33301 -1.33398 13 -2.00098
s8.66699 -1 12 -1c18 0 32.167 3.16699 42.5 9.5s15.5 16.166 15.5 29.499c0 16.667 -6.83301 27.834 -20.5 33.501s-34.834 8.5 -63.501 8.5v44c0 6 3 11 9 15s16.667 6 32 6c67.333 0 101 -26 101 -78c0 -26.667 -10.333 -47.167 -31 -61.5s-47 -21.5 -79 -21.5z" />
    <glyph glyph-name="uni0146" unicode="&#x146;" horiz-adv-x="582" 
d="M48 0l-0.000976562 16.002l63 32v298l-60 52v7l124 55h6l9 -74h5c25.333 25.333 49.833 44 73.5 56s49.834 18 78.501 18c39.333 0 71.5 -9.83301 96.5 -29.5s37.5 -48.834 37.5 -87.501v-295l63 -32v-16h-214v16l71 32v248c0 29.333 -9.16699 51.666 -27.5 66.999
s-42.166 23 -71.499 23c-18 0 -37.833 -3 -59.5 -9s-38.834 -14.667 -51.501 -26v-303l71 -32v-16h-214zM258.999 -238.998c-4.66699 0 -9.99902 0.168945 -15.999 0.501953s-11 1.16602 -15 2.49902v15c4 -0.666992 8.33301 -1.33398 13 -2.00098s8.66699 -1 12 -1
c18 0 32.167 3.16699 42.5 9.5s15.5 16.166 15.5 29.499c0 16.667 -6.83301 27.834 -20.5 33.501s-34.834 8.5 -63.501 8.5v44c0 6 3 11 9 15s16.667 6 32 6c67.333 0 101 -26 101 -78c0 -26.667 -10.333 -47.167 -31 -61.5s-47 -21.5 -79 -21.5z" />
    <glyph glyph-name="uni0147" unicode="&#x147;" horiz-adv-x="799" 
d="M60 0v16l80 40v546l-79 42v16h147l382 -480v426l-100 38v16h249v-16l-79 -39v-610h-37l-413 521v-461l100 -39v-16h-250zM395 710l-132 152h11l136 -75l136 75h11l-132 -152h-30z" />
    <glyph glyph-name="uni0148" unicode="&#x148;" horiz-adv-x="582" 
d="M48 0l-0.000976562 16.002l63 32v298l-60 52v7l124 55h6l9 -74h5c25.333 25.333 49.833 44 73.5 56s49.834 18 78.501 18c39.333 0 71.5 -9.83301 96.5 -29.5s37.5 -48.834 37.5 -87.501v-295l63 -32v-16h-214v16l71 32v248c0 29.333 -9.16699 51.666 -27.5 66.999
s-42.166 23 -71.499 23c-18 0 -37.833 -3 -59.5 -9s-38.834 -14.667 -51.501 -26v-303l71 -32v-16h-214zM280.999 530.002l-132 177h11l136 -95l136 95h11l-132 -177h-30z" />
    <glyph glyph-name="uni014A" unicode="&#x14a;" horiz-adv-x="799" 
d="M60 0v15.999l80 40v546l-79 42v16h147l382 -479v425l-100 38v16h249v-16l-79 -39v-631c0 -46.667 -6 -83.5 -18 -110.5s-27.667 -48.167 -47 -63.5c-15.333 -13.333 -34 -23.333 -56 -30s-44.667 -10 -68 -10c-15.333 0 -26.166 2 -32.499 6s-9.5 11.667 -9.5 23v50l4 4
h46c43.333 0 72.666 8.33301 87.999 25s23 45.334 23 86.001v82l-380 474v-455l100 -39v-16h-250z" />
    <glyph glyph-name="uni014B" unicode="&#x14b;" horiz-adv-x="582" 
d="M48 0l-0.000976562 16.002l63 32v298l-60 52v7l124 55h6l9 -74h5c25.333 25.333 49.833 44 73.5 56s49.834 18 78.501 18c39.333 0 71.5 -9.83301 96.5 -29.5s37.5 -48.834 37.5 -87.501v-333c0 -46.667 -6 -84.5 -18 -113.5s-31.5 -53 -58.5 -72
s-63.167 -37.167 -108.5 -54.5v16c24 13.333 43.667 27.833 59 43.5s26.833 36 34.5 61s11.5 58.167 11.5 99.5v306c0 29.333 -9.16699 51.666 -27.5 66.999s-42.166 23 -71.499 23c-18 0 -37.833 -3 -59.5 -9s-38.834 -14.667 -51.501 -26v-303l71 -32v-16h-214z" />
    <glyph glyph-name="uni014C" unicode="&#x14c;" horiz-adv-x="807" 
d="M403 -10c-48 0 -92.167 8.5 -132.5 25.5s-75.5 40.667 -105.5 71s-53.333 66.166 -70 107.499s-25 86.666 -25 135.999s8.33301 94.666 25 135.999s40 77.166 70 107.499s65.167 54 105.5 71s84.5 25.5 132.5 25.5s92.333 -8.5 133 -25.5s76 -40.667 106 -71
s53.333 -66.166 70 -107.499s25 -86.666 25 -135.999s-8.33301 -94.666 -25 -135.999s-40 -77.166 -70 -107.499s-65.333 -54 -106 -71s-85 -25.5 -133 -25.5zM424 40c42.667 0 80.167 10.6689 112.5 32.002s57.666 51.333 75.999 90s27.5 84.334 27.5 137.001
c0 64.667 -11.333 121.167 -34 169.5s-53.167 85.833 -91.5 112.5s-81.166 40 -128.499 40c-42.667 0 -80.5 -10.5 -113.5 -31.5s-58.833 -50.833 -77.5 -89.5s-28 -84.334 -28 -137.001c0 -64.667 11.5 -121.334 34.5 -170.001s53.833 -86.334 92.5 -113.001
s82 -40 130 -40zM258 764.002v50h266v-50h-266z" />
    <glyph glyph-name="uni014D" unicode="&#x14d;" horiz-adv-x="540" 
d="M270 -10c-44 0 -82.5 10.333 -115.5 31s-58.667 48.667 -77 84s-27.5 75.333 -27.5 120s9.16699 84.667 27.5 120s44 63.333 77 84s71.5 31 115.5 31s82.5 -10.333 115.5 -31s58.667 -48.667 77 -84s27.5 -75.333 27.5 -120s-9.16699 -84.667 -27.5 -120
s-44 -63.333 -77 -84s-71.5 -31 -115.5 -31zM284 33c26.667 0 48.666 8.33301 65.999 25s30 38.167 38 64.5s12 53.833 12 82.5c0 35.333 -4.83301 69.333 -14.5 102s-25 59.334 -46 80.001s-48.167 31 -81.5 31c-27.333 0 -49.666 -8.33301 -66.999 -25
s-30.166 -38 -38.499 -64s-12.5 -53.667 -12.5 -83c0 -35.333 5 -69.333 15 -102s25.667 -59.334 47 -80.001s48.666 -31 81.999 -31zM133.999 592v50h266v-50h-266z" />
    <glyph glyph-name="uni014E" unicode="&#x14e;" horiz-adv-x="807" 
d="M403 -10c-48 0 -92.167 8.5 -132.5 25.5s-75.5 40.667 -105.5 71s-53.333 66.166 -70 107.499s-25 86.666 -25 135.999s8.33301 94.666 25 135.999s40 77.166 70 107.499s65.167 54 105.5 71s84.5 25.5 132.5 25.5s92.333 -8.5 133 -25.5s76 -40.667 106 -71
s53.333 -66.166 70 -107.499s25 -86.666 25 -135.999s-8.33301 -94.666 -25 -135.999s-40 -77.166 -70 -107.499s-65.333 -54 -106 -71s-85 -25.5 -133 -25.5zM424 40c42.667 0 80.167 10.6689 112.5 32.002s57.666 51.333 75.999 90s27.5 84.334 27.5 137.001
c0 64.667 -11.333 121.167 -34 169.5s-53.167 85.833 -91.5 112.5s-81.166 40 -128.499 40c-42.667 0 -80.5 -10.5 -113.5 -31.5s-58.833 -50.833 -77.5 -89.5s-28 -84.334 -28 -137.001c0 -64.667 11.5 -121.334 34.5 -170.001s53.833 -86.334 92.5 -113.001
s82 -40 130 -40zM391 710.002c-42.667 0 -74.8359 13.667 -96.5029 41s-38.167 64.333 -49.5 111h11c12.667 -24 24.834 -42 36.501 -54s25.334 -20.167 41.001 -24.5s34.834 -6.5 57.501 -6.5s41.667 2.16699 57 6.5s29 12.5 41 24.5s24.333 30 37 54h11
c-12 -46.667 -28.667 -83.667 -50 -111s-53.333 -41 -96 -41z" />
    <glyph glyph-name="uni014F" unicode="&#x14f;" horiz-adv-x="540" 
d="M270 -10c-44 0 -82.5 10.333 -115.5 31s-58.667 48.667 -77 84s-27.5 75.333 -27.5 120s9.16699 84.667 27.5 120s44 63.333 77 84s71.5 31 115.5 31s82.5 -10.333 115.5 -31s58.667 -48.667 77 -84s27.5 -75.333 27.5 -120s-9.16699 -84.667 -27.5 -120
s-44 -63.333 -77 -84s-71.5 -31 -115.5 -31zM284 33c26.667 0 48.666 8.33301 65.999 25s30 38.167 38 64.5s12 53.833 12 82.5c0 35.333 -4.83301 69.333 -14.5 102s-25 59.334 -46 80.001s-48.167 31 -81.5 31c-27.333 0 -49.666 -8.33301 -66.999 -25
s-30.166 -38 -38.499 -64s-12.5 -53.667 -12.5 -83c0 -35.333 5 -69.333 15 -102s25.667 -59.334 47 -80.001s48.666 -31 81.999 -31zM266.999 540c-42.667 0 -74.499 13.833 -95.499 41.5s-37.833 69.5 -50.5 125.5h11c14 -30 27.5 -52.167 40.5 -66.5s27 -23.5 42 -27.5
s32.5 -6 52.5 -6s37.333 2 52 6s28.667 13.167 42 27.5s27 36.5 41 66.5h11c-13.333 -56 -30.333 -97.833 -51 -125.5s-52.334 -41.5 -95.001 -41.5z" />
    <glyph glyph-name="uni0150" unicode="&#x150;" horiz-adv-x="807" 
d="M403 -10c-48 0 -92.167 8.5 -132.5 25.5s-75.5 40.667 -105.5 71s-53.333 66.166 -70 107.499s-25 86.666 -25 135.999s8.33301 94.666 25 135.999s40 77.166 70 107.499s65.167 54 105.5 71s84.5 25.5 132.5 25.5s92.333 -8.5 133 -25.5s76 -40.667 106 -71
s53.333 -66.166 70 -107.499s25 -86.666 25 -135.999s-8.33301 -94.666 -25 -135.999s-40 -77.166 -70 -107.499s-65.333 -54 -106 -71s-85 -25.5 -133 -25.5zM424 40c42.667 0 80.167 10.6689 112.5 32.002s57.666 51.333 75.999 90s27.5 84.334 27.5 137.001
c0 64.667 -11.333 121.167 -34 169.5s-53.167 85.833 -91.5 112.5s-81.166 40 -128.499 40c-42.667 0 -80.5 -10.5 -113.5 -31.5s-58.833 -50.833 -77.5 -89.5s-28 -84.334 -28 -137.001c0 -64.667 11.5 -121.334 34.5 -170.001s53.833 -86.334 92.5 -113.001
s82 -40 130 -40zM328 710.002l48 152.001h63c3.33301 -10 4.83301 -20.333 4.5 -31s-5.83301 -21.334 -16.5 -32.001l-88 -89h-11zM442 710.003l58 152h63c3.33301 -10 5 -20.5 5 -31.5s-5.66699 -21.5 -17 -31.5l-98 -89h-11z" />
    <glyph glyph-name="uni0151" unicode="&#x151;" horiz-adv-x="540" 
d="M270 -10c-44 0 -82.5 10.333 -115.5 31s-58.667 48.667 -77 84s-27.5 75.333 -27.5 120s9.16699 84.667 27.5 120s44 63.333 77 84s71.5 31 115.5 31s82.5 -10.333 115.5 -31s58.667 -48.667 77 -84s27.5 -75.333 27.5 -120s-9.16699 -84.667 -27.5 -120
s-44 -63.333 -77 -84s-71.5 -31 -115.5 -31zM284 33c26.667 0 48.666 8.33301 65.999 25s30 38.167 38 64.5s12 53.833 12 82.5c0 35.333 -4.83301 69.333 -14.5 102s-25 59.334 -46 80.001s-48.167 31 -81.5 31c-27.333 0 -49.666 -8.33301 -66.999 -25
s-30.166 -38 -38.499 -64s-12.5 -53.667 -12.5 -83c0 -35.333 5 -69.333 15 -102s25.667 -59.334 47 -80.001s48.666 -31 81.999 -31zM198.999 530l48 177h63c3.33301 -10 4.33301 -20 3 -30s-6.33301 -21 -15 -33l-88 -114h-11zM312.999 530l58.001 176.999h63
c3.33301 -10 4.66602 -20.167 3.99902 -30.5s-6 -21.166 -16 -32.499l-98 -114h-11z" />
    <glyph glyph-name="uni0152" unicode="&#x152;" horiz-adv-x="1013" 
d="M417 0c-72.667 0.666992 -134.832 14.502 -186.499 41.502s-91.334 64.833 -119.001 113.5s-41.5 105.667 -41.5 171s15.333 123.166 46 173.499s72.667 89.666 126 117.999s114 42.5 182 42.5h491v-172h-16l-62 117h-241v-237h170l50 83h16v-219h-16l-50 81h-170v-258
h269l62 127h16v-182h-526zM440.002 55.002l66 -0.00195312v550h-81c-54 0 -100.333 -11.167 -139 -33.5s-68.5 -54.166 -89.5 -95.499s-31.5 -90 -31.5 -146c0 -55.333 10.667 -103.666 32 -144.999s52.5 -73.333 93.5 -96s90.833 -34 149.5 -34z" />
    <glyph glyph-name="uni0153" unicode="&#x153;" horiz-adv-x="845" 
d="M270 -10c-44 0 -82.5029 10.335 -115.503 31.002s-58.667 48.667 -77 84s-27.5 75.333 -27.5 120s9.16699 84.667 27.5 120s44 63.333 77 84s71.5 31 115.5 31c40.667 0 76.834 -9 108.501 -27s56.834 -42.333 75.501 -73c20 30.667 44.833 55 74.5 73s61.5 27 95.5 27
c52.667 0 94.167 -18.333 124.5 -55s45.5 -89.334 45.5 -158.001l-5 -5h-299c0.666992 -30.667 6.66699 -59.5 18 -86.5s29.5 -48.833 54.5 -65.5s58.5 -25 100.5 -25c36.667 0 79.667 13.333 129 40h3v-10c-15.333 -28.667 -38.166 -53.334 -68.499 -74.001
s-65.833 -31 -106.5 -31c-39.333 0 -73.833 7.66699 -103.5 23s-53.5 36.666 -71.5 63.999c-19.333 -27.333 -43.833 -48.666 -73.5 -63.999s-63.5 -23 -101.5 -23zM283.997 33.002c26.667 0 48.666 8.33301 65.999 25s30 38.167 38 64.5s12 53.833 12 82.5
c0 35.333 -4.83301 69.333 -14.5 102s-25 59.334 -46 80.001s-48.167 31 -81.5 31c-27.333 0 -49.666 -8.33301 -66.999 -25s-30.166 -38 -38.499 -64s-12.5 -53.667 -12.5 -83c0 -35.333 5 -69.333 15 -102s25.667 -59.334 47 -80.001s48.666 -31 81.999 -31z
M607.996 416.002c-32 0 -58.1689 -11.167 -78.502 -33.5s-32.833 -53.833 -37.5 -94.5h226c-7.33301 45.333 -20.166 78 -38.499 98s-42.166 30 -71.499 30z" />
    <glyph glyph-name="uni0154" unicode="&#x154;" horiz-adv-x="661" 
d="M65 0v16l80 40v548l-80 40v16h258c70 0 125.167 -14.5 165.5 -43.5s60.5 -68.833 60.5 -119.5c0 -37.333 -12.667 -70.833 -38 -100.5s-59 -52.167 -101 -67.5l190 -277l66 -36v-16h-144l-194 303h-93v-246l75 -41v-16h-245zM300 605l-65 -0.000976562v-247h71
c42 0 76.833 11.833 104.5 35.5s41.5 53.834 41.5 90.501c0 37.333 -13.667 66.833 -41 88.5s-64.333 32.5 -111 32.5zM312 709.999l87.001 152.001h82c0 -10 -1.83301 -20.333 -5.5 -31s-12.834 -21.334 -27.501 -32.001l-125 -89h-11z" />
    <glyph glyph-name="uni0155" unicode="&#x155;" horiz-adv-x="397" 
d="M52 0l0.00195312 16l63 32v298l-60 52v7l124 55h6l9 -85h4c15.333 24.667 29.5 43.167 42.5 55.5s25.167 20.333 36.5 24s22.666 5.5 33.999 5.5c5.33301 0 11.5 -1 18.5 -3s12.833 -4 17.5 -6c7.33301 -3.33301 14.166 -7.33301 20.499 -12s9.5 -10 9.5 -16
s-1.33301 -12 -4 -18l-20 -49h-7l-38 15c-7.33301 3.33301 -14.5 5.33301 -21.5 6s-13.833 1 -20.5 1c-28 0 -51.667 -14.333 -71 -43v-287l71 -32v-16h-214zM222.002 530l86.999 177h82c0 -10 -2.16699 -20 -6.5 -30s-13.166 -21 -26.499 -33l-125 -114h-11z" />
    <glyph glyph-name="uni0156" unicode="&#x156;" horiz-adv-x="661" 
d="M65 0v16l80 40v548l-80 40v16h258c70 0 125.167 -14.5 165.5 -43.5s60.5 -68.833 60.5 -119.5c0 -37.333 -12.667 -70.833 -38 -100.5s-59 -52.167 -101 -67.5l190 -277l66 -36v-16h-144l-194 303h-93v-246l75 -41v-16h-245zM300 605l-65 -0.000976562v-247h71
c42 0 76.833 11.833 104.5 35.5s41.5 53.834 41.5 90.501c0 37.333 -13.667 66.833 -41 88.5s-64.333 32.5 -111 32.5zM330 -239.001c-4.66699 0 -9.99902 0.168945 -15.999 0.501953s-11 1.16602 -15 2.49902v15c4 -0.666992 8.33301 -1.33398 13 -2.00098
s8.66699 -1 12 -1c18 0 32.167 3.16699 42.5 9.5s15.5 16.166 15.5 29.499c0 16.667 -6.83301 27.834 -20.5 33.501s-34.834 8.5 -63.501 8.5v44c0 6 3 11 9 15s16.667 6 32 6c67.333 0 101 -26 101 -78c0 -26.667 -10.333 -47.167 -31 -61.5s-47 -21.5 -79 -21.5z" />
    <glyph glyph-name="uni0157" unicode="&#x157;" horiz-adv-x="397" 
d="M52 0l0.00195312 16l63 32v298l-60 52v7l124 55h6l9 -85h4c15.333 24.667 29.5 43.167 42.5 55.5s25.167 20.333 36.5 24s22.666 5.5 33.999 5.5c5.33301 0 11.5 -1 18.5 -3s12.833 -4 17.5 -6c7.33301 -3.33301 14.166 -7.33301 20.499 -12s9.5 -10 9.5 -16
s-1.33301 -12 -4 -18l-20 -49h-7l-38 15c-7.33301 3.33301 -14.5 5.33301 -21.5 6s-13.833 1 -20.5 1c-28 0 -51.667 -14.333 -71 -43v-287l71 -32v-16h-214zM118.002 -239c-4.66699 0 -9.99902 0.168945 -15.999 0.501953s-11 1.16602 -15 2.49902v15
c4 -0.666992 8.33301 -1.33398 13 -2.00098s8.66699 -1 12 -1c18 0 32.167 3.16699 42.5 9.5s15.5 16.166 15.5 29.499c0 16.667 -6.83301 27.834 -20.5 33.501s-34.834 8.5 -63.501 8.5v44c0 6 3 11 9 15s16.667 6 32 6c67.333 0 101 -26 101 -78
c0 -26.667 -10.333 -47.167 -31 -61.5s-47 -21.5 -79 -21.5z" />
    <glyph glyph-name="uni0158" unicode="&#x158;" horiz-adv-x="661" 
d="M65 0v16l80 40v548l-80 40v16h258c70 0 125.167 -14.5 165.5 -43.5s60.5 -68.833 60.5 -119.5c0 -37.333 -12.667 -70.833 -38 -100.5s-59 -52.167 -101 -67.5l190 -277l66 -36v-16h-144l-194 303h-93v-246l75 -41v-16h-245zM300 605l-65 -0.000976562v-247h71
c42 0 76.833 11.833 104.5 35.5s41.5 53.834 41.5 90.501c0 37.333 -13.667 66.833 -41 88.5s-64.333 32.5 -111 32.5zM302 709.999l-132 152h11l136 -75l136 75h11l-132 -152h-30z" />
    <glyph glyph-name="uni0159" unicode="&#x159;" horiz-adv-x="397" 
d="M52 0l0.00195312 16l63 32v298l-60 52v7l124 55h6l9 -85h4c15.333 24.667 29.5 43.167 42.5 55.5s25.167 20.333 36.5 24s22.666 5.5 33.999 5.5c5.33301 0 11.5 -1 18.5 -3s12.833 -4 17.5 -6c7.33301 -3.33301 14.166 -7.33301 20.499 -12s9.5 -10 9.5 -16
s-1.33301 -12 -4 -18l-20 -49h-7l-38 15c-7.33301 3.33301 -14.5 5.33301 -21.5 6s-13.833 1 -20.5 1c-28 0 -51.667 -14.333 -71 -43v-287l71 -32v-16h-214zM207.002 530l-132 177h11l136 -95l136 95h11l-132 -177h-30z" />
    <glyph glyph-name="uni015A" unicode="&#x15a;" horiz-adv-x="531" 
d="M264 -10c-41.333 0 -76.332 3.83105 -104.999 11.498s-58.334 19.167 -89.001 34.5l-10 164h16l49 -106c24 -20 47.333 -34.5 70 -43.5s45.667 -13.5 69 -13.5c39.333 0 70.166 10.333 92.499 31s33.5 48.667 33.5 84c0 29.333 -6.5 52.333 -19.5 69
s-31.667 31.5 -56 44.5l-86.5 44.5c-31.333 16 -58 31.667 -80 47s-38.667 33.166 -50 53.499s-17 45.833 -17 76.5c0 22.667 5.5 44.834 16.5 66.501s26 41.334 45 59.001s40.333 31.667 64 42s48.167 15.5 73.5 15.5c30.667 0 59 -3.66699 85 -11
s52.667 -17.666 80 -30.999l10 -160h-16l-46 105c-23.333 17.333 -43.666 29.833 -60.999 37.5s-37.333 11.5 -60 11.5c-29.333 0 -53.5 -10 -72.5 -30s-28.5 -44.667 -28.5 -74c0 -34 10.333 -60.5 31 -79.5s53 -39.167 97 -60.5c40.667 -20 74 -38.5 100 -55.5
s45.333 -36.5 58 -58.5s19 -50 19 -84c0 -31.333 -6.66699 -58.833 -20 -82.5s-30.5 -43.5 -51.5 -59.5s-44 -28 -69 -36s-48.833 -12 -71.5 -12zM267.001 709.998l87.001 152.001h82c0 -10 -1.83301 -20.333 -5.5 -31s-12.834 -21.334 -27.501 -32.001l-125 -89h-11z" />
    <glyph glyph-name="uni015B" unicode="&#x15b;" horiz-adv-x="432" 
d="M213 -10c-31.333 0 -58.335 2.66895 -81.002 8.00195s-45.667 14 -69 26v112h14l32 -55c20.667 -36.667 54.334 -55 101.001 -55c26.667 0 47.5 6.33301 62.5 19s22.5 30 22.5 52c0 19.333 -4.66699 34.333 -14 45s-22.5 20.167 -39.5 28.5l-60.5 28.5
c-34 15.333 -60.167 32.166 -78.5 50.499s-27.5 44.166 -27.5 77.499c0 24.667 7 47 21 67s31.833 36 53.5 48s44.167 18 67.5 18c24.667 0 47.334 -3 68.001 -9s41.667 -14.333 63 -25v-109h-14l-33 53c-11.333 18 -23.666 31 -36.999 39s-27.666 12 -42.999 12
c-22.667 0 -40.834 -5.66699 -54.501 -17s-20.5 -27 -20.5 -47c0 -22.667 8.16699 -39.834 24.5 -51.501s40.166 -24.834 71.499 -39.501l56.5 -28c19 -9.33301 34.667 -22.5 47 -39.5s18.5 -41.167 18.5 -72.5c0 -29.333 -8 -54.166 -24 -74.499
s-35.667 -35.666 -59 -45.999s-46 -15.5 -68 -15.5zM214.998 530.002l86.999 177h82c0 -10 -2.16699 -20 -6.5 -30s-13.166 -21 -26.499 -33l-125 -114h-11z" />
    <glyph glyph-name="uni015C" unicode="&#x15c;" horiz-adv-x="531" 
d="M264 -10c-41.333 0 -76.332 3.83105 -104.999 11.498s-58.334 19.167 -89.001 34.5l-10 164h16l49 -106c24 -20 47.333 -34.5 70 -43.5s45.667 -13.5 69 -13.5c39.333 0 70.166 10.333 92.499 31s33.5 48.667 33.5 84c0 29.333 -6.5 52.333 -19.5 69
s-31.667 31.5 -56 44.5l-86.5 44.5c-31.333 16 -58 31.667 -80 47s-38.667 33.166 -50 53.499s-17 45.833 -17 76.5c0 22.667 5.5 44.834 16.5 66.501s26 41.334 45 59.001s40.333 31.667 64 42s48.167 15.5 73.5 15.5c30.667 0 59 -3.66699 85 -11
s52.667 -17.666 80 -30.999l10 -160h-16l-46 105c-23.333 17.333 -43.666 29.833 -60.999 37.5s-37.333 11.5 -60 11.5c-29.333 0 -53.5 -10 -72.5 -30s-28.5 -44.667 -28.5 -74c0 -34 10.333 -60.5 31 -79.5s53 -39.167 97 -60.5c40.667 -20 74 -38.5 100 -55.5
s45.333 -36.5 58 -58.5s19 -50 19 -84c0 -31.333 -6.66699 -58.833 -20 -82.5s-30.5 -43.5 -51.5 -59.5s-44 -28 -69 -36s-48.833 -12 -71.5 -12zM125.001 709.998l132 152h30l132 -152h-11l-136 75l-136 -75h-11z" />
    <glyph glyph-name="uni015D" unicode="&#x15d;" horiz-adv-x="432" 
d="M213 -10c-31.333 0 -58.335 2.66895 -81.002 8.00195s-45.667 14 -69 26v112h14l32 -55c20.667 -36.667 54.334 -55 101.001 -55c26.667 0 47.5 6.33301 62.5 19s22.5 30 22.5 52c0 19.333 -4.66699 34.333 -14 45s-22.5 20.167 -39.5 28.5l-60.5 28.5
c-34 15.333 -60.167 32.166 -78.5 50.499s-27.5 44.166 -27.5 77.499c0 24.667 7 47 21 67s31.833 36 53.5 48s44.167 18 67.5 18c24.667 0 47.334 -3 68.001 -9s41.667 -14.333 63 -25v-109h-14l-33 53c-11.333 18 -23.666 31 -36.999 39s-27.666 12 -42.999 12
c-22.667 0 -40.834 -5.66699 -54.501 -17s-20.5 -27 -20.5 -47c0 -22.667 8.16699 -39.834 24.5 -51.501s40.166 -24.834 71.499 -39.501l56.5 -28c19 -9.33301 34.667 -22.5 47 -39.5s18.5 -41.167 18.5 -72.5c0 -29.333 -8 -54.166 -24 -74.499
s-35.667 -35.666 -59 -45.999s-46 -15.5 -68 -15.5zM67.998 530.002l132 177h30l132 -177h-11l-136 95l-136 -95h-11z" />
    <glyph glyph-name="uni015E" unicode="&#x15e;" horiz-adv-x="531" 
d="M272 -240c-38 0 -65.6641 9.99414 -82.9971 29.9941v12h3c9.33301 -4 18.833 -7 28.5 -9s21.167 -3 34.5 -3c20 0 34 3.83301 42 11.5s12 16.834 12 27.501c0 14.667 -7 26.5 -21 35.5s-40.667 19.833 -80 32.5l43 93c-37.333 0.666992 -69.5 4.83398 -96.5 12.501
s-55.167 18.834 -84.5 33.501l-10 164h16l49 -106c24 -20 47.333 -34.5 70 -43.5s45.667 -13.5 69 -13.5c39.333 0 70.166 10.333 92.499 31s33.5 48.667 33.5 84c0 29.333 -6.5 52.333 -19.5 69s-31.667 31.5 -56 44.5l-86.5 44.5c-31.333 16 -58 31.667 -80 47
s-38.667 33.166 -50 53.499s-17 45.833 -17 76.5c0 22.667 5.5 44.834 16.5 66.501s26 41.334 45 59.001s40.333 31.667 64 42s48.167 15.5 73.5 15.5c30.667 0 59 -3.66699 85 -11s52.667 -17.666 80 -30.999l10 -160h-16l-46 105
c-22.667 17.333 -42.834 29.833 -60.501 37.5s-37.834 11.5 -60.501 11.5c-29.333 0 -53.5 -10 -72.5 -30s-28.5 -44.667 -28.5 -74c0 -34 10.333 -60.5 31 -79.5s53 -39.167 97 -60.5c40.667 -20 74 -38.5 100 -55.5s45.333 -36.5 58 -58.5s19 -50 19 -84
c0 -38 -9.66699 -70.5 -29 -97.5s-43.5 -48.167 -72.5 -63.5s-58.167 -24.666 -87.5 -27.999l-21 -46c38 -12 64.667 -25 80 -39s23 -34.333 23 -61c0 -24 -8.33301 -44.167 -25 -60.5s-40.667 -24.5 -72 -24.5z" />
    <glyph glyph-name="uni015F" unicode="&#x15f;" horiz-adv-x="432" 
d="M215 -240c-38 0 -65.667 10.0029 -83 30.0029v12h3c8.66699 -4 18 -7 28 -9s21.667 -3 35 -3c20 0 34 3.83301 42 11.5s12 16.834 12 27.501c0 14.667 -7 26.5 -21 35.5s-40.667 19.833 -80 32.5l43 93c-26 1.33301 -49 4.66602 -69 9.99902s-40.667 13.333 -62 24v112
h14l32 -55c20.667 -36.667 54.334 -55 101.001 -55c26.667 0 47.5 6.33301 62.5 19s22.5 30 22.5 52c0 19.333 -4.66699 34.333 -14 45s-22.5 20.167 -39.5 28.5l-60.5 28.5c-34 15.333 -60.167 32.166 -78.5 50.499s-27.5 44.166 -27.5 77.499c0 24.667 7 47 21 67
s31.833 36 53.5 48s44.167 18 67.5 18c24.667 0 47.334 -3 68.001 -9s41.667 -14.333 63 -25v-109h-14l-33 53c-11.333 18 -23.666 31 -36.999 39s-27.666 12 -42.999 12c-22.667 0 -40.834 -5.66699 -54.501 -17s-20.5 -27 -20.5 -47
c0 -22.667 8.16699 -39.834 24.5 -51.501s40.166 -24.834 71.499 -39.501l56.5 -28c19 -9.33301 34.667 -22.5 47 -39.5s18.5 -41.167 18.5 -72.5c0 -27.333 -6.83301 -50.666 -20.5 -69.999s-30.834 -34.5 -51.501 -45.5s-41.334 -17.5 -62.001 -19.5l-21 -46
c38 -12 64.667 -25 80 -39s23 -34.333 23 -61c0 -24 -8.33301 -44.167 -25 -60.5s-40.667 -24.5 -72 -24.5z" />
    <glyph glyph-name="uni0160" unicode="&#x160;" horiz-adv-x="531" 
d="M264 -10c-41.333 0 -76.332 3.83105 -104.999 11.498s-58.334 19.167 -89.001 34.5l-10 164h16l49 -106c24 -20 47.333 -34.5 70 -43.5s45.667 -13.5 69 -13.5c39.333 0 70.166 10.333 92.499 31s33.5 48.667 33.5 84c0 29.333 -6.5 52.333 -19.5 69
s-31.667 31.5 -56 44.5l-86.5 44.5c-31.333 16 -58 31.667 -80 47s-38.667 33.166 -50 53.499s-17 45.833 -17 76.5c0 22.667 5.5 44.834 16.5 66.501s26 41.334 45 59.001s40.333 31.667 64 42s48.167 15.5 73.5 15.5c30.667 0 59 -3.66699 85 -11
s52.667 -17.666 80 -30.999l10 -160h-16l-46 105c-23.333 17.333 -43.666 29.833 -60.999 37.5s-37.333 11.5 -60 11.5c-29.333 0 -53.5 -10 -72.5 -30s-28.5 -44.667 -28.5 -74c0 -34 10.333 -60.5 31 -79.5s53 -39.167 97 -60.5c40.667 -20 74 -38.5 100 -55.5
s45.333 -36.5 58 -58.5s19 -50 19 -84c0 -31.333 -6.66699 -58.833 -20 -82.5s-30.5 -43.5 -51.5 -59.5s-44 -28 -69 -36s-48.833 -12 -71.5 -12zM257.001 709.998l-132 152h11l136 -75l136 75h11l-132 -152h-30z" />
    <glyph glyph-name="uni0161" unicode="&#x161;" horiz-adv-x="432" 
d="M213 -10c-31.333 0 -58.335 2.66895 -81.002 8.00195s-45.667 14 -69 26v112h14l32 -55c20.667 -36.667 54.334 -55 101.001 -55c26.667 0 47.5 6.33301 62.5 19s22.5 30 22.5 52c0 19.333 -4.66699 34.333 -14 45s-22.5 20.167 -39.5 28.5l-60.5 28.5
c-34 15.333 -60.167 32.166 -78.5 50.499s-27.5 44.166 -27.5 77.499c0 24.667 7 47 21 67s31.833 36 53.5 48s44.167 18 67.5 18c24.667 0 47.334 -3 68.001 -9s41.667 -14.333 63 -25v-109h-14l-33 53c-11.333 18 -23.666 31 -36.999 39s-27.666 12 -42.999 12
c-22.667 0 -40.834 -5.66699 -54.501 -17s-20.5 -27 -20.5 -47c0 -22.667 8.16699 -39.834 24.5 -51.501s40.166 -24.834 71.499 -39.501l56.5 -28c19 -9.33301 34.667 -22.5 47 -39.5s18.5 -41.167 18.5 -72.5c0 -29.333 -8 -54.166 -24 -74.499
s-35.667 -35.666 -59 -45.999s-46 -15.5 -68 -15.5zM199.998 530.002l-132 177h11l136 -95l136 95h11l-132 -177h-30z" />
    <glyph glyph-name="uni0162" unicode="&#x162;" horiz-adv-x="674" 
d="M192 0v15.999l100 40v549h-163l-68 -147h-16v202h584v-202h-16l-68 147h-163v-549l100 -40v-16h-126l-25 -55c38 -12 64.667 -25 80 -39s23 -34.333 23 -61c0 -24 -8.33301 -44.167 -25 -60.5s-40.667 -24.5 -72 -24.5c-38 0 -65.667 10 -83 30v12h3
c8.66699 -4 18 -7 28 -9s21.667 -3 35 -3c20 0 34 3.83301 42 11.5s12 16.834 12 27.501c0 14.667 -7 26.5 -21 35.5s-40.667 19.833 -80 32.5l48 103h-129z" />
    <glyph glyph-name="uni0163" unicode="&#x163;" horiz-adv-x="354" 
d="M197 -240c-38 0 -65.666 9.99902 -82.999 29.999v12h3c8.66699 -4 18 -7 28 -9s21.667 -3 35 -3c20 0 34 3.83301 42 11.5s12 16.834 12 27.501c0 14.667 -7 26.5 -21 35.5s-40.667 19.833 -80 32.5l45 96c-22.667 5.33301 -41.334 16.166 -56.001 32.499
s-22 37.5 -22 63.5v314h-82v6l85 41l71 110h6v-110h132v-47h-132v-297c0 -17.333 7.66699 -30 23 -38s33.333 -12 54 -12c12.667 0 24.5 0.666992 35.5 2s20.5 3 28.5 5h3v-10c-6.66699 -15.333 -19.667 -29.666 -39 -42.999s-44 -20 -74 -20l-20 -45
c38 -12 64.667 -25 80 -39s23 -34.333 23 -61c0 -24 -8.33301 -44.167 -25 -60.5s-40.667 -24.5 -72 -24.5z" />
    <glyph glyph-name="uni0164" unicode="&#x164;" horiz-adv-x="674" 
d="M192 0v16l100 40v549h-163l-68 -147h-16v202h584v-202h-16l-68 147h-163v-549l100 -40v-16h-290zM322 710l-132 152h11l136 -75l136 75h11l-132 -152h-30z" />
    <glyph glyph-name="uni0165" unicode="&#x165;" horiz-adv-x="354" 
d="M208 -10c-29.333 0 -54.666 8.66699 -75.999 26s-32 41.666 -32 72.999v314h-82v6l85 41l71 110h6v-110h132v-47h-132v-297c0 -17.333 7.66699 -30 23 -38s33.333 -12 54 -12c12.667 0 24.5 0.666992 35.5 2s20.5 3 28.5 5h3v-10
c-6.66699 -15.333 -19.834 -29.666 -39.501 -42.999s-45.167 -20 -76.5 -20zM251 553l21 187h75c2 -9.33301 2.83301 -19 2.5 -29s-4.83301 -22 -13.5 -36l-74 -122h-11z" />
    <glyph glyph-name="uni0166" unicode="&#x166;" horiz-adv-x="674" 
d="M192 0v16l100 40v261h-124v50h124v238h-163l-68 -147h-16v202h584v-202h-16l-68 147h-163v-238h124v-50h-124v-261l100 -40v-16h-290z" />
    <glyph glyph-name="uni0167" unicode="&#x167;" horiz-adv-x="354" 
d="M208 -10c-29.333 0 -54.666 8.66699 -75.999 26s-32 41.666 -32 72.999v146h-76v47h76v121h-82v6l85 41l71 110h6v-110h132v-47h-132v-121h122v-47h-122v-129c0 -17.333 7.66699 -30 23 -38s33.333 -12 54 -12c12.667 0 24.5 0.666992 35.5 2s20.5 3 28.5 5h3v-10
c-6.66699 -15.333 -19.834 -29.666 -39.501 -42.999s-45.167 -20 -76.5 -20z" />
    <glyph glyph-name="uni0168" unicode="&#x168;" horiz-adv-x="809" 
d="M405 -10c-50 0 -94.501 9.33398 -133.501 28.001s-69.833 47.5 -92.5 86.5s-34 89.5 -34 151.5v348l-80 40v16h250v-16l-80 -40v-333c0 -55.333 8.66699 -99.333 26 -132s40.833 -56 70.5 -70s62.834 -21 99.501 -21c29.333 0 56.5 6.33301 81.5 19s45 32.667 60 60
s22.5 63.666 22.5 108.999v370l-100 38v16h249v-16l-79 -39v-349c0 -62 -11.333 -112.5 -34 -151.5s-53.5 -67.833 -92.5 -86.5s-83.5 -28 -133.5 -28zM262.999 726.001c10.667 33.333 20.834 58.166 30.501 74.499s19.667 27 30 32s21.833 7.5 34.5 7.5
c17.333 0 33.333 -4.33301 48 -13l42.5 -26c13.667 -8.66699 28.167 -13 43.5 -13c12.667 0 24 3.33301 34 10s19.333 20.667 28 42h13c-10.667 -33.333 -20.834 -58.166 -30.501 -74.499s-19.667 -27 -30 -32s-21.833 -7.5 -34.5 -7.5c-17.333 0 -33.333 4.33301 -48 13
l-42.5 26c-13.667 8.66699 -28.167 13 -43.5 13c-12.667 0 -24 -3.33301 -34 -10s-19.333 -20.667 -28 -42h-13z" />
    <glyph glyph-name="uni0169" unicode="&#x169;" horiz-adv-x="561" 
d="M225 -10c-39.333 0 -71.5 9.83105 -96.5 29.498s-37.5 48.834 -37.5 87.501v296l-63 31v16h143v-296c0 -29.333 9.16699 -51.666 27.5 -66.999s42.166 -23 71.499 -23c18 0 37.833 3 59.5 9s38.834 14.667 51.501 26v304l-71 31v16h151v-405l71 -29v-16h-151v63h-5
c-25.333 -25.333 -49.833 -43.833 -73.5 -55.5s-49.5 -17.5 -77.5 -17.5zM118 555.998c12 36 22.667 62.833 32 80.5s19 29.334 29 35.001s21.333 8.5 34 8.5s24.834 -3.33301 36.501 -10s22.834 -14.167 33.501 -22.5s21.167 -15.833 31.5 -22.5s21.166 -10 32.499 -10
c12.667 0 23.5 4.5 32.5 13.5s18.833 26.167 29.5 51.5h13c-12 -36 -22.667 -62.833 -32 -80.5s-19 -29.334 -29 -35.001s-21.333 -8.5 -34 -8.5s-24.834 3.33301 -36.501 10s-22.834 14.167 -33.501 22.5s-21.167 15.833 -31.5 22.5s-21.166 10 -32.499 10
c-12.667 0 -23.5 -4.5 -32.5 -13.5s-18.833 -26.167 -29.5 -51.5h-13z" />
    <glyph glyph-name="uni016A" unicode="&#x16a;" horiz-adv-x="809" 
d="M405 -10c-50 0 -94.501 9.33398 -133.501 28.001s-69.833 47.5 -92.5 86.5s-34 89.5 -34 151.5v348l-80 40v16h250v-16l-80 -40v-333c0 -55.333 8.66699 -99.333 26 -132s40.833 -56 70.5 -70s62.834 -21 99.501 -21c29.333 0 56.5 6.33301 81.5 19s45 32.667 60 60
s22.5 63.666 22.5 108.999v370l-100 38v16h249v-16l-79 -39v-349c0 -62 -11.333 -112.5 -34 -151.5s-53.5 -67.833 -92.5 -86.5s-83.5 -28 -133.5 -28zM281.999 764.001v50h266v-50h-266z" />
    <glyph glyph-name="uni016B" unicode="&#x16b;" horiz-adv-x="561" 
d="M225 -10c-39.333 0 -71.5 9.83105 -96.5 29.498s-37.5 48.834 -37.5 87.501v296l-63 31v16h143v-296c0 -29.333 9.16699 -51.666 27.5 -66.999s42.166 -23 71.499 -23c18 0 37.833 3 59.5 9s38.834 14.667 51.501 26v304l-71 31v16h151v-405l71 -29v-16h-151v63h-5
c-25.333 -25.333 -49.833 -43.833 -73.5 -55.5s-49.5 -17.5 -77.5 -17.5zM137 591.998v50h266v-50h-266z" />
    <glyph glyph-name="uni016C" unicode="&#x16c;" horiz-adv-x="809" 
d="M405 -10c-50 0 -94.501 9.33398 -133.501 28.001s-69.833 47.5 -92.5 86.5s-34 89.5 -34 151.5v348l-80 40v16h250v-16l-80 -40v-333c0 -55.333 8.66699 -99.333 26 -132s40.833 -56 70.5 -70s62.834 -21 99.501 -21c29.333 0 56.5 6.33301 81.5 19s45 32.667 60 60
s22.5 63.666 22.5 108.999v370l-100 38v16h249v-16l-79 -39v-349c0 -62 -11.333 -112.5 -34 -151.5s-53.5 -67.833 -92.5 -86.5s-83.5 -28 -133.5 -28zM414.999 710.001c-42.667 0 -74.8359 13.667 -96.5029 41s-38.167 64.333 -49.5 111h11
c12.667 -24 24.834 -42 36.501 -54s25.334 -20.167 41.001 -24.5s34.834 -6.5 57.501 -6.5s41.667 2.16699 57 6.5s29 12.5 41 24.5s24.333 30 37 54h11c-12 -46.667 -28.667 -83.667 -50 -111s-53.333 -41 -96 -41z" />
    <glyph glyph-name="uni016D" unicode="&#x16d;" horiz-adv-x="561" 
d="M225 -10c-39.333 0 -71.5 9.83105 -96.5 29.498s-37.5 48.834 -37.5 87.501v296l-63 31v16h143v-296c0 -29.333 9.16699 -51.666 27.5 -66.999s42.166 -23 71.499 -23c18 0 37.833 3 59.5 9s38.834 14.667 51.501 26v304l-71 31v16h151v-405l71 -29v-16h-151v63h-5
c-25.333 -25.333 -49.833 -43.833 -73.5 -55.5s-49.5 -17.5 -77.5 -17.5zM270 539.998c-42.667 0 -74.499 13.833 -95.499 41.5s-37.833 69.5 -50.5 125.5h11c14 -30 27.5 -52.167 40.5 -66.5s27 -23.5 42 -27.5s32.5 -6 52.5 -6s37.333 2 52 6s28.667 13.167 42 27.5
s27 36.5 41 66.5h11c-13.333 -56 -30.333 -97.833 -51 -125.5s-52.334 -41.5 -95.001 -41.5z" />
    <glyph glyph-name="uni016E" unicode="&#x16e;" horiz-adv-x="809" 
d="M405 -10c-50 0 -94.501 9.33398 -133.501 28.001s-69.833 47.5 -92.5 86.5s-34 89.5 -34 151.5v348l-80 40v16h250v-16l-80 -40v-333c0 -55.333 8.66699 -99.333 26 -132s40.833 -56 70.5 -70s62.834 -21 99.501 -21c29.333 0 56.5 6.33301 81.5 19s45 32.667 60 60
s22.5 63.666 22.5 108.999v370l-100 38v16h249v-16l-79 -39v-349c0 -62 -11.333 -112.5 -34 -151.5s-53.5 -67.833 -92.5 -86.5s-83.5 -28 -133.5 -28zM414.999 710.001c-25.333 0 -46 7.83301 -62 23.5s-24 35.5 -24 59.5c0 23.333 8 43 24 59s36.667 24 62 24
c26 0 46.833 -8 62.5 -24s23.5 -35.667 23.5 -59c0 -24 -7.83301 -43.833 -23.5 -59.5s-36.5 -23.5 -62.5 -23.5zM419.999 734.001c22 0 33 17.333 33 52c0 44 -14 66 -42 66c-10.667 0 -18.667 -4 -24 -12s-8 -21.333 -8 -40c0 -44 13.667 -66 41 -66z" />
    <glyph glyph-name="uni016F" unicode="&#x16f;" horiz-adv-x="561" 
d="M225 -10c-39.333 0 -71.5 9.83105 -96.5 29.498s-37.5 48.834 -37.5 87.501v296l-63 31v16h143v-296c0 -29.333 9.16699 -51.666 27.5 -66.999s42.166 -23 71.499 -23c18 0 37.833 3 59.5 9s38.834 14.667 51.501 26v304l-71 31v16h151v-405l71 -29v-16h-151v63h-5
c-25.333 -25.333 -49.833 -43.833 -73.5 -55.5s-49.5 -17.5 -77.5 -17.5zM270 700.998c26 0 46.833 -8 62.5 -24s23.5 -35.667 23.5 -59c0 -24 -7.83301 -43.833 -23.5 -59.5s-36.5 -23.5 -62.5 -23.5c-25.333 0 -46 7.83301 -62 23.5s-24 35.5 -24 59.5
c0 23.333 8 43 24 59s36.667 24 62 24zM266 676.998c-10.667 0 -18.667 -4 -24 -12s-8 -21.333 -8 -40c0 -44 13.667 -66 41 -66c22 0 33 17.333 33 52c0 44 -14 66 -42 66z" />
    <glyph glyph-name="uni0170" unicode="&#x170;" horiz-adv-x="809" 
d="M405 -10c-50 0 -94.501 9.33398 -133.501 28.001s-69.833 47.5 -92.5 86.5s-34 89.5 -34 151.5v348l-80 40v16h250v-16l-80 -40v-333c0 -55.333 8.66699 -99.333 26 -132s40.833 -56 70.5 -70s62.834 -21 99.501 -21c29.333 0 56.5 6.33301 81.5 19s45 32.667 60 60
s22.5 63.666 22.5 108.999v370l-100 38v16h249v-16l-79 -39v-349c0 -62 -11.333 -112.5 -34 -151.5s-53.5 -67.833 -92.5 -86.5s-83.5 -28 -133.5 -28zM351.999 710.001l48 152.001h63c3.33301 -10 4.83301 -20.333 4.5 -31s-5.83301 -21.334 -16.5 -32.001l-88 -89h-11z
M465.999 710.002l58 152h63c3.33301 -10 5 -20.5 5 -31.5s-5.66699 -21.5 -17 -31.5l-98 -89h-11z" />
    <glyph glyph-name="uni0171" unicode="&#x171;" horiz-adv-x="561" 
d="M225 -10c-39.333 0 -71.5 9.83105 -96.5 29.498s-37.5 48.834 -37.5 87.501v296l-63 31v16h143v-296c0 -29.333 9.16699 -51.666 27.5 -66.999s42.166 -23 71.499 -23c18 0 37.833 3 59.5 9s38.834 14.667 51.501 26v304l-71 31v16h151v-405l71 -29v-16h-151v63h-5
c-25.333 -25.333 -49.833 -43.833 -73.5 -55.5s-49.5 -17.5 -77.5 -17.5zM202 529.998l48 177h63c3.33301 -10 4.33301 -20 3 -30s-6.33301 -21 -15 -33l-88 -114h-11zM316 529.998l58.001 176.999h63c3.33301 -10 4.66602 -20.167 3.99902 -30.5s-6 -21.166 -16 -32.499
l-98 -114h-11z" />
    <glyph glyph-name="uni0172" unicode="&#x172;" horiz-adv-x="809" 
d="M421 -240c-28.667 0 -52.333 7.99609 -71 23.9961s-28 37.333 -28 64c0 22.667 7.16699 45.334 21.5 68.001s33.166 47.334 56.499 74.001c-48.667 0.666992 -92.334 10.334 -131.001 29.001s-69 47.5 -91 86.5s-33 89.167 -33 150.5v348l-80 40v16h250v-16l-80 -40v-333
c0 -55.333 8.66699 -99.333 26 -132s40.833 -56 70.5 -70s62.834 -21 99.501 -21c29.333 0 56.5 6.33301 81.5 19s45 32.667 60 60s22.5 63.666 22.5 108.999v370l-100 38v16h249v-16l-79 -39v-349c0 -58.667 -10.167 -107.167 -30.5 -145.5s-48.333 -67.166 -84 -86.499
s-76.167 -30.333 -121.5 -33c-14.667 -24 -25.167 -45.667 -31.5 -65s-9.5 -38 -9.5 -56c0 -22.667 5.66699 -39.167 17 -49.5s27.333 -15.5 48 -15.5c7.33301 0 15.333 0.833008 24 2.5s17.334 4.83398 26.001 9.50098h3v-12c-9.33301 -14 -21 -25 -35 -33
s-30.667 -12 -50 -12z" />
    <glyph glyph-name="uni0173" unicode="&#x173;" horiz-adv-x="561" 
d="M225 -10c-39.333 0 -71.5 9.83008 -96.5 29.4971s-37.5 48.834 -37.5 87.501v296l-63 31v16h143v-296c0 -29.333 9.16699 -51.666 27.5 -66.999s42.166 -23 71.499 -23c18 0 37.833 3 59.5 9s38.834 14.667 51.501 26v304l-71 31v16h151v-405l71 -29v-16h-72
c-16 -25.333 -27.667 -48.5 -35 -69.5s-11 -41.167 -11 -60.5c0 -22.667 5.66699 -39.167 17 -49.5s27.333 -15.5 48 -15.5c7.33301 0 15.333 0.833008 24 2.5s17.334 4.83398 26.001 9.50098h3v-12c-9.33301 -14 -21 -25 -35 -33s-30.667 -12 -50 -12
c-28.667 0 -52.334 8 -71.001 24s-28 37.333 -28 64c0 24 8 48 24 72s36.667 50.667 62 80h-53v63h-5c-25.333 -25.333 -49.833 -43.833 -73.5 -55.5s-49.5 -17.5 -77.5 -17.5z" />
    <glyph glyph-name="uni0174" unicode="&#x174;" horiz-adv-x="981" 
d="M274 -5l-184 613l-75 36v16h254v-16l-85 -37l125 -433h5l173 491h37l177 -491h6l123 432l-85 38v16h221v-16l-67 -37l-186 -612h-35l-182 490h-5l-182 -490h-35zM359 710l132 152h30l132 -152h-11l-136 75l-136 -75h-11z" />
    <glyph glyph-name="uni0175" unicode="&#x175;" horiz-adv-x="753" 
d="M201 0l-157 403l-67 31v16h239v-16l-82 -30v-6l104 -277h4l142 329h21l142 -326h4l101 268v6l-72 36v16h196v-16l-74 -35l-167 -399h-21l-144 326l-148 -326h-21zM248 530l132 177h30l132 -177h-11l-136 95l-136 -95h-11z" />
    <glyph glyph-name="uni0176" unicode="&#x176;" horiz-adv-x="718" 
d="M228 0v16l90 40v252l-222 303l-61 33v16h242v-16l-73 -35v-4l179 -243l161 242v4l-73 36v16h212v-16l-64 -33l-211 -302v-253l90 -40v-16h-270zM227 710l132 152h30l132 -152h-11l-136 75l-136 -75h-11z" />
    <glyph glyph-name="uni0177" unicode="&#x177;" horiz-adv-x="480" 
d="M83 -241c-15.333 0 -24.833 2.16699 -28.5 6.5s-5.5 11.833 -5.5 22.5v50l4 4h46c16.667 0 29.334 1.5 38.001 4.5s16.667 10.667 24 23s17.666 32.5 30.999 60.5l35 78l-183 395l-67 31v16h239v-16l-82 -31v-5l133 -290h3l112 284v6l-75 36v16h196v-16l-75 -34
l-197 -479l-15.5 -38.5c-4.33301 -10.333 -9.16602 -20.333 -14.499 -30s-13 -21.5 -23 -35.5c-13.333 -19.333 -28.333 -33.833 -45 -43.5s-33.334 -14.5 -50.001 -14.5zM117 530l132 177h30l132 -177h-11l-136 95l-136 -95h-11z" />
    <glyph glyph-name="uni0178" unicode="&#x178;" horiz-adv-x="718" 
d="M228 0v16l90 40v252l-222 303l-61 33v16h242v-16l-73 -35v-4l179 -243l161 242v4l-73 36v16h212v-16l-64 -33l-211 -302v-253l90 -40v-16h-270zM282 737c-14 0 -25.667 4.66699 -35 14s-14 21 -14 35s4.66699 25.667 14 35s21 14 35 14s25.667 -4.66699 35 -14
s14 -21 14 -35s-4.66699 -25.667 -14 -35s-21 -14 -35 -14zM466 737c-14 0 -25.667 4.66699 -35 14s-14 21 -14 35s4.66699 25.667 14 35s21 14 35 14s25.667 -4.66699 35 -14s14 -21 14 -35s-4.66699 -25.667 -14 -35s-21 -14 -35 -14z" />
    <glyph glyph-name="uni0179" unicode="&#x179;" horiz-adv-x="646" 
d="M90 0v25l341 580h-251l-62 -127h-16v182h443v-25l-342 -580h275l62 137h16v-192h-466zM328 710l87.001 152.001h82c0 -10 -1.83301 -20.333 -5.5 -31s-12.834 -21.334 -27.501 -32.001l-125 -89h-11z" />
    <glyph glyph-name="uni017A" unicode="&#x17a;" horiz-adv-x="482" 
d="M70 0l-0.000976562 18l225 388h-165l-45 -100h-16l11 154h5c8.66699 -2 19.334 -4.16699 32.001 -6.5s23 -3.5 31 -3.5h251v-18l-225 -388h180l37 107h16v-151h-337zM242.999 530l86.999 177h82c0 -10 -2.16699 -20 -6.5 -30s-13.166 -21 -26.499 -33l-125 -114h-11z" />
    <glyph glyph-name="uni017B" unicode="&#x17b;" horiz-adv-x="646" 
d="M90 0v25l341 580h-251l-62 -127h-16v182h443v-25l-342 -580h275l62 137h16v-192h-466zM333 726c-16.667 0 -30.834 5.83301 -42.501 17.5s-17.5 25.834 -17.5 42.501s5.83301 30.834 17.5 42.501s25.834 17.5 42.501 17.5s30.834 -5.83301 42.501 -17.5
s17.5 -25.834 17.5 -42.501s-5.83301 -30.834 -17.5 -42.501s-25.834 -17.5 -42.501 -17.5z" />
    <glyph glyph-name="uni017C" unicode="&#x17c;" horiz-adv-x="482" 
d="M70 0l-0.000976562 18l225 388h-165l-45 -100h-16l11 154h5c8.66699 -2 19.334 -4.16699 32.001 -6.5s23 -3.5 31 -3.5h251v-18l-225 -388h180l37 107h16v-151h-337zM242.999 558c-16.667 0 -30.834 5.83301 -42.501 17.5s-17.5 25.834 -17.5 42.501
s5.83301 30.834 17.5 42.501s25.834 17.5 42.501 17.5s30.834 -5.83301 42.501 -17.5s17.5 -25.834 17.5 -42.501s-5.83301 -30.834 -17.5 -42.501s-25.834 -17.5 -42.501 -17.5z" />
    <glyph glyph-name="uni017D" unicode="&#x17d;" horiz-adv-x="646" 
d="M90 0v25l341 580h-251l-62 -127h-16v182h443v-25l-342 -580h275l62 137h16v-192h-466zM318 710l-132 152h11l136 -75l136 75h11l-132 -152h-30z" />
    <glyph glyph-name="uni017E" unicode="&#x17e;" horiz-adv-x="482" 
d="M70 0l-0.000976562 18l225 388h-165l-45 -100h-16l11 154h5c8.66699 -2 19.334 -4.16699 32.001 -6.5s23 -3.5 31 -3.5h251v-18l-225 -388h180l37 107h16v-151h-337zM227.999 530l-132 177h11l136 -95l136 95h11l-132 -177h-30z" />
    <glyph glyph-name="uni017F" unicode="&#x17f;" horiz-adv-x="342" 
d="M54 0l-0.00195312 16l63 32v355h-78v47h78v40c0 13.333 3.33301 30.666 10 51.999s16.5 43.833 29.5 67.5s28.833 46.167 47.5 67.5s39.834 38.833 63.501 52.5s49.834 20.5 78.501 20.5c6 0 12.333 -1 19 -3s12.334 -4 17.001 -6c20 -7.33301 30 -16.666 30 -27.999
c0 -6 -1.33301 -12 -4 -18l-20 -49h-7l-27 11c-18.667 7.33301 -40.334 11 -65.001 11c-36.667 0 -61.167 -11.5 -73.5 -34.5s-18.5 -57.5 -18.5 -103.5v-484l71 -30v-16h-214z" />
    <glyph glyph-name="uni018F" unicode="&#x18f;" horiz-adv-x="695" 
d="M321 -10c-76 0 -136.667 26.335 -182 79.002s-68 127 -68 223l8 7h452v11c0 85.333 -18.833 152.5 -56.5 201.5s-98.5 73.5 -182.5 73.5c-43.333 0 -81.833 -6.83301 -115.5 -20.5s-67.834 -31.5 -102.501 -53.5h-4v12c22.667 42 55.834 77 99.501 105
s94.834 42 153.501 42c62 0 115.667 -12.833 161 -38.5s80.166 -61.834 104.499 -108.501s36.5 -101.334 36.5 -164.001c0 -72 -13 -135.833 -39 -191.5s-61.833 -99.167 -107.5 -130.5s-98.167 -47 -157.5 -47zM332 44.002c116 0 181.333 68.333 196 205h-370
c4.66699 -38.667 14.5 -73.5 29.5 -104.5s34.667 -55.5 59 -73.5s52.833 -27 85.5 -27z" />
    <glyph glyph-name="uni0192" unicode="&#x192;" 
d="M-16 -151c-5.33301 0 -11.0068 1 -17.0068 3l-15 5c-18 6.66699 -27 15 -27 25c0 4 1 9.66699 3 17l18 44h7l24 -10c17.333 -6.66699 37 -10 59 -10c16 0 28.667 2.66699 38 8s17.333 16.833 24 34.5s13.667 45.167 21 82.5l55 267h-104v38h111l12 57
c2.66699 12.667 7.66699 29.667 15 51s17.333 44 30 68s27.834 46.667 45.501 68s38 38.833 61 52.5s48.833 20.5 77.5 20.5c6 0 12.333 -1 19 -3s12.334 -4 17.001 -6c20 -7.33301 30 -16.666 30 -27.999c0 -6 -1.33301 -12 -4 -18l-17 -46h-7l-27 11
c-18 7.33301 -39.667 11 -65 11c-16.667 0 -30.667 -3.83301 -42 -11.5s-21.166 -21.834 -29.499 -42.501s-16.166 -49.667 -23.499 -87l-20 -97h167v-38h-174l-47 -231c-5.33301 -25.333 -14.666 -51.666 -27.999 -78.999s-29.666 -52.833 -48.999 -76.5
s-40.666 -42.834 -63.999 -57.501s-48 -22 -74 -22z" />
    </font>
</defs>
</svg>
